ISO-10303-21;
HEADER;
/* Generated by software containing ST-Developer
 * from STEP Tools, Inc. (www.steptools.com) 
 */

FILE_DESCRIPTION(
/* description */ (''),
/* implementation_level */ '2;1');

FILE_NAME(
/* name */ 'bot_half_case.step',
/* time_stamp */ '2026-05-17T19:57:36-04:00',
/* author */ (''),
/* organization */ (''),
/* preprocessor_version */ 'ST-DEVELOPER v20.1',
/* originating_system */ 'Autodesk Translation Framework v15.8.0.0',
/* authorisation */ '');

FILE_SCHEMA (('AUTOMOTIVE_DESIGN { 1 0 10303 214 3 1 1 }'));
ENDSEC;

DATA;
#10=MECHANICAL_DESIGN_GEOMETRIC_PRESENTATION_REPRESENTATION('',(#13,#14,
#15),#1579);
#11=SHAPE_REPRESENTATION_RELATIONSHIP('SRR','None',#1585,#12);
#12=ADVANCED_BREP_SHAPE_REPRESENTATION('',(#16,#17,#18),#1578);
#13=STYLED_ITEM('',(#1594),#16);
#14=STYLED_ITEM('',(#1594),#17);
#15=STYLED_ITEM('',(#1594),#18);
#16=MANIFOLD_SOLID_BREP('Body1',#969);
#17=MANIFOLD_SOLID_BREP('Body3',#970);
#18=MANIFOLD_SOLID_BREP('Body41',#971);
#19=FACE_BOUND('',#110,.T.);
#20=FACE_BOUND('',#111,.T.);
#21=FACE_BOUND('',#112,.T.);
#22=FACE_BOUND('',#113,.T.);
#23=FACE_BOUND('',#114,.T.);
#24=FACE_BOUND('',#115,.T.);
#25=FACE_BOUND('',#116,.T.);
#26=FACE_BOUND('',#117,.T.);
#27=FACE_BOUND('',#149,.T.);
#28=FACE_BOUND('',#150,.T.);
#29=FACE_BOUND('',#151,.T.);
#30=FACE_BOUND('',#152,.T.);
#31=FACE_BOUND('',#153,.T.);
#32=FACE_BOUND('',#154,.T.);
#33=FACE_BOUND('',#155,.T.);
#34=FACE_BOUND('',#156,.T.);
#35=ELLIPSE('',#979,7.07106781186548,5.);
#36=ELLIPSE('',#1010,1.4142135623731,1.);
#37=ELLIPSE('',#1012,1.4142135623731,1.);
#38=ELLIPSE('',#1029,7.07106781186548,5.);
#39=CYLINDRICAL_SURFACE('',#978,5.);
#40=CYLINDRICAL_SURFACE('',#992,0.549999987706542);
#41=CYLINDRICAL_SURFACE('',#994,0.499999988824129);
#42=CYLINDRICAL_SURFACE('',#996,0.499999988824129);
#43=CYLINDRICAL_SURFACE('',#998,0.549999987706542);
#44=CYLINDRICAL_SURFACE('',#1000,0.499999988824129);
#45=CYLINDRICAL_SURFACE('',#1002,0.499999988824129);
#46=CYLINDRICAL_SURFACE('',#1004,1.41421358344652);
#47=CYLINDRICAL_SURFACE('',#1006,1.41421358344652);
#48=CYLINDRICAL_SURFACE('',#1008,1.);
#49=CYLINDRICAL_SURFACE('',#1011,1.);
#50=CYLINDRICAL_SURFACE('',#1013,1.);
#51=CYLINDRICAL_SURFACE('',#1028,5.);
#52=CYLINDRICAL_SURFACE('',#1030,5.);
#53=FACE_OUTER_BOUND('',#105,.T.);
#54=FACE_OUTER_BOUND('',#106,.T.);
#55=FACE_OUTER_BOUND('',#107,.T.);
#56=FACE_OUTER_BOUND('',#108,.T.);
#57=FACE_OUTER_BOUND('',#109,.T.);
#58=FACE_OUTER_BOUND('',#118,.T.);
#59=FACE_OUTER_BOUND('',#119,.T.);
#60=FACE_OUTER_BOUND('',#120,.T.);
#61=FACE_OUTER_BOUND('',#121,.T.);
#62=FACE_OUTER_BOUND('',#122,.T.);
#63=FACE_OUTER_BOUND('',#123,.T.);
#64=FACE_OUTER_BOUND('',#124,.T.);
#65=FACE_OUTER_BOUND('',#125,.T.);
#66=FACE_OUTER_BOUND('',#126,.T.);
#67=FACE_OUTER_BOUND('',#127,.T.);
#68=FACE_OUTER_BOUND('',#128,.T.);
#69=FACE_OUTER_BOUND('',#129,.T.);
#70=FACE_OUTER_BOUND('',#130,.T.);
#71=FACE_OUTER_BOUND('',#131,.T.);
#72=FACE_OUTER_BOUND('',#132,.T.);
#73=FACE_OUTER_BOUND('',#133,.T.);
#74=FACE_OUTER_BOUND('',#134,.T.);
#75=FACE_OUTER_BOUND('',#135,.T.);
#76=FACE_OUTER_BOUND('',#136,.T.);
#77=FACE_OUTER_BOUND('',#137,.T.);
#78=FACE_OUTER_BOUND('',#138,.T.);
#79=FACE_OUTER_BOUND('',#139,.T.);
#80=FACE_OUTER_BOUND('',#140,.T.);
#81=FACE_OUTER_BOUND('',#141,.T.);
#82=FACE_OUTER_BOUND('',#142,.T.);
#83=FACE_OUTER_BOUND('',#143,.T.);
#84=FACE_OUTER_BOUND('',#144,.T.);
#85=FACE_OUTER_BOUND('',#145,.T.);
#86=FACE_OUTER_BOUND('',#146,.T.);
#87=FACE_OUTER_BOUND('',#147,.T.);
#88=FACE_OUTER_BOUND('',#148,.T.);
#89=FACE_OUTER_BOUND('',#157,.T.);
#90=FACE_OUTER_BOUND('',#158,.T.);
#91=FACE_OUTER_BOUND('',#159,.T.);
#92=FACE_OUTER_BOUND('',#160,.T.);
#93=FACE_OUTER_BOUND('',#161,.T.);
#94=FACE_OUTER_BOUND('',#162,.T.);
#95=FACE_OUTER_BOUND('',#163,.T.);
#96=FACE_OUTER_BOUND('',#164,.T.);
#97=FACE_OUTER_BOUND('',#165,.T.);
#98=FACE_OUTER_BOUND('',#166,.T.);
#99=FACE_OUTER_BOUND('',#167,.T.);
#100=FACE_OUTER_BOUND('',#168,.T.);
#101=FACE_OUTER_BOUND('',#169,.T.);
#102=FACE_OUTER_BOUND('',#170,.T.);
#103=FACE_OUTER_BOUND('',#171,.T.);
#104=FACE_OUTER_BOUND('',#172,.T.);
#105=EDGE_LOOP('',(#619,#620,#621,#622,#623,#624,#625));
#106=EDGE_LOOP('',(#626,#627,#628,#629,#630,#631,#632));
#107=EDGE_LOOP('',(#633,#634,#635,#636));
#108=EDGE_LOOP('',(#637,#638,#639,#640));
#109=EDGE_LOOP('',(#641,#642,#643,#644,#645,#646,#647,#648));
#110=EDGE_LOOP('',(#649));
#111=EDGE_LOOP('',(#650));
#112=EDGE_LOOP('',(#651));
#113=EDGE_LOOP('',(#652));
#114=EDGE_LOOP('',(#653));
#115=EDGE_LOOP('',(#654));
#116=EDGE_LOOP('',(#655));
#117=EDGE_LOOP('',(#656));
#118=EDGE_LOOP('',(#657,#658,#659,#660,#661,#662,#663,#664,#665,#666,#667,
#668,#669,#670,#671,#672));
#119=EDGE_LOOP('',(#673,#674,#675,#676));
#120=EDGE_LOOP('',(#677,#678,#679,#680));
#121=EDGE_LOOP('',(#681,#682,#683,#684));
#122=EDGE_LOOP('',(#685,#686,#687,#688));
#123=EDGE_LOOP('',(#689,#690,#691,#692));
#124=EDGE_LOOP('',(#693,#694,#695,#696));
#125=EDGE_LOOP('',(#697,#698,#699,#700));
#126=EDGE_LOOP('',(#701,#702,#703,#704));
#127=EDGE_LOOP('',(#705,#706,#707,#708));
#128=EDGE_LOOP('',(#709,#710,#711,#712));
#129=EDGE_LOOP('',(#713,#714,#715,#716));
#130=EDGE_LOOP('',(#717,#718,#719,#720));
#131=EDGE_LOOP('',(#721,#722,#723,#724));
#132=EDGE_LOOP('',(#725,#726,#727,#728,#729));
#133=EDGE_LOOP('',(#730,#731,#732,#733));
#134=EDGE_LOOP('',(#734,#735,#736,#737,#738));
#135=EDGE_LOOP('',(#739,#740,#741,#742));
#136=EDGE_LOOP('',(#743,#744,#745,#746,#747,#748));
#137=EDGE_LOOP('',(#749,#750,#751,#752));
#138=EDGE_LOOP('',(#753,#754,#755,#756));
#139=EDGE_LOOP('',(#757,#758,#759,#760));
#140=EDGE_LOOP('',(#761,#762,#763,#764));
#141=EDGE_LOOP('',(#765,#766,#767,#768,#769));
#142=EDGE_LOOP('',(#770,#771,#772,#773,#774));
#143=EDGE_LOOP('',(#775,#776,#777,#778));
#144=EDGE_LOOP('',(#779,#780,#781,#782,#783,#784,#785,#786));
#145=EDGE_LOOP('',(#787,#788,#789,#790));
#146=EDGE_LOOP('',(#791,#792,#793,#794));
#147=EDGE_LOOP('',(#795,#796,#797,#798));
#148=EDGE_LOOP('',(#799,#800,#801,#802,#803,#804,#805,#806));
#149=EDGE_LOOP('',(#807));
#150=EDGE_LOOP('',(#808));
#151=EDGE_LOOP('',(#809));
#152=EDGE_LOOP('',(#810));
#153=EDGE_LOOP('',(#811));
#154=EDGE_LOOP('',(#812));
#155=EDGE_LOOP('',(#813));
#156=EDGE_LOOP('',(#814));
#157=EDGE_LOOP('',(#815,#816,#817,#818));
#158=EDGE_LOOP('',(#819,#820,#821,#822));
#159=EDGE_LOOP('',(#823,#824,#825,#826));
#160=EDGE_LOOP('',(#827,#828,#829,#830));
#161=EDGE_LOOP('',(#831,#832,#833,#834));
#162=EDGE_LOOP('',(#835,#836,#837,#838));
#163=EDGE_LOOP('',(#839,#840,#841,#842));
#164=EDGE_LOOP('',(#843,#844,#845,#846));
#165=EDGE_LOOP('',(#847,#848,#849,#850));
#166=EDGE_LOOP('',(#851,#852,#853,#854));
#167=EDGE_LOOP('',(#855,#856,#857,#858));
#168=EDGE_LOOP('',(#859,#860,#861,#862));
#169=EDGE_LOOP('',(#863,#864,#865,#866));
#170=EDGE_LOOP('',(#867,#868,#869,#870));
#171=EDGE_LOOP('',(#871,#872,#873,#874));
#172=EDGE_LOOP('',(#875,#876,#877,#878));
#173=CIRCLE('',#974,5.);
#174=CIRCLE('',#976,5.);
#175=CIRCLE('',#981,1.41421358344652);
#176=CIRCLE('',#982,1.41421358344652);
#177=CIRCLE('',#983,0.499999988824129);
#178=CIRCLE('',#984,0.499999988824129);
#179=CIRCLE('',#985,0.549999987706542);
#180=CIRCLE('',#986,0.499999988824129);
#181=CIRCLE('',#987,0.499999988824129);
#182=CIRCLE('',#988,0.549999987706542);
#183=CIRCLE('',#993,0.549999987706542);
#184=CIRCLE('',#995,0.499999988824129);
#185=CIRCLE('',#997,0.499999988824129);
#186=CIRCLE('',#999,0.549999987706542);
#187=CIRCLE('',#1001,0.499999988824129);
#188=CIRCLE('',#1003,0.499999988824129);
#189=CIRCLE('',#1005,1.41421358344652);
#190=CIRCLE('',#1007,1.41421358344652);
#191=CIRCLE('',#1009,1.);
#192=CIRCLE('',#1014,1.);
#193=LINE('',#1313,#299);
#194=LINE('',#1315,#300);
#195=LINE('',#1319,#301);
#196=LINE('',#1321,#302);
#197=LINE('',#1323,#303);
#198=LINE('',#1324,#304);
#199=LINE('',#1328,#305);
#200=LINE('',#1330,#306);
#201=LINE('',#1332,#307);
#202=LINE('',#1334,#308);
#203=LINE('',#1336,#309);
#204=LINE('',#1339,#310);
#205=LINE('',#1342,#311);
#206=LINE('',#1344,#312);
#207=LINE('',#1345,#313);
#208=LINE('',#1348,#314);
#209=LINE('',#1351,#315);
#210=LINE('',#1354,#316);
#211=LINE('',#1355,#317);
#212=LINE('',#1357,#318);
#213=LINE('',#1359,#319);
#214=LINE('',#1360,#320);
#215=LINE('',#1379,#321);
#216=LINE('',#1381,#322);
#217=LINE('',#1382,#323);
#218=LINE('',#1384,#324);
#219=LINE('',#1386,#325);
#220=LINE('',#1388,#326);
#221=LINE('',#1390,#327);
#222=LINE('',#1392,#328);
#223=LINE('',#1394,#329);
#224=LINE('',#1396,#330);
#225=LINE('',#1398,#331);
#226=LINE('',#1400,#332);
#227=LINE('',#1401,#333);
#228=LINE('',#1403,#334);
#229=LINE('',#1406,#335);
#230=LINE('',#1407,#336);
#231=LINE('',#1410,#337);
#232=LINE('',#1414,#338);
#233=LINE('',#1418,#339);
#234=LINE('',#1422,#340);
#235=LINE('',#1426,#341);
#236=LINE('',#1430,#342);
#237=LINE('',#1434,#343);
#238=LINE('',#1438,#344);
#239=LINE('',#1443,#345);
#240=LINE('',#1447,#346);
#241=LINE('',#1451,#347);
#242=LINE('',#1454,#348);
#243=LINE('',#1457,#349);
#244=LINE('',#1460,#350);
#245=LINE('',#1463,#351);
#246=LINE('',#1464,#352);
#247=LINE('',#1465,#353);
#248=LINE('',#1468,#354);
#249=LINE('',#1469,#355);
#250=LINE('',#1471,#356);
#251=LINE('',#1472,#357);
#252=LINE('',#1476,#358);
#253=LINE('',#1478,#359);
#254=LINE('',#1480,#360);
#255=LINE('',#1481,#361);
#256=LINE('',#1483,#362);
#257=LINE('',#1484,#363);
#258=LINE('',#1485,#364);
#259=LINE('',#1488,#365);
#260=LINE('',#1490,#366);
#261=LINE('',#1493,#367);
#262=LINE('',#1495,#368);
#263=LINE('',#1496,#369);
#264=LINE('',#1498,#370);
#265=LINE('',#1500,#371);
#266=LINE('',#1504,#372);
#267=LINE('',#1505,#373);
#268=LINE('',#1509,#374);
#269=LINE('',#1511,#375);
#270=LINE('',#1514,#376);
#271=LINE('',#1516,#377);
#272=LINE('',#1517,#378);
#273=LINE('',#1519,#379);
#274=LINE('',#1520,#380);
#275=LINE('',#1527,#381);
#276=LINE('',#1529,#382);
#277=LINE('',#1531,#383);
#278=LINE('',#1532,#384);
#279=LINE('',#1535,#385);
#280=LINE('',#1537,#386);
#281=LINE('',#1538,#387);
#282=LINE('',#1541,#388);
#283=LINE('',#1543,#389);
#284=LINE('',#1544,#390);
#285=LINE('',#1546,#391);
#286=LINE('',#1548,#392);
#287=LINE('',#1553,#393);
#288=LINE('',#1555,#394);
#289=LINE('',#1557,#395);
#290=LINE('',#1558,#396);
#291=LINE('',#1562,#397);
#292=LINE('',#1563,#398);
#293=LINE('',#1564,#399);
#294=LINE('',#1567,#400);
#295=LINE('',#1568,#401);
#296=LINE('',#1571,#402);
#297=LINE('',#1572,#403);
#298=LINE('',#1574,#404);
#299=VECTOR('',#1053,10.);
#300=VECTOR('',#1054,10.);
#301=VECTOR('',#1057,10.);
#302=VECTOR('',#1058,10.);
#303=VECTOR('',#1059,10.);
#304=VECTOR('',#1060,10.);
#305=VECTOR('',#1063,10.);
#306=VECTOR('',#1064,10.);
#307=VECTOR('',#1065,10.);
#308=VECTOR('',#1066,10.);
#309=VECTOR('',#1067,10.);
#310=VECTOR('',#1070,10.);
#311=VECTOR('',#1073,10.);
#312=VECTOR('',#1074,10.);
#313=VECTOR('',#1075,10.);
#314=VECTOR('',#1078,10.);
#315=VECTOR('',#1081,10.);
#316=VECTOR('',#1084,10.);
#317=VECTOR('',#1085,10.);
#318=VECTOR('',#1086,10.);
#319=VECTOR('',#1087,10.);
#320=VECTOR('',#1088,10.);
#321=VECTOR('',#1107,10.);
#322=VECTOR('',#1108,10.);
#323=VECTOR('',#1109,10.);
#324=VECTOR('',#1110,10.);
#325=VECTOR('',#1111,10.);
#326=VECTOR('',#1112,10.);
#327=VECTOR('',#1113,10.);
#328=VECTOR('',#1114,10.);
#329=VECTOR('',#1115,10.);
#330=VECTOR('',#1116,10.);
#331=VECTOR('',#1117,10.);
#332=VECTOR('',#1118,10.);
#333=VECTOR('',#1119,10.);
#334=VECTOR('',#1122,10.);
#335=VECTOR('',#1125,10.);
#336=VECTOR('',#1126,10.);
#337=VECTOR('',#1129,0.549999987706542);
#338=VECTOR('',#1134,0.499999988824129);
#339=VECTOR('',#1139,0.499999988824129);
#340=VECTOR('',#1144,0.549999987706542);
#341=VECTOR('',#1149,0.499999988824129);
#342=VECTOR('',#1154,0.499999988824129);
#343=VECTOR('',#1159,1.41421358344652);
#344=VECTOR('',#1164,1.41421358344652);
#345=VECTOR('',#1169,10.);
#346=VECTOR('',#1172,10.);
#347=VECTOR('',#1177,10.);
#348=VECTOR('',#1180,10.);
#349=VECTOR('',#1183,10.);
#350=VECTOR('',#1186,10.);
#351=VECTOR('',#1189,10.);
#352=VECTOR('',#1190,10.);
#353=VECTOR('',#1191,10.);
#354=VECTOR('',#1194,10.);
#355=VECTOR('',#1195,10.);
#356=VECTOR('',#1198,10.);
#357=VECTOR('',#1199,10.);
#358=VECTOR('',#1202,10.);
#359=VECTOR('',#1203,10.);
#360=VECTOR('',#1204,10.);
#361=VECTOR('',#1205,10.);
#362=VECTOR('',#1208,10.);
#363=VECTOR('',#1209,10.);
#364=VECTOR('',#1210,10.);
#365=VECTOR('',#1215,10.);
#366=VECTOR('',#1218,10.);
#367=VECTOR('',#1221,10.);
#368=VECTOR('',#1222,10.);
#369=VECTOR('',#1223,10.);
#370=VECTOR('',#1226,10.);
#371=VECTOR('',#1229,10.);
#372=VECTOR('',#1234,10.);
#373=VECTOR('',#1235,10.);
#374=VECTOR('',#1242,10.);
#375=VECTOR('',#1245,10.);
#376=VECTOR('',#1248,10.);
#377=VECTOR('',#1249,10.);
#378=VECTOR('',#1250,10.);
#379=VECTOR('',#1253,10.);
#380=VECTOR('',#1254,10.);
#381=VECTOR('',#1263,10.);
#382=VECTOR('',#1264,10.);
#383=VECTOR('',#1265,10.);
#384=VECTOR('',#1266,10.);
#385=VECTOR('',#1269,10.);
#386=VECTOR('',#1270,10.);
#387=VECTOR('',#1271,10.);
#388=VECTOR('',#1274,10.);
#389=VECTOR('',#1275,10.);
#390=VECTOR('',#1276,10.);
#391=VECTOR('',#1279,10.);
#392=VECTOR('',#1282,10.);
#393=VECTOR('',#1287,10.);
#394=VECTOR('',#1288,10.);
#395=VECTOR('',#1289,10.);
#396=VECTOR('',#1290,10.);
#397=VECTOR('',#1293,10.);
#398=VECTOR('',#1294,10.);
#399=VECTOR('',#1295,10.);
#400=VECTOR('',#1298,10.);
#401=VECTOR('',#1299,10.);
#402=VECTOR('',#1302,10.);
#403=VECTOR('',#1303,10.);
#404=VECTOR('',#1306,10.);
#405=VERTEX_POINT('',#1311);
#406=VERTEX_POINT('',#1312);
#407=VERTEX_POINT('',#1314);
#408=VERTEX_POINT('',#1316);
#409=VERTEX_POINT('',#1318);
#410=VERTEX_POINT('',#1320);
#411=VERTEX_POINT('',#1322);
#412=VERTEX_POINT('',#1326);
#413=VERTEX_POINT('',#1327);
#414=VERTEX_POINT('',#1329);
#415=VERTEX_POINT('',#1331);
#416=VERTEX_POINT('',#1333);
#417=VERTEX_POINT('',#1335);
#418=VERTEX_POINT('',#1337);
#419=VERTEX_POINT('',#1341);
#420=VERTEX_POINT('',#1343);
#421=VERTEX_POINT('',#1347);
#422=VERTEX_POINT('',#1349);
#423=VERTEX_POINT('',#1353);
#424=VERTEX_POINT('',#1356);
#425=VERTEX_POINT('',#1358);
#426=VERTEX_POINT('',#1361);
#427=VERTEX_POINT('',#1363);
#428=VERTEX_POINT('',#1365);
#429=VERTEX_POINT('',#1367);
#430=VERTEX_POINT('',#1369);
#431=VERTEX_POINT('',#1371);
#432=VERTEX_POINT('',#1373);
#433=VERTEX_POINT('',#1375);
#434=VERTEX_POINT('',#1378);
#435=VERTEX_POINT('',#1380);
#436=VERTEX_POINT('',#1383);
#437=VERTEX_POINT('',#1385);
#438=VERTEX_POINT('',#1387);
#439=VERTEX_POINT('',#1389);
#440=VERTEX_POINT('',#1391);
#441=VERTEX_POINT('',#1393);
#442=VERTEX_POINT('',#1395);
#443=VERTEX_POINT('',#1397);
#444=VERTEX_POINT('',#1399);
#445=VERTEX_POINT('',#1405);
#446=VERTEX_POINT('',#1409);
#447=VERTEX_POINT('',#1413);
#448=VERTEX_POINT('',#1417);
#449=VERTEX_POINT('',#1421);
#450=VERTEX_POINT('',#1425);
#451=VERTEX_POINT('',#1429);
#452=VERTEX_POINT('',#1433);
#453=VERTEX_POINT('',#1437);
#454=VERTEX_POINT('',#1441);
#455=VERTEX_POINT('',#1442);
#456=VERTEX_POINT('',#1444);
#457=VERTEX_POINT('',#1446);
#458=VERTEX_POINT('',#1450);
#459=VERTEX_POINT('',#1452);
#460=VERTEX_POINT('',#1456);
#461=VERTEX_POINT('',#1458);
#462=VERTEX_POINT('',#1462);
#463=VERTEX_POINT('',#1467);
#464=VERTEX_POINT('',#1474);
#465=VERTEX_POINT('',#1475);
#466=VERTEX_POINT('',#1477);
#467=VERTEX_POINT('',#1479);
#468=VERTEX_POINT('',#1492);
#469=VERTEX_POINT('',#1494);
#470=VERTEX_POINT('',#1503);
#471=VERTEX_POINT('',#1513);
#472=VERTEX_POINT('',#1515);
#473=VERTEX_POINT('',#1525);
#474=VERTEX_POINT('',#1526);
#475=VERTEX_POINT('',#1528);
#476=VERTEX_POINT('',#1530);
#477=VERTEX_POINT('',#1534);
#478=VERTEX_POINT('',#1536);
#479=VERTEX_POINT('',#1540);
#480=VERTEX_POINT('',#1542);
#481=VERTEX_POINT('',#1551);
#482=VERTEX_POINT('',#1552);
#483=VERTEX_POINT('',#1554);
#484=VERTEX_POINT('',#1556);
#485=VERTEX_POINT('',#1560);
#486=VERTEX_POINT('',#1561);
#487=VERTEX_POINT('',#1566);
#488=VERTEX_POINT('',#1570);
#489=EDGE_CURVE('',#405,#406,#193,.T.);
#490=EDGE_CURVE('',#407,#405,#194,.T.);
#491=EDGE_CURVE('',#408,#407,#173,.T.);
#492=EDGE_CURVE('',#409,#408,#195,.T.);
#493=EDGE_CURVE('',#410,#409,#196,.T.);
#494=EDGE_CURVE('',#411,#410,#197,.T.);
#495=EDGE_CURVE('',#406,#411,#198,.T.);
#496=EDGE_CURVE('',#412,#413,#199,.T.);
#497=EDGE_CURVE('',#414,#412,#200,.T.);
#498=EDGE_CURVE('',#415,#414,#201,.T.);
#499=EDGE_CURVE('',#416,#415,#202,.T.);
#500=EDGE_CURVE('',#417,#416,#203,.T.);
#501=EDGE_CURVE('',#418,#417,#174,.T.);
#502=EDGE_CURVE('',#413,#418,#204,.T.);
#503=EDGE_CURVE('',#419,#410,#205,.T.);
#504=EDGE_CURVE('',#419,#420,#206,.T.);
#505=EDGE_CURVE('',#420,#411,#207,.T.);
#506=EDGE_CURVE('',#417,#421,#208,.T.);
#507=EDGE_CURVE('',#421,#422,#35,.T.);
#508=EDGE_CURVE('',#422,#418,#209,.T.);
#509=EDGE_CURVE('',#423,#422,#210,.T.);
#510=EDGE_CURVE('',#407,#423,#211,.T.);
#511=EDGE_CURVE('',#405,#424,#212,.T.);
#512=EDGE_CURVE('',#424,#425,#213,.T.);
#513=EDGE_CURVE('',#425,#413,#214,.T.);
#514=EDGE_CURVE('',#426,#426,#175,.T.);
#515=EDGE_CURVE('',#427,#427,#176,.T.);
#516=EDGE_CURVE('',#428,#428,#177,.T.);
#517=EDGE_CURVE('',#429,#429,#178,.T.);
#518=EDGE_CURVE('',#430,#430,#179,.T.);
#519=EDGE_CURVE('',#431,#431,#180,.T.);
#520=EDGE_CURVE('',#432,#432,#181,.T.);
#521=EDGE_CURVE('',#433,#433,#182,.T.);
#522=EDGE_CURVE('',#409,#434,#215,.T.);
#523=EDGE_CURVE('',#434,#435,#216,.T.);
#524=EDGE_CURVE('',#435,#416,#217,.T.);
#525=EDGE_CURVE('',#415,#436,#218,.T.);
#526=EDGE_CURVE('',#436,#437,#219,.T.);
#527=EDGE_CURVE('',#437,#438,#220,.T.);
#528=EDGE_CURVE('',#439,#438,#221,.T.);
#529=EDGE_CURVE('',#440,#439,#222,.T.);
#530=EDGE_CURVE('',#440,#441,#223,.T.);
#531=EDGE_CURVE('',#441,#442,#224,.T.);
#532=EDGE_CURVE('',#443,#442,#225,.T.);
#533=EDGE_CURVE('',#444,#443,#226,.T.);
#534=EDGE_CURVE('',#444,#419,#227,.T.);
#535=EDGE_CURVE('',#421,#435,#228,.T.);
#536=EDGE_CURVE('',#445,#408,#229,.T.);
#537=EDGE_CURVE('',#445,#434,#230,.T.);
#538=EDGE_CURVE('',#433,#446,#231,.T.);
#539=EDGE_CURVE('',#446,#446,#183,.T.);
#540=EDGE_CURVE('',#432,#447,#232,.T.);
#541=EDGE_CURVE('',#447,#447,#184,.T.);
#542=EDGE_CURVE('',#431,#448,#233,.T.);
#543=EDGE_CURVE('',#448,#448,#185,.T.);
#544=EDGE_CURVE('',#430,#449,#234,.T.);
#545=EDGE_CURVE('',#449,#449,#186,.T.);
#546=EDGE_CURVE('',#429,#450,#235,.T.);
#547=EDGE_CURVE('',#450,#450,#187,.T.);
#548=EDGE_CURVE('',#428,#451,#236,.T.);
#549=EDGE_CURVE('',#451,#451,#188,.T.);
#550=EDGE_CURVE('',#427,#452,#237,.T.);
#551=EDGE_CURVE('',#452,#452,#189,.T.);
#552=EDGE_CURVE('',#426,#453,#238,.T.);
#553=EDGE_CURVE('',#453,#453,#190,.T.);
#554=EDGE_CURVE('',#454,#455,#239,.T.);
#555=EDGE_CURVE('',#455,#456,#191,.T.);
#556=EDGE_CURVE('',#456,#457,#240,.T.);
#557=EDGE_CURVE('',#457,#454,#36,.T.);
#558=EDGE_CURVE('',#457,#458,#241,.T.);
#559=EDGE_CURVE('',#458,#459,#37,.T.);
#560=EDGE_CURVE('',#459,#454,#242,.T.);
#561=EDGE_CURVE('',#458,#460,#243,.T.);
#562=EDGE_CURVE('',#460,#461,#192,.T.);
#563=EDGE_CURVE('',#461,#459,#244,.T.);
#564=EDGE_CURVE('',#462,#454,#245,.T.);
#565=EDGE_CURVE('',#444,#462,#246,.T.);
#566=EDGE_CURVE('',#455,#443,#247,.T.);
#567=EDGE_CURVE('',#463,#459,#248,.T.);
#568=EDGE_CURVE('',#462,#463,#249,.T.);
#569=EDGE_CURVE('',#438,#461,#250,.T.);
#570=EDGE_CURVE('',#463,#437,#251,.T.);
#571=EDGE_CURVE('',#464,#465,#252,.T.);
#572=EDGE_CURVE('',#466,#465,#253,.T.);
#573=EDGE_CURVE('',#466,#467,#254,.T.);
#574=EDGE_CURVE('',#464,#467,#255,.T.);
#575=EDGE_CURVE('',#464,#455,#256,.T.);
#576=EDGE_CURVE('',#461,#467,#257,.T.);
#577=EDGE_CURVE('',#460,#456,#258,.T.);
#578=EDGE_CURVE('',#442,#464,#259,.T.);
#579=EDGE_CURVE('',#467,#439,#260,.T.);
#580=EDGE_CURVE('',#468,#465,#261,.T.);
#581=EDGE_CURVE('',#469,#468,#262,.T.);
#582=EDGE_CURVE('',#469,#466,#263,.T.);
#583=EDGE_CURVE('',#468,#441,#264,.T.);
#584=EDGE_CURVE('',#440,#469,#265,.T.);
#585=EDGE_CURVE('',#436,#470,#266,.T.);
#586=EDGE_CURVE('',#470,#420,#267,.T.);
#587=EDGE_CURVE('',#445,#423,#38,.T.);
#588=EDGE_CURVE('',#421,#445,#268,.T.);
#589=EDGE_CURVE('',#414,#470,#269,.T.);
#590=EDGE_CURVE('',#471,#412,#270,.T.);
#591=EDGE_CURVE('',#472,#471,#271,.T.);
#592=EDGE_CURVE('',#406,#472,#272,.T.);
#593=EDGE_CURVE('',#471,#425,#273,.T.);
#594=EDGE_CURVE('',#472,#424,#274,.T.);
#595=EDGE_CURVE('',#473,#474,#275,.T.);
#596=EDGE_CURVE('',#475,#473,#276,.T.);
#597=EDGE_CURVE('',#476,#475,#277,.T.);
#598=EDGE_CURVE('',#474,#476,#278,.T.);
#599=EDGE_CURVE('',#476,#477,#279,.T.);
#600=EDGE_CURVE('',#477,#478,#280,.T.);
#601=EDGE_CURVE('',#478,#474,#281,.T.);
#602=EDGE_CURVE('',#479,#473,#282,.T.);
#603=EDGE_CURVE('',#480,#479,#283,.T.);
#604=EDGE_CURVE('',#480,#475,#284,.T.);
#605=EDGE_CURVE('',#480,#477,#285,.T.);
#606=EDGE_CURVE('',#479,#478,#286,.T.);
#607=EDGE_CURVE('',#481,#482,#287,.T.);
#608=EDGE_CURVE('',#482,#483,#288,.T.);
#609=EDGE_CURVE('',#483,#484,#289,.T.);
#610=EDGE_CURVE('',#484,#481,#290,.T.);
#611=EDGE_CURVE('',#485,#486,#291,.T.);
#612=EDGE_CURVE('',#486,#484,#292,.T.);
#613=EDGE_CURVE('',#485,#483,#293,.T.);
#614=EDGE_CURVE('',#487,#481,#294,.T.);
#615=EDGE_CURVE('',#487,#486,#295,.T.);
#616=EDGE_CURVE('',#488,#487,#296,.T.);
#617=EDGE_CURVE('',#488,#485,#297,.T.);
#618=EDGE_CURVE('',#482,#488,#298,.T.);
#619=ORIENTED_EDGE('',*,*,#489,.F.);
#620=ORIENTED_EDGE('',*,*,#490,.F.);
#621=ORIENTED_EDGE('',*,*,#491,.F.);
#622=ORIENTED_EDGE('',*,*,#492,.F.);
#623=ORIENTED_EDGE('',*,*,#493,.F.);
#624=ORIENTED_EDGE('',*,*,#494,.F.);
#625=ORIENTED_EDGE('',*,*,#495,.F.);
#626=ORIENTED_EDGE('',*,*,#496,.F.);
#627=ORIENTED_EDGE('',*,*,#497,.F.);
#628=ORIENTED_EDGE('',*,*,#498,.F.);
#629=ORIENTED_EDGE('',*,*,#499,.F.);
#630=ORIENTED_EDGE('',*,*,#500,.F.);
#631=ORIENTED_EDGE('',*,*,#501,.F.);
#632=ORIENTED_EDGE('',*,*,#502,.F.);
#633=ORIENTED_EDGE('',*,*,#494,.T.);
#634=ORIENTED_EDGE('',*,*,#503,.F.);
#635=ORIENTED_EDGE('',*,*,#504,.T.);
#636=ORIENTED_EDGE('',*,*,#505,.T.);
#637=ORIENTED_EDGE('',*,*,#501,.T.);
#638=ORIENTED_EDGE('',*,*,#506,.T.);
#639=ORIENTED_EDGE('',*,*,#507,.T.);
#640=ORIENTED_EDGE('',*,*,#508,.T.);
#641=ORIENTED_EDGE('',*,*,#502,.T.);
#642=ORIENTED_EDGE('',*,*,#508,.F.);
#643=ORIENTED_EDGE('',*,*,#509,.F.);
#644=ORIENTED_EDGE('',*,*,#510,.F.);
#645=ORIENTED_EDGE('',*,*,#490,.T.);
#646=ORIENTED_EDGE('',*,*,#511,.T.);
#647=ORIENTED_EDGE('',*,*,#512,.T.);
#648=ORIENTED_EDGE('',*,*,#513,.T.);
#649=ORIENTED_EDGE('',*,*,#514,.T.);
#650=ORIENTED_EDGE('',*,*,#515,.T.);
#651=ORIENTED_EDGE('',*,*,#516,.T.);
#652=ORIENTED_EDGE('',*,*,#517,.T.);
#653=ORIENTED_EDGE('',*,*,#518,.T.);
#654=ORIENTED_EDGE('',*,*,#519,.T.);
#655=ORIENTED_EDGE('',*,*,#520,.T.);
#656=ORIENTED_EDGE('',*,*,#521,.T.);
#657=ORIENTED_EDGE('',*,*,#493,.T.);
#658=ORIENTED_EDGE('',*,*,#522,.T.);
#659=ORIENTED_EDGE('',*,*,#523,.T.);
#660=ORIENTED_EDGE('',*,*,#524,.T.);
#661=ORIENTED_EDGE('',*,*,#499,.T.);
#662=ORIENTED_EDGE('',*,*,#525,.T.);
#663=ORIENTED_EDGE('',*,*,#526,.T.);
#664=ORIENTED_EDGE('',*,*,#527,.T.);
#665=ORIENTED_EDGE('',*,*,#528,.F.);
#666=ORIENTED_EDGE('',*,*,#529,.F.);
#667=ORIENTED_EDGE('',*,*,#530,.T.);
#668=ORIENTED_EDGE('',*,*,#531,.T.);
#669=ORIENTED_EDGE('',*,*,#532,.F.);
#670=ORIENTED_EDGE('',*,*,#533,.F.);
#671=ORIENTED_EDGE('',*,*,#534,.T.);
#672=ORIENTED_EDGE('',*,*,#503,.T.);
#673=ORIENTED_EDGE('',*,*,#500,.T.);
#674=ORIENTED_EDGE('',*,*,#524,.F.);
#675=ORIENTED_EDGE('',*,*,#535,.F.);
#676=ORIENTED_EDGE('',*,*,#506,.F.);
#677=ORIENTED_EDGE('',*,*,#492,.T.);
#678=ORIENTED_EDGE('',*,*,#536,.F.);
#679=ORIENTED_EDGE('',*,*,#537,.T.);
#680=ORIENTED_EDGE('',*,*,#522,.F.);
#681=ORIENTED_EDGE('',*,*,#521,.F.);
#682=ORIENTED_EDGE('',*,*,#538,.T.);
#683=ORIENTED_EDGE('',*,*,#539,.F.);
#684=ORIENTED_EDGE('',*,*,#538,.F.);
#685=ORIENTED_EDGE('',*,*,#520,.F.);
#686=ORIENTED_EDGE('',*,*,#540,.T.);
#687=ORIENTED_EDGE('',*,*,#541,.F.);
#688=ORIENTED_EDGE('',*,*,#540,.F.);
#689=ORIENTED_EDGE('',*,*,#519,.F.);
#690=ORIENTED_EDGE('',*,*,#542,.T.);
#691=ORIENTED_EDGE('',*,*,#543,.F.);
#692=ORIENTED_EDGE('',*,*,#542,.F.);
#693=ORIENTED_EDGE('',*,*,#518,.F.);
#694=ORIENTED_EDGE('',*,*,#544,.T.);
#695=ORIENTED_EDGE('',*,*,#545,.F.);
#696=ORIENTED_EDGE('',*,*,#544,.F.);
#697=ORIENTED_EDGE('',*,*,#517,.F.);
#698=ORIENTED_EDGE('',*,*,#546,.T.);
#699=ORIENTED_EDGE('',*,*,#547,.F.);
#700=ORIENTED_EDGE('',*,*,#546,.F.);
#701=ORIENTED_EDGE('',*,*,#516,.F.);
#702=ORIENTED_EDGE('',*,*,#548,.T.);
#703=ORIENTED_EDGE('',*,*,#549,.F.);
#704=ORIENTED_EDGE('',*,*,#548,.F.);
#705=ORIENTED_EDGE('',*,*,#515,.F.);
#706=ORIENTED_EDGE('',*,*,#550,.T.);
#707=ORIENTED_EDGE('',*,*,#551,.F.);
#708=ORIENTED_EDGE('',*,*,#550,.F.);
#709=ORIENTED_EDGE('',*,*,#514,.F.);
#710=ORIENTED_EDGE('',*,*,#552,.T.);
#711=ORIENTED_EDGE('',*,*,#553,.F.);
#712=ORIENTED_EDGE('',*,*,#552,.F.);
#713=ORIENTED_EDGE('',*,*,#554,.T.);
#714=ORIENTED_EDGE('',*,*,#555,.T.);
#715=ORIENTED_EDGE('',*,*,#556,.T.);
#716=ORIENTED_EDGE('',*,*,#557,.T.);
#717=ORIENTED_EDGE('',*,*,#558,.T.);
#718=ORIENTED_EDGE('',*,*,#559,.T.);
#719=ORIENTED_EDGE('',*,*,#560,.T.);
#720=ORIENTED_EDGE('',*,*,#557,.F.);
#721=ORIENTED_EDGE('',*,*,#561,.T.);
#722=ORIENTED_EDGE('',*,*,#562,.T.);
#723=ORIENTED_EDGE('',*,*,#563,.T.);
#724=ORIENTED_EDGE('',*,*,#559,.F.);
#725=ORIENTED_EDGE('',*,*,#554,.F.);
#726=ORIENTED_EDGE('',*,*,#564,.F.);
#727=ORIENTED_EDGE('',*,*,#565,.F.);
#728=ORIENTED_EDGE('',*,*,#533,.T.);
#729=ORIENTED_EDGE('',*,*,#566,.F.);
#730=ORIENTED_EDGE('',*,*,#560,.F.);
#731=ORIENTED_EDGE('',*,*,#567,.F.);
#732=ORIENTED_EDGE('',*,*,#568,.F.);
#733=ORIENTED_EDGE('',*,*,#564,.T.);
#734=ORIENTED_EDGE('',*,*,#563,.F.);
#735=ORIENTED_EDGE('',*,*,#569,.F.);
#736=ORIENTED_EDGE('',*,*,#527,.F.);
#737=ORIENTED_EDGE('',*,*,#570,.F.);
#738=ORIENTED_EDGE('',*,*,#567,.T.);
#739=ORIENTED_EDGE('',*,*,#571,.T.);
#740=ORIENTED_EDGE('',*,*,#572,.F.);
#741=ORIENTED_EDGE('',*,*,#573,.T.);
#742=ORIENTED_EDGE('',*,*,#574,.F.);
#743=ORIENTED_EDGE('',*,*,#555,.F.);
#744=ORIENTED_EDGE('',*,*,#575,.F.);
#745=ORIENTED_EDGE('',*,*,#574,.T.);
#746=ORIENTED_EDGE('',*,*,#576,.F.);
#747=ORIENTED_EDGE('',*,*,#562,.F.);
#748=ORIENTED_EDGE('',*,*,#577,.T.);
#749=ORIENTED_EDGE('',*,*,#556,.F.);
#750=ORIENTED_EDGE('',*,*,#577,.F.);
#751=ORIENTED_EDGE('',*,*,#561,.F.);
#752=ORIENTED_EDGE('',*,*,#558,.F.);
#753=ORIENTED_EDGE('',*,*,#575,.T.);
#754=ORIENTED_EDGE('',*,*,#566,.T.);
#755=ORIENTED_EDGE('',*,*,#532,.T.);
#756=ORIENTED_EDGE('',*,*,#578,.T.);
#757=ORIENTED_EDGE('',*,*,#576,.T.);
#758=ORIENTED_EDGE('',*,*,#579,.T.);
#759=ORIENTED_EDGE('',*,*,#528,.T.);
#760=ORIENTED_EDGE('',*,*,#569,.T.);
#761=ORIENTED_EDGE('',*,*,#572,.T.);
#762=ORIENTED_EDGE('',*,*,#580,.F.);
#763=ORIENTED_EDGE('',*,*,#581,.F.);
#764=ORIENTED_EDGE('',*,*,#582,.T.);
#765=ORIENTED_EDGE('',*,*,#583,.F.);
#766=ORIENTED_EDGE('',*,*,#580,.T.);
#767=ORIENTED_EDGE('',*,*,#571,.F.);
#768=ORIENTED_EDGE('',*,*,#578,.F.);
#769=ORIENTED_EDGE('',*,*,#531,.F.);
#770=ORIENTED_EDGE('',*,*,#584,.F.);
#771=ORIENTED_EDGE('',*,*,#529,.T.);
#772=ORIENTED_EDGE('',*,*,#579,.F.);
#773=ORIENTED_EDGE('',*,*,#573,.F.);
#774=ORIENTED_EDGE('',*,*,#582,.F.);
#775=ORIENTED_EDGE('',*,*,#583,.T.);
#776=ORIENTED_EDGE('',*,*,#530,.F.);
#777=ORIENTED_EDGE('',*,*,#584,.T.);
#778=ORIENTED_EDGE('',*,*,#581,.T.);
#779=ORIENTED_EDGE('',*,*,#565,.T.);
#780=ORIENTED_EDGE('',*,*,#568,.T.);
#781=ORIENTED_EDGE('',*,*,#570,.T.);
#782=ORIENTED_EDGE('',*,*,#526,.F.);
#783=ORIENTED_EDGE('',*,*,#585,.T.);
#784=ORIENTED_EDGE('',*,*,#586,.T.);
#785=ORIENTED_EDGE('',*,*,#504,.F.);
#786=ORIENTED_EDGE('',*,*,#534,.F.);
#787=ORIENTED_EDGE('',*,*,#491,.T.);
#788=ORIENTED_EDGE('',*,*,#510,.T.);
#789=ORIENTED_EDGE('',*,*,#587,.F.);
#790=ORIENTED_EDGE('',*,*,#536,.T.);
#791=ORIENTED_EDGE('',*,*,#509,.T.);
#792=ORIENTED_EDGE('',*,*,#507,.F.);
#793=ORIENTED_EDGE('',*,*,#588,.T.);
#794=ORIENTED_EDGE('',*,*,#587,.T.);
#795=ORIENTED_EDGE('',*,*,#498,.T.);
#796=ORIENTED_EDGE('',*,*,#589,.T.);
#797=ORIENTED_EDGE('',*,*,#585,.F.);
#798=ORIENTED_EDGE('',*,*,#525,.F.);
#799=ORIENTED_EDGE('',*,*,#497,.T.);
#800=ORIENTED_EDGE('',*,*,#590,.F.);
#801=ORIENTED_EDGE('',*,*,#591,.F.);
#802=ORIENTED_EDGE('',*,*,#592,.F.);
#803=ORIENTED_EDGE('',*,*,#495,.T.);
#804=ORIENTED_EDGE('',*,*,#505,.F.);
#805=ORIENTED_EDGE('',*,*,#586,.F.);
#806=ORIENTED_EDGE('',*,*,#589,.F.);
#807=ORIENTED_EDGE('',*,*,#553,.T.);
#808=ORIENTED_EDGE('',*,*,#551,.T.);
#809=ORIENTED_EDGE('',*,*,#549,.T.);
#810=ORIENTED_EDGE('',*,*,#547,.T.);
#811=ORIENTED_EDGE('',*,*,#545,.T.);
#812=ORIENTED_EDGE('',*,*,#543,.T.);
#813=ORIENTED_EDGE('',*,*,#541,.T.);
#814=ORIENTED_EDGE('',*,*,#539,.T.);
#815=ORIENTED_EDGE('',*,*,#591,.T.);
#816=ORIENTED_EDGE('',*,*,#593,.T.);
#817=ORIENTED_EDGE('',*,*,#512,.F.);
#818=ORIENTED_EDGE('',*,*,#594,.F.);
#819=ORIENTED_EDGE('',*,*,#496,.T.);
#820=ORIENTED_EDGE('',*,*,#513,.F.);
#821=ORIENTED_EDGE('',*,*,#593,.F.);
#822=ORIENTED_EDGE('',*,*,#590,.T.);
#823=ORIENTED_EDGE('',*,*,#489,.T.);
#824=ORIENTED_EDGE('',*,*,#592,.T.);
#825=ORIENTED_EDGE('',*,*,#594,.T.);
#826=ORIENTED_EDGE('',*,*,#511,.F.);
#827=ORIENTED_EDGE('',*,*,#588,.F.);
#828=ORIENTED_EDGE('',*,*,#535,.T.);
#829=ORIENTED_EDGE('',*,*,#523,.F.);
#830=ORIENTED_EDGE('',*,*,#537,.F.);
#831=ORIENTED_EDGE('',*,*,#595,.F.);
#832=ORIENTED_EDGE('',*,*,#596,.F.);
#833=ORIENTED_EDGE('',*,*,#597,.F.);
#834=ORIENTED_EDGE('',*,*,#598,.F.);
#835=ORIENTED_EDGE('',*,*,#598,.T.);
#836=ORIENTED_EDGE('',*,*,#599,.T.);
#837=ORIENTED_EDGE('',*,*,#600,.T.);
#838=ORIENTED_EDGE('',*,*,#601,.T.);
#839=ORIENTED_EDGE('',*,*,#596,.T.);
#840=ORIENTED_EDGE('',*,*,#602,.F.);
#841=ORIENTED_EDGE('',*,*,#603,.F.);
#842=ORIENTED_EDGE('',*,*,#604,.T.);
#843=ORIENTED_EDGE('',*,*,#597,.T.);
#844=ORIENTED_EDGE('',*,*,#604,.F.);
#845=ORIENTED_EDGE('',*,*,#605,.T.);
#846=ORIENTED_EDGE('',*,*,#599,.F.);
#847=ORIENTED_EDGE('',*,*,#595,.T.);
#848=ORIENTED_EDGE('',*,*,#601,.F.);
#849=ORIENTED_EDGE('',*,*,#606,.F.);
#850=ORIENTED_EDGE('',*,*,#602,.T.);
#851=ORIENTED_EDGE('',*,*,#603,.T.);
#852=ORIENTED_EDGE('',*,*,#606,.T.);
#853=ORIENTED_EDGE('',*,*,#600,.F.);
#854=ORIENTED_EDGE('',*,*,#605,.F.);
#855=ORIENTED_EDGE('',*,*,#607,.T.);
#856=ORIENTED_EDGE('',*,*,#608,.T.);
#857=ORIENTED_EDGE('',*,*,#609,.T.);
#858=ORIENTED_EDGE('',*,*,#610,.T.);
#859=ORIENTED_EDGE('',*,*,#611,.T.);
#860=ORIENTED_EDGE('',*,*,#612,.T.);
#861=ORIENTED_EDGE('',*,*,#609,.F.);
#862=ORIENTED_EDGE('',*,*,#613,.F.);
#863=ORIENTED_EDGE('',*,*,#614,.T.);
#864=ORIENTED_EDGE('',*,*,#610,.F.);
#865=ORIENTED_EDGE('',*,*,#612,.F.);
#866=ORIENTED_EDGE('',*,*,#615,.F.);
#867=ORIENTED_EDGE('',*,*,#616,.T.);
#868=ORIENTED_EDGE('',*,*,#615,.T.);
#869=ORIENTED_EDGE('',*,*,#611,.F.);
#870=ORIENTED_EDGE('',*,*,#617,.F.);
#871=ORIENTED_EDGE('',*,*,#618,.T.);
#872=ORIENTED_EDGE('',*,*,#617,.T.);
#873=ORIENTED_EDGE('',*,*,#613,.T.);
#874=ORIENTED_EDGE('',*,*,#608,.F.);
#875=ORIENTED_EDGE('',*,*,#618,.F.);
#876=ORIENTED_EDGE('',*,*,#607,.F.);
#877=ORIENTED_EDGE('',*,*,#614,.F.);
#878=ORIENTED_EDGE('',*,*,#616,.F.);
#879=PLANE('',#973);
#880=PLANE('',#975);
#881=PLANE('',#977);
#882=PLANE('',#980);
#883=PLANE('',#989);
#884=PLANE('',#990);
#885=PLANE('',#991);
#886=PLANE('',#1015);
#887=PLANE('',#1016);
#888=PLANE('',#1017);
#889=PLANE('',#1018);
#890=PLANE('',#1019);
#891=PLANE('',#1020);
#892=PLANE('',#1021);
#893=PLANE('',#1022);
#894=PLANE('',#1023);
#895=PLANE('',#1024);
#896=PLANE('',#1025);
#897=PLANE('',#1026);
#898=PLANE('',#1027);
#899=PLANE('',#1031);
#900=PLANE('',#1032);
#901=PLANE('',#1033);
#902=PLANE('',#1034);
#903=PLANE('',#1035);
#904=PLANE('',#1036);
#905=PLANE('',#1037);
#906=PLANE('',#1038);
#907=PLANE('',#1039);
#908=PLANE('',#1040);
#909=PLANE('',#1041);
#910=PLANE('',#1042);
#911=PLANE('',#1043);
#912=PLANE('',#1044);
#913=PLANE('',#1045);
#914=PLANE('',#1046);
#915=PLANE('',#1047);
#916=PLANE('',#1048);
#917=ADVANCED_FACE('',(#53),#879,.F.);
#918=ADVANCED_FACE('',(#54),#880,.F.);
#919=ADVANCED_FACE('',(#55),#881,.F.);
#920=ADVANCED_FACE('',(#56),#39,.T.);
#921=ADVANCED_FACE('',(#57,#19,#20,#21,#22,#23,#24,#25,#26),#882,.T.);
#922=ADVANCED_FACE('',(#58),#883,.T.);
#923=ADVANCED_FACE('',(#59),#884,.T.);
#924=ADVANCED_FACE('',(#60),#885,.T.);
#925=ADVANCED_FACE('',(#61),#40,.F.);
#926=ADVANCED_FACE('',(#62),#41,.F.);
#927=ADVANCED_FACE('',(#63),#42,.F.);
#928=ADVANCED_FACE('',(#64),#43,.F.);
#929=ADVANCED_FACE('',(#65),#44,.F.);
#930=ADVANCED_FACE('',(#66),#45,.F.);
#931=ADVANCED_FACE('',(#67),#46,.F.);
#932=ADVANCED_FACE('',(#68),#47,.F.);
#933=ADVANCED_FACE('',(#69),#48,.T.);
#934=ADVANCED_FACE('',(#70),#49,.T.);
#935=ADVANCED_FACE('',(#71),#50,.T.);
#936=ADVANCED_FACE('',(#72),#886,.T.);
#937=ADVANCED_FACE('',(#73),#887,.T.);
#938=ADVANCED_FACE('',(#74),#888,.T.);
#939=ADVANCED_FACE('',(#75),#889,.T.);
#940=ADVANCED_FACE('',(#76),#890,.T.);
#941=ADVANCED_FACE('',(#77),#891,.T.);
#942=ADVANCED_FACE('',(#78),#892,.T.);
#943=ADVANCED_FACE('',(#79),#893,.T.);
#944=ADVANCED_FACE('',(#80),#894,.T.);
#945=ADVANCED_FACE('',(#81),#895,.T.);
#946=ADVANCED_FACE('',(#82),#896,.T.);
#947=ADVANCED_FACE('',(#83),#897,.F.);
#948=ADVANCED_FACE('',(#84),#898,.F.);
#949=ADVANCED_FACE('',(#85),#51,.T.);
#950=ADVANCED_FACE('',(#86),#52,.T.);
#951=ADVANCED_FACE('',(#87),#899,.F.);
#952=ADVANCED_FACE('',(#88,#27,#28,#29,#30,#31,#32,#33,#34),#900,.F.);
#953=ADVANCED_FACE('',(#89),#901,.F.);
#954=ADVANCED_FACE('',(#90),#902,.F.);
#955=ADVANCED_FACE('',(#91),#903,.F.);
#956=ADVANCED_FACE('',(#92),#904,.T.);
#957=ADVANCED_FACE('',(#93),#905,.F.);
#958=ADVANCED_FACE('',(#94),#906,.T.);
#959=ADVANCED_FACE('',(#95),#907,.T.);
#960=ADVANCED_FACE('',(#96),#908,.T.);
#961=ADVANCED_FACE('',(#97),#909,.T.);
#962=ADVANCED_FACE('',(#98),#910,.T.);
#963=ADVANCED_FACE('',(#99),#911,.T.);
#964=ADVANCED_FACE('',(#100),#912,.T.);
#965=ADVANCED_FACE('',(#101),#913,.T.);
#966=ADVANCED_FACE('',(#102),#914,.T.);
#967=ADVANCED_FACE('',(#103),#915,.T.);
#968=ADVANCED_FACE('',(#104),#916,.F.);
#969=CLOSED_SHELL('',(#917,#918,#919,#920,#921,#922,#923,#924,#925,#926,
#927,#928,#929,#930,#931,#932,#933,#934,#935,#936,#937,#938,#939,#940,#941,
#942,#943,#944,#945,#946,#947,#948,#949,#950,#951,#952,#953,#954,#955,#956));
#970=CLOSED_SHELL('',(#957,#958,#959,#960,#961,#962));
#971=CLOSED_SHELL('',(#963,#964,#965,#966,#967,#968));
#972=AXIS2_PLACEMENT_3D('',#1309,#1049,#1050);
#973=AXIS2_PLACEMENT_3D('',#1310,#1051,#1052);
#974=AXIS2_PLACEMENT_3D('',#1317,#1055,#1056);
#975=AXIS2_PLACEMENT_3D('',#1325,#1061,#1062);
#976=AXIS2_PLACEMENT_3D('',#1338,#1068,#1069);
#977=AXIS2_PLACEMENT_3D('',#1340,#1071,#1072);
#978=AXIS2_PLACEMENT_3D('',#1346,#1076,#1077);
#979=AXIS2_PLACEMENT_3D('',#1350,#1079,#1080);
#980=AXIS2_PLACEMENT_3D('',#1352,#1082,#1083);
#981=AXIS2_PLACEMENT_3D('',#1362,#1089,#1090);
#982=AXIS2_PLACEMENT_3D('',#1364,#1091,#1092);
#983=AXIS2_PLACEMENT_3D('',#1366,#1093,#1094);
#984=AXIS2_PLACEMENT_3D('',#1368,#1095,#1096);
#985=AXIS2_PLACEMENT_3D('',#1370,#1097,#1098);
#986=AXIS2_PLACEMENT_3D('',#1372,#1099,#1100);
#987=AXIS2_PLACEMENT_3D('',#1374,#1101,#1102);
#988=AXIS2_PLACEMENT_3D('',#1376,#1103,#1104);
#989=AXIS2_PLACEMENT_3D('',#1377,#1105,#1106);
#990=AXIS2_PLACEMENT_3D('',#1402,#1120,#1121);
#991=AXIS2_PLACEMENT_3D('',#1404,#1123,#1124);
#992=AXIS2_PLACEMENT_3D('',#1408,#1127,#1128);
#993=AXIS2_PLACEMENT_3D('',#1411,#1130,#1131);
#994=AXIS2_PLACEMENT_3D('',#1412,#1132,#1133);
#995=AXIS2_PLACEMENT_3D('',#1415,#1135,#1136);
#996=AXIS2_PLACEMENT_3D('',#1416,#1137,#1138);
#997=AXIS2_PLACEMENT_3D('',#1419,#1140,#1141);
#998=AXIS2_PLACEMENT_3D('',#1420,#1142,#1143);
#999=AXIS2_PLACEMENT_3D('',#1423,#1145,#1146);
#1000=AXIS2_PLACEMENT_3D('',#1424,#1147,#1148);
#1001=AXIS2_PLACEMENT_3D('',#1427,#1150,#1151);
#1002=AXIS2_PLACEMENT_3D('',#1428,#1152,#1153);
#1003=AXIS2_PLACEMENT_3D('',#1431,#1155,#1156);
#1004=AXIS2_PLACEMENT_3D('',#1432,#1157,#1158);
#1005=AXIS2_PLACEMENT_3D('',#1435,#1160,#1161);
#1006=AXIS2_PLACEMENT_3D('',#1436,#1162,#1163);
#1007=AXIS2_PLACEMENT_3D('',#1439,#1165,#1166);
#1008=AXIS2_PLACEMENT_3D('',#1440,#1167,#1168);
#1009=AXIS2_PLACEMENT_3D('',#1445,#1170,#1171);
#1010=AXIS2_PLACEMENT_3D('',#1448,#1173,#1174);
#1011=AXIS2_PLACEMENT_3D('',#1449,#1175,#1176);
#1012=AXIS2_PLACEMENT_3D('',#1453,#1178,#1179);
#1013=AXIS2_PLACEMENT_3D('',#1455,#1181,#1182);
#1014=AXIS2_PLACEMENT_3D('',#1459,#1184,#1185);
#1015=AXIS2_PLACEMENT_3D('',#1461,#1187,#1188);
#1016=AXIS2_PLACEMENT_3D('',#1466,#1192,#1193);
#1017=AXIS2_PLACEMENT_3D('',#1470,#1196,#1197);
#1018=AXIS2_PLACEMENT_3D('',#1473,#1200,#1201);
#1019=AXIS2_PLACEMENT_3D('',#1482,#1206,#1207);
#1020=AXIS2_PLACEMENT_3D('',#1486,#1211,#1212);
#1021=AXIS2_PLACEMENT_3D('',#1487,#1213,#1214);
#1022=AXIS2_PLACEMENT_3D('',#1489,#1216,#1217);
#1023=AXIS2_PLACEMENT_3D('',#1491,#1219,#1220);
#1024=AXIS2_PLACEMENT_3D('',#1497,#1224,#1225);
#1025=AXIS2_PLACEMENT_3D('',#1499,#1227,#1228);
#1026=AXIS2_PLACEMENT_3D('',#1501,#1230,#1231);
#1027=AXIS2_PLACEMENT_3D('',#1502,#1232,#1233);
#1028=AXIS2_PLACEMENT_3D('',#1506,#1236,#1237);
#1029=AXIS2_PLACEMENT_3D('',#1507,#1238,#1239);
#1030=AXIS2_PLACEMENT_3D('',#1508,#1240,#1241);
#1031=AXIS2_PLACEMENT_3D('',#1510,#1243,#1244);
#1032=AXIS2_PLACEMENT_3D('',#1512,#1246,#1247);
#1033=AXIS2_PLACEMENT_3D('',#1518,#1251,#1252);
#1034=AXIS2_PLACEMENT_3D('',#1521,#1255,#1256);
#1035=AXIS2_PLACEMENT_3D('',#1522,#1257,#1258);
#1036=AXIS2_PLACEMENT_3D('',#1523,#1259,#1260);
#1037=AXIS2_PLACEMENT_3D('',#1524,#1261,#1262);
#1038=AXIS2_PLACEMENT_3D('',#1533,#1267,#1268);
#1039=AXIS2_PLACEMENT_3D('',#1539,#1272,#1273);
#1040=AXIS2_PLACEMENT_3D('',#1545,#1277,#1278);
#1041=AXIS2_PLACEMENT_3D('',#1547,#1280,#1281);
#1042=AXIS2_PLACEMENT_3D('',#1549,#1283,#1284);
#1043=AXIS2_PLACEMENT_3D('',#1550,#1285,#1286);
#1044=AXIS2_PLACEMENT_3D('',#1559,#1291,#1292);
#1045=AXIS2_PLACEMENT_3D('',#1565,#1296,#1297);
#1046=AXIS2_PLACEMENT_3D('',#1569,#1300,#1301);
#1047=AXIS2_PLACEMENT_3D('',#1573,#1304,#1305);
#1048=AXIS2_PLACEMENT_3D('',#1575,#1307,#1308);
#1049=DIRECTION('axis',(0.,0.,1.));
#1050=DIRECTION('refdir',(1.,0.,0.));
#1051=DIRECTION('center_axis',(0.,0.,-1.));
#1052=DIRECTION('ref_axis',(0.,1.,0.));
#1053=DIRECTION('',(0.,-1.,0.));
#1054=DIRECTION('',(1.,0.,0.));
#1055=DIRECTION('center_axis',(0.,0.,-1.));
#1056=DIRECTION('ref_axis',(-0.707106781186547,0.707106781186547,0.));
#1057=DIRECTION('',(0.,1.,0.));
#1058=DIRECTION('',(-1.,0.,0.));
#1059=DIRECTION('',(0.,-1.,0.));
#1060=DIRECTION('',(-1.,0.,0.));
#1061=DIRECTION('center_axis',(0.,0.,-1.));
#1062=DIRECTION('ref_axis',(0.,1.,0.));
#1063=DIRECTION('',(0.,1.,0.));
#1064=DIRECTION('',(-1.,0.,0.));
#1065=DIRECTION('',(0.,1.,0.));
#1066=DIRECTION('',(-1.,0.,0.));
#1067=DIRECTION('',(0.,-1.,0.));
#1068=DIRECTION('center_axis',(0.,0.,-1.));
#1069=DIRECTION('ref_axis',(0.707106781186547,0.707106781186547,0.));
#1070=DIRECTION('',(1.,0.,0.));
#1071=DIRECTION('center_axis',(-1.,0.,-4.44089209850063E-16));
#1072=DIRECTION('ref_axis',(-4.44089209850063E-16,0.,1.));
#1073=DIRECTION('',(-4.44089209850063E-16,0.,1.));
#1074=DIRECTION('',(0.,1.,0.));
#1075=DIRECTION('',(-4.44089209850063E-16,0.,1.));
#1076=DIRECTION('center_axis',(0.,0.,-1.));
#1077=DIRECTION('ref_axis',(0.707106781186547,0.707106781186547,0.));
#1078=DIRECTION('',(0.,0.,-1.));
#1079=DIRECTION('center_axis',(0.707106781186548,-3.14018491736755E-16,
0.707106781186547));
#1080=DIRECTION('ref_axis',(-0.707106781186547,3.14018491736755E-16,0.707106781186548));
#1081=DIRECTION('',(0.,0.,1.));
#1082=DIRECTION('center_axis',(0.,1.,0.));
#1083=DIRECTION('ref_axis',(1.,0.,0.));
#1084=DIRECTION('',(1.,0.,6.34413156928661E-17));
#1085=DIRECTION('',(-8.88178419700125E-17,0.,-1.));
#1086=DIRECTION('',(2.3373116307898E-16,0.,-1.));
#1087=DIRECTION('',(1.,0.,-5.1044736764375E-17));
#1088=DIRECTION('',(1.1686558153949E-16,0.,1.));
#1089=DIRECTION('center_axis',(0.,-1.,0.));
#1090=DIRECTION('ref_axis',(-1.,0.,0.));
#1091=DIRECTION('center_axis',(0.,-1.,0.));
#1092=DIRECTION('ref_axis',(-1.,0.,0.));
#1093=DIRECTION('center_axis',(0.,-1.,0.));
#1094=DIRECTION('ref_axis',(-1.,0.,0.));
#1095=DIRECTION('center_axis',(0.,-1.,0.));
#1096=DIRECTION('ref_axis',(-1.,0.,0.));
#1097=DIRECTION('center_axis',(0.,-1.,0.));
#1098=DIRECTION('ref_axis',(-1.,0.,0.));
#1099=DIRECTION('center_axis',(0.,-1.,0.));
#1100=DIRECTION('ref_axis',(-1.,0.,0.));
#1101=DIRECTION('center_axis',(0.,-1.,0.));
#1102=DIRECTION('ref_axis',(-1.,0.,0.));
#1103=DIRECTION('center_axis',(0.,-1.,0.));
#1104=DIRECTION('ref_axis',(-1.,0.,0.));
#1105=DIRECTION('center_axis',(0.,-1.,0.));
#1106=DIRECTION('ref_axis',(0.,0.,-1.));
#1107=DIRECTION('',(-8.88178419700125E-17,0.,-1.));
#1108=DIRECTION('',(1.,0.,6.34413156928661E-17));
#1109=DIRECTION('',(0.,0.,1.));
#1110=DIRECTION('',(0.,0.,-1.));
#1111=DIRECTION('',(-1.,0.,3.70074341541719E-17));
#1112=DIRECTION('',(0.,0.,1.));
#1113=DIRECTION('',(1.,0.,0.));
#1114=DIRECTION('',(0.,0.,1.));
#1115=DIRECTION('',(-1.,0.,3.70074341541719E-17));
#1116=DIRECTION('',(0.,0.,1.));
#1117=DIRECTION('',(1.,0.,0.));
#1118=DIRECTION('',(0.,0.,1.));
#1119=DIRECTION('',(-1.,0.,3.70074341541719E-17));
#1120=DIRECTION('center_axis',(1.,0.,0.));
#1121=DIRECTION('ref_axis',(0.,0.,1.));
#1122=DIRECTION('',(0.,-1.,0.));
#1123=DIRECTION('center_axis',(-1.,0.,8.88178419700125E-17));
#1124=DIRECTION('ref_axis',(-8.88178419700125E-17,0.,-1.));
#1125=DIRECTION('',(8.88178419700125E-17,0.,1.));
#1126=DIRECTION('',(0.,-1.,0.));
#1127=DIRECTION('center_axis',(0.,-1.,0.));
#1128=DIRECTION('ref_axis',(-1.,0.,0.));
#1129=DIRECTION('',(0.,-1.,0.));
#1130=DIRECTION('center_axis',(0.,1.,0.));
#1131=DIRECTION('ref_axis',(-1.,0.,0.));
#1132=DIRECTION('center_axis',(0.,-1.,0.));
#1133=DIRECTION('ref_axis',(-1.,0.,0.));
#1134=DIRECTION('',(0.,-1.,0.));
#1135=DIRECTION('center_axis',(0.,1.,0.));
#1136=DIRECTION('ref_axis',(-1.,0.,0.));
#1137=DIRECTION('center_axis',(0.,-1.,0.));
#1138=DIRECTION('ref_axis',(-1.,0.,0.));
#1139=DIRECTION('',(0.,-1.,0.));
#1140=DIRECTION('center_axis',(0.,1.,0.));
#1141=DIRECTION('ref_axis',(-1.,0.,0.));
#1142=DIRECTION('center_axis',(0.,-1.,0.));
#1143=DIRECTION('ref_axis',(-1.,0.,0.));
#1144=DIRECTION('',(0.,-1.,0.));
#1145=DIRECTION('center_axis',(0.,1.,0.));
#1146=DIRECTION('ref_axis',(-1.,0.,0.));
#1147=DIRECTION('center_axis',(0.,-1.,0.));
#1148=DIRECTION('ref_axis',(-1.,0.,0.));
#1149=DIRECTION('',(0.,-1.,0.));
#1150=DIRECTION('center_axis',(0.,1.,0.));
#1151=DIRECTION('ref_axis',(-1.,0.,0.));
#1152=DIRECTION('center_axis',(0.,-1.,0.));
#1153=DIRECTION('ref_axis',(-1.,0.,0.));
#1154=DIRECTION('',(0.,-1.,0.));
#1155=DIRECTION('center_axis',(0.,1.,0.));
#1156=DIRECTION('ref_axis',(-1.,0.,0.));
#1157=DIRECTION('center_axis',(0.,-1.,0.));
#1158=DIRECTION('ref_axis',(-1.,0.,0.));
#1159=DIRECTION('',(0.,-1.,0.));
#1160=DIRECTION('center_axis',(0.,1.,0.));
#1161=DIRECTION('ref_axis',(-1.,0.,0.));
#1162=DIRECTION('center_axis',(0.,-1.,0.));
#1163=DIRECTION('ref_axis',(-1.,0.,0.));
#1164=DIRECTION('',(0.,-1.,0.));
#1165=DIRECTION('center_axis',(0.,1.,0.));
#1166=DIRECTION('ref_axis',(-1.,0.,0.));
#1167=DIRECTION('center_axis',(0.,-1.,0.));
#1168=DIRECTION('ref_axis',(-0.707106781186548,0.,0.707106781186548));
#1169=DIRECTION('',(0.,-1.,0.));
#1170=DIRECTION('center_axis',(0.,1.,0.));
#1171=DIRECTION('ref_axis',(-0.707106781186548,0.,0.707106781186548));
#1172=DIRECTION('',(0.,1.,0.));
#1173=DIRECTION('center_axis',(-0.707106781186548,-0.707106781186548,0.));
#1174=DIRECTION('ref_axis',(-0.707106781186548,0.707106781186548,0.));
#1175=DIRECTION('center_axis',(-1.,0.,0.));
#1176=DIRECTION('ref_axis',(0.,0.707106781186548,0.707106781186548));
#1177=DIRECTION('',(1.,0.,0.));
#1178=DIRECTION('center_axis',(-0.707106781186548,0.707106781186548,0.));
#1179=DIRECTION('ref_axis',(0.707106781186548,0.707106781186548,0.));
#1180=DIRECTION('',(-1.,0.,0.));
#1181=DIRECTION('center_axis',(0.,-1.,0.));
#1182=DIRECTION('ref_axis',(0.707106781186548,0.,0.707106781186548));
#1183=DIRECTION('',(0.,-1.,0.));
#1184=DIRECTION('center_axis',(0.,1.,0.));
#1185=DIRECTION('ref_axis',(0.707106781186548,0.,0.707106781186548));
#1186=DIRECTION('',(0.,1.,0.));
#1187=DIRECTION('center_axis',(-1.,0.,0.));
#1188=DIRECTION('ref_axis',(0.,-1.,0.));
#1189=DIRECTION('',(0.,0.,1.));
#1190=DIRECTION('',(0.,1.,0.));
#1191=DIRECTION('',(0.,-1.,0.));
#1192=DIRECTION('center_axis',(0.,1.,0.));
#1193=DIRECTION('ref_axis',(-1.,0.,0.));
#1194=DIRECTION('',(0.,0.,1.));
#1195=DIRECTION('',(1.,0.,-3.70074341541719E-17));
#1196=DIRECTION('center_axis',(1.,0.,0.));
#1197=DIRECTION('ref_axis',(0.,1.,0.));
#1198=DIRECTION('',(0.,1.,0.));
#1199=DIRECTION('',(0.,-1.,0.));
#1200=DIRECTION('center_axis',(0.,0.,-1.));
#1201=DIRECTION('ref_axis',(1.,0.,0.));
#1202=DIRECTION('',(0.,1.,0.));
#1203=DIRECTION('',(-1.,0.,0.));
#1204=DIRECTION('',(0.,-1.,0.));
#1205=DIRECTION('',(1.,0.,0.));
#1206=DIRECTION('center_axis',(0.,-1.,0.));
#1207=DIRECTION('ref_axis',(0.,0.,-1.));
#1208=DIRECTION('',(-1.,0.,0.));
#1209=DIRECTION('',(-1.,0.,0.));
#1210=DIRECTION('',(-1.,0.,0.));
#1211=DIRECTION('center_axis',(0.,0.,1.));
#1212=DIRECTION('ref_axis',(1.,0.,0.));
#1213=DIRECTION('center_axis',(0.,0.,1.));
#1214=DIRECTION('ref_axis',(1.,0.,0.));
#1215=DIRECTION('',(0.,1.,0.));
#1216=DIRECTION('center_axis',(0.,0.,1.));
#1217=DIRECTION('ref_axis',(1.,0.,0.));
#1218=DIRECTION('',(0.,-1.,0.));
#1219=DIRECTION('center_axis',(0.,-1.,0.));
#1220=DIRECTION('ref_axis',(1.,0.,0.));
#1221=DIRECTION('',(0.,0.,1.));
#1222=DIRECTION('',(-1.,0.,3.70074341541719E-17));
#1223=DIRECTION('',(0.,0.,1.));
#1224=DIRECTION('center_axis',(1.,0.,0.));
#1225=DIRECTION('ref_axis',(0.,1.,0.));
#1226=DIRECTION('',(0.,-1.,0.));
#1227=DIRECTION('center_axis',(-1.,0.,0.));
#1228=DIRECTION('ref_axis',(0.,-1.,0.));
#1229=DIRECTION('',(0.,1.,0.));
#1230=DIRECTION('center_axis',(-3.70074341541719E-17,0.,-1.));
#1231=DIRECTION('ref_axis',(-1.,0.,3.70074341541719E-17));
#1232=DIRECTION('center_axis',(-3.70074341541719E-17,0.,-1.));
#1233=DIRECTION('ref_axis',(-1.,0.,3.70074341541719E-17));
#1234=DIRECTION('',(0.,1.,0.));
#1235=DIRECTION('',(-1.,0.,3.70074341541719E-17));
#1236=DIRECTION('center_axis',(8.88178419700125E-17,0.,1.));
#1237=DIRECTION('ref_axis',(-0.707106781186547,0.707106781186547,0.));
#1238=DIRECTION('center_axis',(0.707106781186548,6.2803698347351E-16,-0.707106781186548));
#1239=DIRECTION('ref_axis',(0.707106781186547,-6.2803698347351E-16,0.707106781186547));
#1240=DIRECTION('center_axis',(-1.,0.,-6.34413156928661E-17));
#1241=DIRECTION('ref_axis',(0.,0.707106781186547,-0.707106781186547));
#1242=DIRECTION('',(-1.,0.,-6.34413156928661E-17));
#1243=DIRECTION('center_axis',(1.,0.,0.));
#1244=DIRECTION('ref_axis',(0.,0.,-1.));
#1245=DIRECTION('',(0.,0.,-1.));
#1246=DIRECTION('center_axis',(0.,1.,0.));
#1247=DIRECTION('ref_axis',(0.,0.,1.));
#1248=DIRECTION('',(1.1686558153949E-16,0.,1.));
#1249=DIRECTION('',(1.,0.,-5.1044736764375E-17));
#1250=DIRECTION('',(2.3373116307898E-16,0.,-1.));
#1251=DIRECTION('center_axis',(-5.1044736764375E-17,0.,-1.));
#1252=DIRECTION('ref_axis',(-1.,0.,5.1044736764375E-17));
#1253=DIRECTION('',(0.,1.,0.));
#1254=DIRECTION('',(0.,1.,0.));
#1255=DIRECTION('center_axis',(1.,0.,-1.1686558153949E-16));
#1256=DIRECTION('ref_axis',(-1.1686558153949E-16,0.,-1.));
#1257=DIRECTION('center_axis',(-1.,0.,-2.3373116307898E-16));
#1258=DIRECTION('ref_axis',(-2.3373116307898E-16,0.,1.));
#1259=DIRECTION('center_axis',(6.34413156928661E-17,0.,-1.));
#1260=DIRECTION('ref_axis',(1.,0.,6.34413156928661E-17));
#1261=DIRECTION('center_axis',(0.,0.,-1.));
#1262=DIRECTION('ref_axis',(0.,1.,0.));
#1263=DIRECTION('',(0.,1.,0.));
#1264=DIRECTION('',(-1.,0.,0.));
#1265=DIRECTION('',(0.,-1.,0.));
#1266=DIRECTION('',(1.,0.,0.));
#1267=DIRECTION('center_axis',(0.,1.,0.));
#1268=DIRECTION('ref_axis',(0.,0.,1.));
#1269=DIRECTION('',(0.,0.,-1.));
#1270=DIRECTION('',(-1.,0.,0.));
#1271=DIRECTION('',(0.,0.,1.));
#1272=DIRECTION('center_axis',(0.,-1.,0.));
#1273=DIRECTION('ref_axis',(1.,0.,0.));
#1274=DIRECTION('',(0.,0.,1.));
#1275=DIRECTION('',(-1.,0.,0.));
#1276=DIRECTION('',(0.,0.,1.));
#1277=DIRECTION('center_axis',(1.,0.,0.));
#1278=DIRECTION('ref_axis',(0.,0.,-1.));
#1279=DIRECTION('',(0.,1.,0.));
#1280=DIRECTION('center_axis',(-1.,0.,0.));
#1281=DIRECTION('ref_axis',(0.,0.,1.));
#1282=DIRECTION('',(0.,1.,0.));
#1283=DIRECTION('center_axis',(0.,0.,-1.));
#1284=DIRECTION('ref_axis',(-1.,0.,0.));
#1285=DIRECTION('center_axis',(0.,1.,0.));
#1286=DIRECTION('ref_axis',(0.,0.,1.));
#1287=DIRECTION('',(1.,0.,0.));
#1288=DIRECTION('',(0.,0.,-1.));
#1289=DIRECTION('',(-1.,0.,0.));
#1290=DIRECTION('',(0.,0.,1.));
#1291=DIRECTION('center_axis',(0.,0.,-1.));
#1292=DIRECTION('ref_axis',(-1.,0.,0.));
#1293=DIRECTION('',(-1.,0.,0.));
#1294=DIRECTION('',(0.,1.,0.));
#1295=DIRECTION('',(0.,1.,0.));
#1296=DIRECTION('center_axis',(-1.,0.,0.));
#1297=DIRECTION('ref_axis',(0.,0.,1.));
#1298=DIRECTION('',(0.,1.,0.));
#1299=DIRECTION('',(0.,0.,-1.));
#1300=DIRECTION('center_axis',(0.,-1.,0.));
#1301=DIRECTION('ref_axis',(1.,0.,0.));
#1302=DIRECTION('',(-1.,0.,0.));
#1303=DIRECTION('',(0.,0.,-1.));
#1304=DIRECTION('center_axis',(1.,0.,0.));
#1305=DIRECTION('ref_axis',(0.,0.,-1.));
#1306=DIRECTION('',(0.,-1.,0.));
#1307=DIRECTION('center_axis',(0.,0.,-1.));
#1308=DIRECTION('ref_axis',(0.,1.,0.));
#1309=CARTESIAN_POINT('',(0.,0.,0.));
#1310=CARTESIAN_POINT('Origin',(-35.,-60.,-8.88178419700125E-15));
#1311=CARTESIAN_POINT('',(-21.7499999999998,0.,-8.88178419700125E-15));
#1312=CARTESIAN_POINT('',(-21.7499999999998,-1.99999999999999,-8.88178419700125E-15));
#1313=CARTESIAN_POINT('',(-21.7499999999998,-60.,-8.88178419700125E-15));
#1314=CARTESIAN_POINT('',(-30.,0.,-8.88178419700125E-15));
#1315=CARTESIAN_POINT('',(-17.5,0.,-8.88178419700125E-15));
#1316=CARTESIAN_POINT('',(-35.,-5.,-8.88178419700125E-15));
#1317=CARTESIAN_POINT('Origin',(-30.,-5.,-8.88178419700125E-15));
#1318=CARTESIAN_POINT('',(-35.,-60.,-8.88178419700125E-15));
#1319=CARTESIAN_POINT('',(-35.,-30.,-8.88178419700125E-15));
#1320=CARTESIAN_POINT('',(-29.9999999999991,-60.,-8.88178419700125E-15));
#1321=CARTESIAN_POINT('',(-17.5,-60.,-8.88178419700125E-15));
#1322=CARTESIAN_POINT('',(-29.9999999999991,-1.99999999999999,-8.88178419700125E-15));
#1323=CARTESIAN_POINT('',(-29.9999999999991,-60.,-8.88178419700125E-15));
#1324=CARTESIAN_POINT('',(-17.4999999999996,-1.99999999999999,-8.88178419700125E-15));
#1325=CARTESIAN_POINT('Origin',(-35.,-60.,-8.88178419700125E-15));
#1326=CARTESIAN_POINT('',(21.7500000000002,-1.99999999999999,-8.88178419700125E-15));
#1327=CARTESIAN_POINT('',(21.7500000000002,0.,-8.88178419700125E-15));
#1328=CARTESIAN_POINT('',(21.7500000000002,-60.,-8.88178419700125E-15));
#1329=CARTESIAN_POINT('',(30.0000000000008,-1.99999999999999,-8.88178419700125E-15));
#1330=CARTESIAN_POINT('',(-17.4999999999996,-1.99999999999999,-8.88178419700125E-15));
#1331=CARTESIAN_POINT('',(30.0000000000009,-60.,-8.88178419700125E-15));
#1332=CARTESIAN_POINT('',(30.0000000000009,-60.,-8.88178419700125E-15));
#1333=CARTESIAN_POINT('',(35.,-60.,-8.88178419700125E-15));
#1334=CARTESIAN_POINT('',(-17.5,-60.,-8.88178419700125E-15));
#1335=CARTESIAN_POINT('',(35.,-5.,-8.88178419700125E-15));
#1336=CARTESIAN_POINT('',(35.,-30.,-8.88178419700125E-15));
#1337=CARTESIAN_POINT('',(30.,0.,-8.88178419700125E-15));
#1338=CARTESIAN_POINT('Origin',(30.,-5.,-8.88178419700125E-15));
#1339=CARTESIAN_POINT('',(-17.5,0.,-8.88178419700125E-15));
#1340=CARTESIAN_POINT('Origin',(-29.9999999999991,-60.,-19.9999999999995));
#1341=CARTESIAN_POINT('',(-29.9999999999991,-60.,-19.9999999999995));
#1342=CARTESIAN_POINT('',(-29.9999999999991,-60.,-9.99999999999978));
#1343=CARTESIAN_POINT('',(-29.9999999999991,-1.99999999999999,-19.9999999999995));
#1344=CARTESIAN_POINT('',(-29.9999999999991,-60.,-19.9999999999995));
#1345=CARTESIAN_POINT('',(-29.9999999999991,-1.99999999999999,-19.9999999999995));
#1346=CARTESIAN_POINT('Origin',(30.,-5.,-12.5));
#1347=CARTESIAN_POINT('',(35.,-5.,-25.));
#1348=CARTESIAN_POINT('',(35.,-5.,-12.5));
#1349=CARTESIAN_POINT('',(30.,0.,-20.));
#1350=CARTESIAN_POINT('Origin',(30.,-5.,-20.));
#1351=CARTESIAN_POINT('',(30.,0.,-12.5));
#1352=CARTESIAN_POINT('Origin',(4.44089209850063E-15,0.,0.));
#1353=CARTESIAN_POINT('',(-30.,0.,-20.));
#1354=CARTESIAN_POINT('',(-17.5,0.,-20.));
#1355=CARTESIAN_POINT('',(-30.,0.,12.5));
#1356=CARTESIAN_POINT('',(-21.7499999999998,0.,-19.0000000000002));
#1357=CARTESIAN_POINT('',(-21.7499999999998,0.,-9.50000000000011));
#1358=CARTESIAN_POINT('',(21.7500000000002,0.,-19.0000000000002));
#1359=CARTESIAN_POINT('',(10.8750000000001,0.,-19.0000000000002));
#1360=CARTESIAN_POINT('',(21.7500000000002,0.,9.49999999999989));
#1361=CARTESIAN_POINT('',(27.4142139708767,0.,-16.0000002384186));
#1362=CARTESIAN_POINT('Origin',(26.0000003874302,0.,-16.0000002384186));
#1363=CARTESIAN_POINT('',(-24.5857868039837,0.,-16.0000002384186));
#1364=CARTESIAN_POINT('Origin',(-26.0000003874302,0.,-16.0000002384186));
#1365=CARTESIAN_POINT('',(27.2999993897974,0.,-10.9999997541308));
#1366=CARTESIAN_POINT('Origin',(26.7999994009733,0.,-10.9999997541308));
#1367=CARTESIAN_POINT('',(27.2999993897974,0.,-1.99999995529652));
#1368=CARTESIAN_POINT('Origin',(26.7999994009733,0.,-1.99999995529652));
#1369=CARTESIAN_POINT('',(-26.2499994132668,0.,-5.84999986924231));
#1370=CARTESIAN_POINT('Origin',(-26.7999994009733,0.,-5.84999986924231));
#1371=CARTESIAN_POINT('',(27.2999993897974,0.,-7.99999982118607));
#1372=CARTESIAN_POINT('Origin',(26.7999994009733,0.,-7.99999982118607));
#1373=CARTESIAN_POINT('',(27.2999993897974,0.,-4.99999988824129));
#1374=CARTESIAN_POINT('Origin',(26.7999994009733,0.,-4.99999988824129));
#1375=CARTESIAN_POINT('',(-26.2499994132668,0.,-1.9499999564141));
#1376=CARTESIAN_POINT('Origin',(-26.7999994009733,0.,-1.9499999564141));
#1377=CARTESIAN_POINT('Origin',(4.44089209850063E-15,-60.,0.));
#1378=CARTESIAN_POINT('',(-35.,-60.,-25.));
#1379=CARTESIAN_POINT('',(-35.,-60.,-25.));
#1380=CARTESIAN_POINT('',(35.,-60.,-25.));
#1381=CARTESIAN_POINT('',(35.,-60.,-25.));
#1382=CARTESIAN_POINT('',(35.,-60.,25.));
#1383=CARTESIAN_POINT('',(30.0000000000008,-60.,-19.9999999999995));
#1384=CARTESIAN_POINT('',(30.0000000000008,-60.,10.0000000000002));
#1385=CARTESIAN_POINT('',(19.1999999850997,-60.,-19.9999999999995));
#1386=CARTESIAN_POINT('',(15.0000000000004,-60.,-19.9999999999995));
#1387=CARTESIAN_POINT('',(19.1999999850997,-60.,-15.9999999999995));
#1388=CARTESIAN_POINT('',(19.1999999850997,-60.,-19.9999999999995));
#1389=CARTESIAN_POINT('',(14.1999999850997,-60.0000008940697,-15.9999999999995));
#1390=CARTESIAN_POINT('',(19.1999999850997,-60.,-15.9999999999995));
#1391=CARTESIAN_POINT('',(14.1999999850997,-60.0000008940697,-19.9999999999995));
#1392=CARTESIAN_POINT('',(14.1999999850997,-60.0000008940697,-19.9999999999995));
#1393=CARTESIAN_POINT('',(-13.7000000149003,-60.0000008940697,-19.9999999999995));
#1394=CARTESIAN_POINT('',(15.0000000000004,-60.,-19.9999999999995));
#1395=CARTESIAN_POINT('',(-13.7000000149003,-60.0000008940697,-15.9999999999995));
#1396=CARTESIAN_POINT('',(-13.7000000149003,-60.0000008940697,-19.9999999999995));
#1397=CARTESIAN_POINT('',(-18.7000000149003,-60.,-15.9999999999995));
#1398=CARTESIAN_POINT('',(19.1999999850997,-60.,-15.9999999999995));
#1399=CARTESIAN_POINT('',(-18.7000000149003,-60.,-19.9999999999995));
#1400=CARTESIAN_POINT('',(-18.7000000149003,-60.,-19.9999999999995));
#1401=CARTESIAN_POINT('',(15.0000000000004,-60.,-19.9999999999995));
#1402=CARTESIAN_POINT('Origin',(35.,0.,-25.));
#1403=CARTESIAN_POINT('',(35.,0.,-25.));
#1404=CARTESIAN_POINT('Origin',(-35.,0.,25.));
#1405=CARTESIAN_POINT('',(-35.,-5.,-25.));
#1406=CARTESIAN_POINT('',(-35.,-5.,12.5));
#1407=CARTESIAN_POINT('',(-35.,0.,-25.));
#1408=CARTESIAN_POINT('Origin',(-26.7999994009733,0.,-1.9499999564141));
#1409=CARTESIAN_POINT('',(-26.2499994132668,-1.99999999999999,-1.9499999564141));
#1410=CARTESIAN_POINT('',(-26.2499994132668,0.,-1.9499999564141));
#1411=CARTESIAN_POINT('Origin',(-26.7999994009733,-1.99999999999999,-1.9499999564141));
#1412=CARTESIAN_POINT('Origin',(26.7999994009733,0.,-4.99999988824129));
#1413=CARTESIAN_POINT('',(27.2999993897974,-1.99999999999999,-4.99999988824129));
#1414=CARTESIAN_POINT('',(27.2999993897974,0.,-4.99999988824129));
#1415=CARTESIAN_POINT('Origin',(26.7999994009733,-1.99999999999999,-4.99999988824129));
#1416=CARTESIAN_POINT('Origin',(26.7999994009733,0.,-7.99999982118607));
#1417=CARTESIAN_POINT('',(27.2999993897974,-1.99999999999999,-7.99999982118607));
#1418=CARTESIAN_POINT('',(27.2999993897974,0.,-7.99999982118607));
#1419=CARTESIAN_POINT('Origin',(26.7999994009733,-1.99999999999999,-7.99999982118607));
#1420=CARTESIAN_POINT('Origin',(-26.7999994009733,0.,-5.84999986924231));
#1421=CARTESIAN_POINT('',(-26.2499994132668,-1.99999999999999,-5.84999986924231));
#1422=CARTESIAN_POINT('',(-26.2499994132668,0.,-5.84999986924231));
#1423=CARTESIAN_POINT('Origin',(-26.7999994009733,-1.99999999999999,-5.84999986924231));
#1424=CARTESIAN_POINT('Origin',(26.7999994009733,0.,-1.99999995529652));
#1425=CARTESIAN_POINT('',(27.2999993897974,-1.99999999999999,-1.99999995529652));
#1426=CARTESIAN_POINT('',(27.2999993897974,0.,-1.99999995529652));
#1427=CARTESIAN_POINT('Origin',(26.7999994009733,-1.99999999999999,-1.99999995529652));
#1428=CARTESIAN_POINT('Origin',(26.7999994009733,0.,-10.9999997541308));
#1429=CARTESIAN_POINT('',(27.2999993897974,-1.99999999999999,-10.9999997541308));
#1430=CARTESIAN_POINT('',(27.2999993897974,0.,-10.9999997541308));
#1431=CARTESIAN_POINT('Origin',(26.7999994009733,-1.99999999999999,-10.9999997541308));
#1432=CARTESIAN_POINT('Origin',(-26.0000003874302,0.,-16.0000002384186));
#1433=CARTESIAN_POINT('',(-24.5857868039837,-1.99999999999999,-16.0000002384186));
#1434=CARTESIAN_POINT('',(-24.5857868039837,0.,-16.0000002384186));
#1435=CARTESIAN_POINT('Origin',(-26.0000003874302,-1.99999999999999,-16.0000002384186));
#1436=CARTESIAN_POINT('Origin',(26.0000003874302,0.,-16.0000002384186));
#1437=CARTESIAN_POINT('',(27.4142139708767,-1.99999999999999,-16.0000002384186));
#1438=CARTESIAN_POINT('',(27.4142139708767,0.,-16.0000002384186));
#1439=CARTESIAN_POINT('Origin',(26.0000003874302,-1.99999999999999,-16.0000002384186));
#1440=CARTESIAN_POINT('Origin',(-17.7000000149003,-20.0225000000001,-15.9999999999995));
#1441=CARTESIAN_POINT('',(-18.7000000149003,-18.1300000000001,-15.9999999999995));
#1442=CARTESIAN_POINT('',(-18.7000000149003,-40.7000000000001,-15.9999999999995));
#1443=CARTESIAN_POINT('',(-18.7000000149003,-20.0225000000001,-15.9999999999995));
#1444=CARTESIAN_POINT('',(-17.7000000149003,-40.7000000000001,-14.9999999999995));
#1445=CARTESIAN_POINT('Origin',(-17.7000000149003,-40.7000000000001,-15.9999999999995));
#1446=CARTESIAN_POINT('',(-17.7000000149003,-19.1300000000001,-14.9999999999995));
#1447=CARTESIAN_POINT('',(-17.7000000149003,-20.0225000000001,-14.9999999999995));
#1448=CARTESIAN_POINT('Origin',(-17.7000000149003,-19.1300000000001,-15.9999999999995));
#1449=CARTESIAN_POINT('Origin',(9.72499998509968,-19.1300000000001,-15.9999999999995));
#1450=CARTESIAN_POINT('',(18.1999999850997,-19.1300000000001,-14.9999999999995));
#1451=CARTESIAN_POINT('',(9.72499998509968,-19.1300000000001,-14.9999999999995));
#1452=CARTESIAN_POINT('',(19.1999999850997,-18.1300000000001,-15.9999999999995));
#1453=CARTESIAN_POINT('Origin',(18.1999999850997,-19.1300000000001,-15.9999999999995));
#1454=CARTESIAN_POINT('',(9.72499998509968,-18.1300000000001,-15.9999999999995));
#1455=CARTESIAN_POINT('Origin',(18.1999999850997,-40.9575,-15.9999999999995));
#1456=CARTESIAN_POINT('',(18.1999999850997,-40.7000000000001,-14.9999999999995));
#1457=CARTESIAN_POINT('',(18.1999999850997,-40.9575,-14.9999999999995));
#1458=CARTESIAN_POINT('',(19.1999999850997,-40.7000000000001,-15.9999999999995));
#1459=CARTESIAN_POINT('Origin',(18.1999999850997,-40.7000000000001,-15.9999999999995));
#1460=CARTESIAN_POINT('',(19.1999999850997,-40.9575,-15.9999999999995));
#1461=CARTESIAN_POINT('Origin',(-18.7000000149003,-18.1300000000001,-19.9999999999995));
#1462=CARTESIAN_POINT('',(-18.7000000149003,-18.1300000000001,-19.9999999999995));
#1463=CARTESIAN_POINT('',(-18.7000000149003,-18.1300000000001,-19.9999999999995));
#1464=CARTESIAN_POINT('',(-18.7000000149003,-39.065,-19.9999999999995));
#1465=CARTESIAN_POINT('',(-18.7000000149003,-60.,-15.9999999999995));
#1466=CARTESIAN_POINT('Origin',(19.1999999850997,-18.1300000000001,-19.9999999999995));
#1467=CARTESIAN_POINT('',(19.1999999850997,-18.1300000000001,-19.9999999999995));
#1468=CARTESIAN_POINT('',(19.1999999850997,-18.1300000000001,-19.9999999999995));
#1469=CARTESIAN_POINT('',(24.5999999925503,-18.1300000000001,-19.9999999999995));
#1470=CARTESIAN_POINT('Origin',(19.1999999850997,-60.,-19.9999999999995));
#1471=CARTESIAN_POINT('',(19.1999999850997,-18.1300000000001,-15.9999999999995));
#1472=CARTESIAN_POINT('',(19.1999999850997,-60.,-19.9999999999995));
#1473=CARTESIAN_POINT('Origin',(-18.7000000149003,-25.7000000000001,-15.9999999999995));
#1474=CARTESIAN_POINT('',(-13.7000000149003,-40.7000000000001,-15.9999999999995));
#1475=CARTESIAN_POINT('',(-13.7000000149003,-25.7000000000001,-15.9999999999995));
#1476=CARTESIAN_POINT('',(-13.7000000149003,-60.0000008940697,-15.9999999999995));
#1477=CARTESIAN_POINT('',(14.1999999850997,-25.7000000000001,-15.9999999999995));
#1478=CARTESIAN_POINT('',(-16.2000000149003,-25.7000000000001,-15.9999999999995));
#1479=CARTESIAN_POINT('',(14.1999999850997,-40.7000000000001,-15.9999999999995));
#1480=CARTESIAN_POINT('',(14.1999999850997,-25.7000000000001,-15.9999999999995));
#1481=CARTESIAN_POINT('',(19.1999999850997,-40.7000000000001,-15.9999999999995));
#1482=CARTESIAN_POINT('Origin',(0.249999985099698,-40.7000000000001,-15.4999999999995));
#1483=CARTESIAN_POINT('',(0.249999985099698,-40.7000000000001,-15.9999999999995));
#1484=CARTESIAN_POINT('',(0.249999985099698,-40.7000000000001,-15.9999999999995));
#1485=CARTESIAN_POINT('',(-18.7000000149003,-40.7000000000001,-14.9999999999995));
#1486=CARTESIAN_POINT('Origin',(0.249999985099698,-21.9150000000001,-14.9999999999995));
#1487=CARTESIAN_POINT('Origin',(0.249999985099698,-39.0650004470349,-15.9999999999995));
#1488=CARTESIAN_POINT('',(-13.7000000149003,-60.0000008940697,-15.9999999999995));
#1489=CARTESIAN_POINT('Origin',(0.249999985099698,-39.0650004470349,-15.9999999999995));
#1490=CARTESIAN_POINT('',(14.1999999850997,-25.7000000000001,-15.9999999999995));
#1491=CARTESIAN_POINT('Origin',(-13.7000000149003,-25.7000000000001,-19.9999999999995));
#1492=CARTESIAN_POINT('',(-13.7000000149003,-25.7000000000001,-19.9999999999995));
#1493=CARTESIAN_POINT('',(-13.7000000149003,-25.7000000000001,-19.9999999999995));
#1494=CARTESIAN_POINT('',(14.1999999850997,-25.7000000000001,-19.9999999999995));
#1495=CARTESIAN_POINT('',(8.14999999255029,-25.7000000000001,-19.9999999999995));
#1496=CARTESIAN_POINT('',(14.1999999850997,-25.7000000000001,-19.9999999999995));
#1497=CARTESIAN_POINT('Origin',(-13.7000000149003,-60.0000008940697,-19.9999999999995));
#1498=CARTESIAN_POINT('',(-13.7000000149003,-60.0000004470348,-19.9999999999995));
#1499=CARTESIAN_POINT('Origin',(14.1999999850997,-25.7000000000001,-19.9999999999995));
#1500=CARTESIAN_POINT('',(14.1999999850997,-42.85,-19.9999999999995));
#1501=CARTESIAN_POINT('Origin',(30.0000000000008,-60.,-19.9999999999995));
#1502=CARTESIAN_POINT('Origin',(30.0000000000008,-60.,-19.9999999999995));
#1503=CARTESIAN_POINT('',(30.0000000000008,-1.99999999999999,-19.9999999999995));
#1504=CARTESIAN_POINT('',(30.0000000000008,-60.,-19.9999999999995));
#1505=CARTESIAN_POINT('',(30.0000000000008,-1.99999999999999,-19.9999999999995));
#1506=CARTESIAN_POINT('Origin',(-30.,-5.,12.5));
#1507=CARTESIAN_POINT('Origin',(-30.,-5.,-20.));
#1508=CARTESIAN_POINT('Origin',(-17.5,-5.,-20.));
#1509=CARTESIAN_POINT('',(-17.5,-5.,-25.));
#1510=CARTESIAN_POINT('Origin',(30.0000000000008,-60.,20.0000000000004));
#1511=CARTESIAN_POINT('',(30.0000000000008,-1.99999999999999,20.0000000000004));
#1512=CARTESIAN_POINT('Origin',(8.4821039081362E-13,-1.99999999999999,4.52970994047064E-13));
#1513=CARTESIAN_POINT('',(21.7500000000002,-1.99999999999999,-19.0000000000002));
#1514=CARTESIAN_POINT('',(21.7500000000002,-1.99999999999999,9.50000000000012));
#1515=CARTESIAN_POINT('',(-21.7499999999998,-1.99999999999999,-19.0000000000002));
#1516=CARTESIAN_POINT('',(10.8750000000005,-1.99999999999999,-19.0000000000002));
#1517=CARTESIAN_POINT('',(-21.7499999999998,-1.99999999999999,-9.49999999999988));
#1518=CARTESIAN_POINT('Origin',(21.7500000000002,-60.,-19.0000000000002));
#1519=CARTESIAN_POINT('',(21.7500000000002,-60.,-19.0000000000002));
#1520=CARTESIAN_POINT('',(-21.7499999999998,-60.,-19.0000000000002));
#1521=CARTESIAN_POINT('Origin',(21.7500000000002,-60.,18.9999999999998));
#1522=CARTESIAN_POINT('Origin',(-21.7499999999998,-60.,-19.0000000000002));
#1523=CARTESIAN_POINT('Origin',(-35.,0.,-25.));
#1524=CARTESIAN_POINT('Origin',(-35.,-60.,-8.88178419700125E-15));
#1525=CARTESIAN_POINT('',(-29.9999999999992,-60.,-8.88178419700125E-15));
#1526=CARTESIAN_POINT('',(-29.9999999999992,-56.,-8.88178419700125E-15));
#1527=CARTESIAN_POINT('',(-29.9999999999992,-60.,-8.88178419700125E-15));
#1528=CARTESIAN_POINT('',(-28.0000004172325,-60.,-8.88178419700125E-15));
#1529=CARTESIAN_POINT('',(-17.4999999999996,-60.,-8.88178419700125E-15));
#1530=CARTESIAN_POINT('',(-28.0000004172325,-56.,-8.88178419700125E-15));
#1531=CARTESIAN_POINT('',(-28.0000004172325,-60.,-8.88178419700125E-15));
#1532=CARTESIAN_POINT('',(-17.4999999999996,-56.,-8.88178419700125E-15));
#1533=CARTESIAN_POINT('Origin',(8.4821039081362E-13,-56.,-1.4901138545298E-7));
#1534=CARTESIAN_POINT('',(-28.0000004172325,-56.,-20.0000002980232));
#1535=CARTESIAN_POINT('',(-28.0000004172325,-56.,-18.0000002682209));
#1536=CARTESIAN_POINT('',(-29.9999999999992,-56.,-19.9999999999995));
#1537=CARTESIAN_POINT('',(30.0000000000008,-56.,-19.9999999999995));
#1538=CARTESIAN_POINT('',(-29.9999999999992,-56.,-19.9999999999995));
#1539=CARTESIAN_POINT('Origin',(8.4821039081362E-13,-60.,-1.4901138545298E-7));
#1540=CARTESIAN_POINT('',(-29.9999999999992,-60.,-19.9999999999995));
#1541=CARTESIAN_POINT('',(-29.9999999999992,-60.,-19.9999999999995));
#1542=CARTESIAN_POINT('',(-28.0000004172325,-60.,-20.0000002980232));
#1543=CARTESIAN_POINT('',(30.0000000000008,-60.,-19.9999999999995));
#1544=CARTESIAN_POINT('',(-28.0000004172325,-60.,-18.0000002682209));
#1545=CARTESIAN_POINT('Origin',(-28.0000004172325,-60.,18.0000002682209));
#1546=CARTESIAN_POINT('',(-28.0000004172325,-60.,-20.0000002980232));
#1547=CARTESIAN_POINT('Origin',(-29.9999999999992,-60.,-19.9999999999995));
#1548=CARTESIAN_POINT('',(-29.9999999999992,-60.,-19.9999999999995));
#1549=CARTESIAN_POINT('Origin',(-28.0000004172325,-60.,-19.9999999999995));
#1550=CARTESIAN_POINT('Origin',(8.4821039081362E-13,-56.,-1.4901138545298E-7));
#1551=CARTESIAN_POINT('',(28.0000004172325,-56.,-8.88178419700125E-15));
#1552=CARTESIAN_POINT('',(30.0000000000008,-56.,-8.88178419700125E-15));
#1553=CARTESIAN_POINT('',(-17.4999999999996,-56.,-8.88178419700125E-15));
#1554=CARTESIAN_POINT('',(30.0000000000009,-56.,-19.9999999999995));
#1555=CARTESIAN_POINT('',(30.0000000000008,-56.,20.0000000000005));
#1556=CARTESIAN_POINT('',(28.0000004172325,-56.,-20.0000002980232));
#1557=CARTESIAN_POINT('',(30.0000000000008,-56.,-19.9999999999995));
#1558=CARTESIAN_POINT('',(28.0000004172325,-56.,18.0000002682209));
#1559=CARTESIAN_POINT('Origin',(30.0000000000008,-60.,-19.9999999999995));
#1560=CARTESIAN_POINT('',(30.0000000000008,-60.,-19.9999999999995));
#1561=CARTESIAN_POINT('',(28.0000004172325,-60.,-20.0000002980232));
#1562=CARTESIAN_POINT('',(30.0000000000008,-60.,-19.9999999999995));
#1563=CARTESIAN_POINT('',(28.0000004172325,-60.,-20.0000002980232));
#1564=CARTESIAN_POINT('',(30.0000000000008,-60.,-19.9999999999995));
#1565=CARTESIAN_POINT('Origin',(28.0000004172325,-60.,-20.0000002980232));
#1566=CARTESIAN_POINT('',(28.0000004172325,-60.,-8.88178419700125E-15));
#1567=CARTESIAN_POINT('',(28.0000004172325,-60.,-8.88178419700125E-15));
#1568=CARTESIAN_POINT('',(28.0000004172325,-60.,18.0000002682209));
#1569=CARTESIAN_POINT('Origin',(8.4821039081362E-13,-60.,-1.4901138545298E-7));
#1570=CARTESIAN_POINT('',(30.0000000000009,-60.,-8.88178419700125E-15));
#1571=CARTESIAN_POINT('',(-17.4999999999996,-60.,-8.88178419700125E-15));
#1572=CARTESIAN_POINT('',(30.0000000000008,-60.,20.0000000000005));
#1573=CARTESIAN_POINT('Origin',(30.0000000000008,-60.,20.0000000000005));
#1574=CARTESIAN_POINT('',(30.0000000000009,-60.,-8.88178419700125E-15));
#1575=CARTESIAN_POINT('Origin',(-35.,-60.,-8.88178419700125E-15));
#1576=UNCERTAINTY_MEASURE_WITH_UNIT(LENGTH_MEASURE(0.01),#1580,
'DISTANCE_ACCURACY_VALUE',
'Maximum model space distance between geometric entities at asserted c
onnectivities');
#1577=UNCERTAINTY_MEASURE_WITH_UNIT(LENGTH_MEASURE(0.01),#1580,
'DISTANCE_ACCURACY_VALUE',
'Maximum model space distance between geometric entities at asserted c
onnectivities');
#1578=(
GEOMETRIC_REPRESENTATION_CONTEXT(3)
GLOBAL_UNCERTAINTY_ASSIGNED_CONTEXT((#1576))
GLOBAL_UNIT_ASSIGNED_CONTEXT((#1580,#1581,#1582))
REPRESENTATION_CONTEXT('','3D')
);
#1579=(
GEOMETRIC_REPRESENTATION_CONTEXT(3)
GLOBAL_UNCERTAINTY_ASSIGNED_CONTEXT((#1577))
GLOBAL_UNIT_ASSIGNED_CONTEXT((#1580,#1581,#1582))
REPRESENTATION_CONTEXT('','3D')
);
#1580=(
LENGTH_UNIT()
NAMED_UNIT(*)
SI_UNIT(.MILLI.,.METRE.)
);
#1581=(
NAMED_UNIT(*)
PLANE_ANGLE_UNIT()
SI_UNIT($,.RADIAN.)
);
#1582=(
NAMED_UNIT(*)
SI_UNIT($,.STERADIAN.)
SOLID_ANGLE_UNIT()
);
#1583=SHAPE_DEFINITION_REPRESENTATION(#1584,#1585);
#1584=PRODUCT_DEFINITION_SHAPE('',$,#1587);
#1585=SHAPE_REPRESENTATION('',(#972),#1578);
#1586=PRODUCT_DEFINITION_CONTEXT('part definition',#1591,'design');
#1587=PRODUCT_DEFINITION('2026-04-03-09-55-27-354','Case',#1588,#1586);
#1588=PRODUCT_DEFINITION_FORMATION('',$,#1593);
#1589=PRODUCT_RELATED_PRODUCT_CATEGORY('Case','Case',(#1593));
#1590=APPLICATION_PROTOCOL_DEFINITION('international standard',
'automotive_design',2009,#1591);
#1591=APPLICATION_CONTEXT(
'Core Data for Automotive Mechanical Design Process');
#1592=PRODUCT_CONTEXT('part definition',#1591,'mechanical');
#1593=PRODUCT('2026-04-03-09-55-27-354','Case',$,(#1592));
#1594=PRESENTATION_STYLE_ASSIGNMENT((#1595));
#1595=SURFACE_STYLE_USAGE(.BOTH.,#1596);
#1596=SURFACE_SIDE_STYLE('',(#1597));
#1597=SURFACE_STYLE_FILL_AREA(#1598);
#1598=FILL_AREA_STYLE('Steel - Satin',(#1599));
#1599=FILL_AREA_STYLE_COLOUR('Steel - Satin',#1600);
#1600=COLOUR_RGB('Steel - Satin',0.627450980392157,0.627450980392157,0.627450980392157);
ENDSEC;
END-ISO-10303-21;
