ISO-10303-21;
HEADER;
/* Generated by software containing ST-Developer
 * from STEP Tools, Inc. (www.steptools.com) 
 */

FILE_DESCRIPTION(
/* description */ (''),
/* implementation_level */ '2;1');

FILE_NAME(
/* name */ 'top_half_case.step',
/* time_stamp */ '2026-05-17T19:48:40-04:00',
/* author */ (''),
/* organization */ (''),
/* preprocessor_version */ 'ST-DEVELOPER v20.1',
/* originating_system */ 'Autodesk Translation Framework v15.8.0.0',
/* authorisation */ '');

FILE_SCHEMA (('AUTOMOTIVE_DESIGN { 1 0 10303 214 3 1 1 }'));
ENDSEC;

DATA;
#10=MECHANICAL_DESIGN_GEOMETRIC_PRESENTATION_REPRESENTATION('',(#13,#14,
#15,#16),#2117);
#11=SHAPE_REPRESENTATION_RELATIONSHIP('SRR','None',#2123,#12);
#12=ADVANCED_BREP_SHAPE_REPRESENTATION('',(#17,#18,#19,#20),#2116);
#13=STYLED_ITEM('',(#2132),#17);
#14=STYLED_ITEM('',(#2132),#18);
#15=STYLED_ITEM('',(#2132),#19);
#16=STYLED_ITEM('',(#2132),#20);
#17=MANIFOLD_SOLID_BREP('Body1',#1276);
#18=MANIFOLD_SOLID_BREP('Body1',#1277);
#19=MANIFOLD_SOLID_BREP('Body1',#1278);
#20=MANIFOLD_SOLID_BREP('Body3',#1279);
#21=ELLIPSE('',#1298,7.07106781186547,5.);
#22=ELLIPSE('',#1364,7.07106781186548,5.);
#23=CYLINDRICAL_SURFACE('',#1297,5.);
#24=CYLINDRICAL_SURFACE('',#1299,0.499999988824129);
#25=CYLINDRICAL_SURFACE('',#1301,0.499999988824129);
#26=CYLINDRICAL_SURFACE('',#1303,0.549999987706542);
#27=CYLINDRICAL_SURFACE('',#1305,0.499999988824129);
#28=CYLINDRICAL_SURFACE('',#1307,0.499999988824129);
#29=CYLINDRICAL_SURFACE('',#1309,0.549999987706542);
#30=CYLINDRICAL_SURFACE('',#1311,1.41421358344652);
#31=CYLINDRICAL_SURFACE('',#1313,1.41421358344652);
#32=CYLINDRICAL_SURFACE('',#1316,0.499999999999995);
#33=CYLINDRICAL_SURFACE('',#1320,0.499999999999998);
#34=CYLINDRICAL_SURFACE('',#1324,0.499999999999995);
#35=CYLINDRICAL_SURFACE('',#1328,0.500000000000005);
#36=CYLINDRICAL_SURFACE('',#1332,0.499999999999996);
#37=CYLINDRICAL_SURFACE('',#1336,0.500000000000006);
#38=CYLINDRICAL_SURFACE('',#1340,0.499999999999998);
#39=CYLINDRICAL_SURFACE('',#1344,0.499999999999992);
#40=CYLINDRICAL_SURFACE('',#1347,0.500000000000002);
#41=CYLINDRICAL_SURFACE('',#1351,0.500000000000001);
#42=CYLINDRICAL_SURFACE('',#1355,0.500000000000001);
#43=CYLINDRICAL_SURFACE('',#1359,0.500000000000004);
#44=CYLINDRICAL_SURFACE('',#1363,5.);
#45=CYLINDRICAL_SURFACE('',#1365,5.);
#46=CYLINDRICAL_SURFACE('',#1375,0.499999999999992);
#47=CYLINDRICAL_SURFACE('',#1384,0.500000000000005);
#48=FACE_BOUND('',#140,.T.);
#49=FACE_BOUND('',#141,.T.);
#50=FACE_BOUND('',#142,.T.);
#51=FACE_BOUND('',#143,.T.);
#52=FACE_BOUND('',#144,.T.);
#53=FACE_BOUND('',#145,.T.);
#54=FACE_BOUND('',#146,.T.);
#55=FACE_BOUND('',#147,.T.);
#56=FACE_BOUND('',#187,.T.);
#57=FACE_BOUND('',#188,.T.);
#58=FACE_BOUND('',#189,.T.);
#59=FACE_BOUND('',#192,.T.);
#60=FACE_BOUND('',#193,.T.);
#61=FACE_BOUND('',#194,.T.);
#62=FACE_BOUND('',#195,.T.);
#63=FACE_BOUND('',#196,.T.);
#64=FACE_BOUND('',#197,.T.);
#65=FACE_BOUND('',#198,.T.);
#66=FACE_BOUND('',#199,.T.);
#67=FACE_BOUND('',#202,.T.);
#68=FACE_BOUND('',#203,.T.);
#69=FACE_BOUND('',#204,.T.);
#70=FACE_OUTER_BOUND('',#137,.T.);
#71=FACE_OUTER_BOUND('',#138,.T.);
#72=FACE_OUTER_BOUND('',#139,.T.);
#73=FACE_OUTER_BOUND('',#148,.T.);
#74=FACE_OUTER_BOUND('',#149,.T.);
#75=FACE_OUTER_BOUND('',#150,.T.);
#76=FACE_OUTER_BOUND('',#151,.T.);
#77=FACE_OUTER_BOUND('',#152,.T.);
#78=FACE_OUTER_BOUND('',#153,.T.);
#79=FACE_OUTER_BOUND('',#154,.T.);
#80=FACE_OUTER_BOUND('',#155,.T.);
#81=FACE_OUTER_BOUND('',#156,.T.);
#82=FACE_OUTER_BOUND('',#157,.T.);
#83=FACE_OUTER_BOUND('',#158,.T.);
#84=FACE_OUTER_BOUND('',#159,.T.);
#85=FACE_OUTER_BOUND('',#160,.T.);
#86=FACE_OUTER_BOUND('',#161,.T.);
#87=FACE_OUTER_BOUND('',#162,.T.);
#88=FACE_OUTER_BOUND('',#163,.T.);
#89=FACE_OUTER_BOUND('',#164,.T.);
#90=FACE_OUTER_BOUND('',#165,.T.);
#91=FACE_OUTER_BOUND('',#166,.T.);
#92=FACE_OUTER_BOUND('',#167,.T.);
#93=FACE_OUTER_BOUND('',#168,.T.);
#94=FACE_OUTER_BOUND('',#169,.T.);
#95=FACE_OUTER_BOUND('',#170,.T.);
#96=FACE_OUTER_BOUND('',#171,.T.);
#97=FACE_OUTER_BOUND('',#172,.T.);
#98=FACE_OUTER_BOUND('',#173,.T.);
#99=FACE_OUTER_BOUND('',#174,.T.);
#100=FACE_OUTER_BOUND('',#175,.T.);
#101=FACE_OUTER_BOUND('',#176,.T.);
#102=FACE_OUTER_BOUND('',#177,.T.);
#103=FACE_OUTER_BOUND('',#178,.T.);
#104=FACE_OUTER_BOUND('',#179,.T.);
#105=FACE_OUTER_BOUND('',#180,.T.);
#106=FACE_OUTER_BOUND('',#181,.T.);
#107=FACE_OUTER_BOUND('',#182,.T.);
#108=FACE_OUTER_BOUND('',#183,.T.);
#109=FACE_OUTER_BOUND('',#184,.T.);
#110=FACE_OUTER_BOUND('',#185,.T.);
#111=FACE_OUTER_BOUND('',#186,.T.);
#112=FACE_OUTER_BOUND('',#190,.T.);
#113=FACE_OUTER_BOUND('',#191,.T.);
#114=FACE_OUTER_BOUND('',#200,.T.);
#115=FACE_OUTER_BOUND('',#201,.T.);
#116=FACE_OUTER_BOUND('',#205,.T.);
#117=FACE_OUTER_BOUND('',#206,.T.);
#118=FACE_OUTER_BOUND('',#207,.T.);
#119=FACE_OUTER_BOUND('',#208,.T.);
#120=FACE_OUTER_BOUND('',#209,.T.);
#121=FACE_OUTER_BOUND('',#210,.T.);
#122=FACE_OUTER_BOUND('',#211,.T.);
#123=FACE_OUTER_BOUND('',#212,.T.);
#124=FACE_OUTER_BOUND('',#213,.T.);
#125=FACE_OUTER_BOUND('',#214,.T.);
#126=FACE_OUTER_BOUND('',#215,.T.);
#127=FACE_OUTER_BOUND('',#216,.T.);
#128=FACE_OUTER_BOUND('',#217,.T.);
#129=FACE_OUTER_BOUND('',#218,.T.);
#130=FACE_OUTER_BOUND('',#219,.T.);
#131=FACE_OUTER_BOUND('',#220,.T.);
#132=FACE_OUTER_BOUND('',#221,.T.);
#133=FACE_OUTER_BOUND('',#222,.T.);
#134=FACE_OUTER_BOUND('',#223,.T.);
#135=FACE_OUTER_BOUND('',#224,.T.);
#136=FACE_OUTER_BOUND('',#225,.T.);
#137=EDGE_LOOP('',(#817,#818,#819,#820,#821,#822,#823));
#138=EDGE_LOOP('',(#824,#825,#826,#827,#828,#829,#830));
#139=EDGE_LOOP('',(#831,#832,#833,#834,#835,#836,#837,#838));
#140=EDGE_LOOP('',(#839));
#141=EDGE_LOOP('',(#840));
#142=EDGE_LOOP('',(#841));
#143=EDGE_LOOP('',(#842));
#144=EDGE_LOOP('',(#843));
#145=EDGE_LOOP('',(#844));
#146=EDGE_LOOP('',(#845));
#147=EDGE_LOOP('',(#846));
#148=EDGE_LOOP('',(#847,#848,#849,#850));
#149=EDGE_LOOP('',(#851,#852,#853,#854));
#150=EDGE_LOOP('',(#855,#856,#857,#858,#859,#860,#861,#862));
#151=EDGE_LOOP('',(#863,#864,#865,#866));
#152=EDGE_LOOP('',(#867,#868,#869,#870));
#153=EDGE_LOOP('',(#871,#872,#873,#874));
#154=EDGE_LOOP('',(#875,#876,#877,#878));
#155=EDGE_LOOP('',(#879,#880,#881,#882));
#156=EDGE_LOOP('',(#883,#884,#885,#886));
#157=EDGE_LOOP('',(#887,#888,#889,#890));
#158=EDGE_LOOP('',(#891,#892,#893,#894));
#159=EDGE_LOOP('',(#895,#896,#897,#898));
#160=EDGE_LOOP('',(#899,#900,#901,#902));
#161=EDGE_LOOP('',(#903,#904,#905,#906));
#162=EDGE_LOOP('',(#907,#908,#909,#910));
#163=EDGE_LOOP('',(#911,#912,#913,#914));
#164=EDGE_LOOP('',(#915,#916,#917,#918));
#165=EDGE_LOOP('',(#919,#920,#921,#922));
#166=EDGE_LOOP('',(#923,#924,#925,#926));
#167=EDGE_LOOP('',(#927,#928,#929,#930));
#168=EDGE_LOOP('',(#931,#932,#933,#934));
#169=EDGE_LOOP('',(#935,#936,#937,#938));
#170=EDGE_LOOP('',(#939,#940,#941,#942));
#171=EDGE_LOOP('',(#943,#944,#945,#946));
#172=EDGE_LOOP('',(#947,#948,#949,#950));
#173=EDGE_LOOP('',(#951,#952,#953,#954));
#174=EDGE_LOOP('',(#955,#956,#957,#958));
#175=EDGE_LOOP('',(#959,#960,#961,#962));
#176=EDGE_LOOP('',(#963,#964,#965,#966));
#177=EDGE_LOOP('',(#967,#968,#969,#970));
#178=EDGE_LOOP('',(#971,#972,#973,#974));
#179=EDGE_LOOP('',(#975,#976,#977,#978));
#180=EDGE_LOOP('',(#979,#980,#981,#982));
#181=EDGE_LOOP('',(#983,#984,#985,#986));
#182=EDGE_LOOP('',(#987,#988,#989,#990));
#183=EDGE_LOOP('',(#991,#992,#993,#994));
#184=EDGE_LOOP('',(#995,#996,#997,#998));
#185=EDGE_LOOP('',(#999,#1000,#1001,#1002));
#186=EDGE_LOOP('',(#1003,#1004,#1005,#1006));
#187=EDGE_LOOP('',(#1007,#1008,#1009,#1010,#1011,#1012,#1013,#1014));
#188=EDGE_LOOP('',(#1015,#1016,#1017,#1018,#1019,#1020,#1021,#1022));
#189=EDGE_LOOP('',(#1023,#1024,#1025,#1026,#1027,#1028,#1029,#1030));
#190=EDGE_LOOP('',(#1031,#1032,#1033,#1034));
#191=EDGE_LOOP('',(#1035,#1036,#1037,#1038,#1039,#1040,#1041,#1042));
#192=EDGE_LOOP('',(#1043));
#193=EDGE_LOOP('',(#1044));
#194=EDGE_LOOP('',(#1045));
#195=EDGE_LOOP('',(#1046));
#196=EDGE_LOOP('',(#1047));
#197=EDGE_LOOP('',(#1048));
#198=EDGE_LOOP('',(#1049));
#199=EDGE_LOOP('',(#1050));
#200=EDGE_LOOP('',(#1051,#1052,#1053,#1054));
#201=EDGE_LOOP('',(#1055,#1056,#1057,#1058));
#202=EDGE_LOOP('',(#1059,#1060,#1061,#1062,#1063,#1064,#1065,#1066));
#203=EDGE_LOOP('',(#1067,#1068,#1069,#1070,#1071,#1072,#1073,#1074));
#204=EDGE_LOOP('',(#1075,#1076,#1077,#1078,#1079,#1080,#1081,#1082));
#205=EDGE_LOOP('',(#1083,#1084,#1085,#1086));
#206=EDGE_LOOP('',(#1087,#1088,#1089,#1090));
#207=EDGE_LOOP('',(#1091,#1092,#1093,#1094));
#208=EDGE_LOOP('',(#1095,#1096,#1097,#1098));
#209=EDGE_LOOP('',(#1099,#1100,#1101,#1102));
#210=EDGE_LOOP('',(#1103,#1104));
#211=EDGE_LOOP('',(#1105,#1106));
#212=EDGE_LOOP('',(#1107,#1108));
#213=EDGE_LOOP('',(#1109,#1110));
#214=EDGE_LOOP('',(#1111,#1112,#1113,#1114));
#215=EDGE_LOOP('',(#1115,#1116,#1117,#1118));
#216=EDGE_LOOP('',(#1119,#1120,#1121,#1122));
#217=EDGE_LOOP('',(#1123,#1124,#1125,#1126));
#218=EDGE_LOOP('',(#1127,#1128,#1129,#1130));
#219=EDGE_LOOP('',(#1131,#1132,#1133,#1134,#1135,#1136,#1137,#1138));
#220=EDGE_LOOP('',(#1139,#1140,#1141,#1142));
#221=EDGE_LOOP('',(#1143,#1144,#1145,#1146));
#222=EDGE_LOOP('',(#1147,#1148,#1149,#1150));
#223=EDGE_LOOP('',(#1151,#1152,#1153,#1154));
#224=EDGE_LOOP('',(#1155,#1156,#1157,#1158));
#225=EDGE_LOOP('',(#1159,#1160,#1161,#1162,#1163,#1164,#1165,#1166));
#226=CIRCLE('',#1282,5.);
#227=CIRCLE('',#1284,5.);
#228=CIRCLE('',#1286,1.41421358344652);
#229=CIRCLE('',#1287,1.41421358344652);
#230=CIRCLE('',#1288,0.549999987706542);
#231=CIRCLE('',#1289,0.499999988824129);
#232=CIRCLE('',#1290,0.499999988824129);
#233=CIRCLE('',#1291,0.549999987706542);
#234=CIRCLE('',#1292,0.499999988824129);
#235=CIRCLE('',#1293,0.499999988824129);
#236=CIRCLE('',#1300,0.499999988824129);
#237=CIRCLE('',#1302,0.499999988824129);
#238=CIRCLE('',#1304,0.549999987706542);
#239=CIRCLE('',#1306,0.499999988824129);
#240=CIRCLE('',#1308,0.499999988824129);
#241=CIRCLE('',#1310,0.549999987706542);
#242=CIRCLE('',#1312,1.41421358344652);
#243=CIRCLE('',#1314,1.41421358344652);
#244=CIRCLE('',#1317,0.499999999999995);
#245=CIRCLE('',#1318,0.499999999999995);
#246=CIRCLE('',#1321,0.499999999999998);
#247=CIRCLE('',#1322,0.499999999999998);
#248=CIRCLE('',#1325,0.499999999999995);
#249=CIRCLE('',#1326,0.499999999999995);
#250=CIRCLE('',#1329,0.500000000000005);
#251=CIRCLE('',#1330,0.500000000000005);
#252=CIRCLE('',#1333,0.499999999999996);
#253=CIRCLE('',#1334,0.499999999999996);
#254=CIRCLE('',#1337,0.500000000000006);
#255=CIRCLE('',#1338,0.500000000000006);
#256=CIRCLE('',#1341,0.499999999999998);
#257=CIRCLE('',#1342,0.499999999999998);
#258=CIRCLE('',#1345,0.499999999999992);
#259=CIRCLE('',#1346,0.499999999999992);
#260=CIRCLE('',#1348,0.500000000000002);
#261=CIRCLE('',#1349,0.500000000000002);
#262=CIRCLE('',#1352,0.500000000000001);
#263=CIRCLE('',#1353,0.500000000000001);
#264=CIRCLE('',#1356,0.500000000000001);
#265=CIRCLE('',#1357,0.500000000000001);
#266=CIRCLE('',#1360,0.500000000000004);
#267=CIRCLE('',#1361,0.500000000000004);
#268=CIRCLE('',#1376,0.499999999999992);
#269=CIRCLE('',#1377,0.499999999999992);
#270=CIRCLE('',#1381,0.500000000000005);
#271=CIRCLE('',#1383,0.500000000000005);
#272=LINE('',#1759,#399);
#273=LINE('',#1761,#400);
#274=LINE('',#1763,#401);
#275=LINE('',#1765,#402);
#276=LINE('',#1767,#403);
#277=LINE('',#1770,#404);
#278=LINE('',#1774,#405);
#279=LINE('',#1776,#406);
#280=LINE('',#1780,#407);
#281=LINE('',#1782,#408);
#282=LINE('',#1784,#409);
#283=LINE('',#1785,#410);
#284=LINE('',#1788,#411);
#285=LINE('',#1790,#412);
#286=LINE('',#1791,#413);
#287=LINE('',#1793,#414);
#288=LINE('',#1795,#415);
#289=LINE('',#1796,#416);
#290=LINE('',#1815,#417);
#291=LINE('',#1816,#418);
#292=LINE('',#1819,#419);
#293=LINE('',#1820,#420);
#294=LINE('',#1823,#421);
#295=LINE('',#1825,#422);
#296=LINE('',#1826,#423);
#297=LINE('',#1828,#424);
#298=LINE('',#1829,#425);
#299=LINE('',#1832,#426);
#300=LINE('',#1835,#427);
#301=LINE('',#1839,#428);
#302=LINE('',#1843,#429);
#303=LINE('',#1847,#430);
#304=LINE('',#1851,#431);
#305=LINE('',#1855,#432);
#306=LINE('',#1859,#433);
#307=LINE('',#1863,#434);
#308=LINE('',#1867,#435);
#309=LINE('',#1871,#436);
#310=LINE('',#1873,#437);
#311=LINE('',#1875,#438);
#312=LINE('',#1876,#439);
#313=LINE('',#1881,#440);
#314=LINE('',#1885,#441);
#315=LINE('',#1887,#442);
#316=LINE('',#1888,#443);
#317=LINE('',#1893,#444);
#318=LINE('',#1897,#445);
#319=LINE('',#1899,#446);
#320=LINE('',#1900,#447);
#321=LINE('',#1905,#448);
#322=LINE('',#1909,#449);
#323=LINE('',#1911,#450);
#324=LINE('',#1912,#451);
#325=LINE('',#1919,#452);
#326=LINE('',#1921,#453);
#327=LINE('',#1923,#454);
#328=LINE('',#1924,#455);
#329=LINE('',#1929,#456);
#330=LINE('',#1933,#457);
#331=LINE('',#1935,#458);
#332=LINE('',#1936,#459);
#333=LINE('',#1941,#460);
#334=LINE('',#1945,#461);
#335=LINE('',#1947,#462);
#336=LINE('',#1948,#463);
#337=LINE('',#1953,#464);
#338=LINE('',#1957,#465);
#339=LINE('',#1959,#466);
#340=LINE('',#1960,#467);
#341=LINE('',#1969,#468);
#342=LINE('',#1972,#469);
#343=LINE('',#1975,#470);
#344=LINE('',#1977,#471);
#345=LINE('',#1978,#472);
#346=LINE('',#1983,#473);
#347=LINE('',#1987,#474);
#348=LINE('',#1989,#475);
#349=LINE('',#1990,#476);
#350=LINE('',#1995,#477);
#351=LINE('',#1999,#478);
#352=LINE('',#2001,#479);
#353=LINE('',#2002,#480);
#354=LINE('',#2007,#481);
#355=LINE('',#2010,#482);
#356=LINE('',#2011,#483);
#357=LINE('',#2014,#484);
#358=LINE('',#2017,#485);
#359=LINE('',#2019,#486);
#360=LINE('',#2020,#487);
#361=LINE('',#2022,#488);
#362=LINE('',#2023,#489);
#363=LINE('',#2027,#490);
#364=LINE('',#2028,#491);
#365=LINE('',#2030,#492);
#366=LINE('',#2033,#493);
#367=LINE('',#2039,#494);
#368=LINE('',#2041,#495);
#369=LINE('',#2043,#496);
#370=LINE('',#2044,#497);
#371=LINE('',#2053,#498);
#372=LINE('',#2059,#499);
#373=LINE('',#2061,#500);
#374=LINE('',#2062,#501);
#375=LINE('',#2067,#502);
#376=LINE('',#2069,#503);
#377=LINE('',#2071,#504);
#378=LINE('',#2072,#505);
#379=LINE('',#2076,#506);
#380=LINE('',#2078,#507);
#381=LINE('',#2080,#508);
#382=LINE('',#2081,#509);
#383=LINE('',#2084,#510);
#384=LINE('',#2086,#511);
#385=LINE('',#2087,#512);
#386=LINE('',#2090,#513);
#387=LINE('',#2091,#514);
#388=LINE('',#2093,#515);
#389=LINE('',#2095,#516);
#390=LINE('',#2096,#517);
#391=LINE('',#2099,#518);
#392=LINE('',#2100,#519);
#393=LINE('',#2103,#520);
#394=LINE('',#2104,#521);
#395=LINE('',#2107,#522);
#396=LINE('',#2108,#523);
#397=LINE('',#2110,#524);
#398=LINE('',#2112,#525);
#399=VECTOR('',#1400,10.);
#400=VECTOR('',#1401,10.);
#401=VECTOR('',#1402,10.);
#402=VECTOR('',#1403,10.);
#403=VECTOR('',#1404,10.);
#404=VECTOR('',#1407,10.);
#405=VECTOR('',#1410,10.);
#406=VECTOR('',#1411,10.);
#407=VECTOR('',#1414,10.);
#408=VECTOR('',#1415,10.);
#409=VECTOR('',#1416,10.);
#410=VECTOR('',#1417,10.);
#411=VECTOR('',#1420,10.);
#412=VECTOR('',#1421,10.);
#413=VECTOR('',#1422,10.);
#414=VECTOR('',#1423,10.);
#415=VECTOR('',#1424,10.);
#416=VECTOR('',#1425,10.);
#417=VECTOR('',#1444,10.);
#418=VECTOR('',#1445,10.);
#419=VECTOR('',#1448,10.);
#420=VECTOR('',#1449,10.);
#421=VECTOR('',#1452,10.);
#422=VECTOR('',#1453,10.);
#423=VECTOR('',#1454,10.);
#424=VECTOR('',#1455,10.);
#425=VECTOR('',#1456,10.);
#426=VECTOR('',#1459,10.);
#427=VECTOR('',#1462,10.);
#428=VECTOR('',#1467,0.499999988824129);
#429=VECTOR('',#1472,0.499999988824129);
#430=VECTOR('',#1477,0.549999987706542);
#431=VECTOR('',#1482,0.499999988824129);
#432=VECTOR('',#1487,0.499999988824129);
#433=VECTOR('',#1492,0.549999987706542);
#434=VECTOR('',#1497,1.41421358344652);
#435=VECTOR('',#1502,1.41421358344652);
#436=VECTOR('',#1505,10.);
#437=VECTOR('',#1506,10.);
#438=VECTOR('',#1507,10.);
#439=VECTOR('',#1508,10.);
#440=VECTOR('',#1513,10.);
#441=VECTOR('',#1518,10.);
#442=VECTOR('',#1519,10.);
#443=VECTOR('',#1520,10.);
#444=VECTOR('',#1525,10.);
#445=VECTOR('',#1530,10.);
#446=VECTOR('',#1531,10.);
#447=VECTOR('',#1532,10.);
#448=VECTOR('',#1537,10.);
#449=VECTOR('',#1542,10.);
#450=VECTOR('',#1543,10.);
#451=VECTOR('',#1544,10.);
#452=VECTOR('',#1553,10.);
#453=VECTOR('',#1554,10.);
#454=VECTOR('',#1555,10.);
#455=VECTOR('',#1556,10.);
#456=VECTOR('',#1561,10.);
#457=VECTOR('',#1566,10.);
#458=VECTOR('',#1567,10.);
#459=VECTOR('',#1568,10.);
#460=VECTOR('',#1573,10.);
#461=VECTOR('',#1578,10.);
#462=VECTOR('',#1579,10.);
#463=VECTOR('',#1580,10.);
#464=VECTOR('',#1585,10.);
#465=VECTOR('',#1590,10.);
#466=VECTOR('',#1591,10.);
#467=VECTOR('',#1592,10.);
#468=VECTOR('',#1603,10.);
#469=VECTOR('',#1606,10.);
#470=VECTOR('',#1609,10.);
#471=VECTOR('',#1610,10.);
#472=VECTOR('',#1611,10.);
#473=VECTOR('',#1616,10.);
#474=VECTOR('',#1621,10.);
#475=VECTOR('',#1622,10.);
#476=VECTOR('',#1623,10.);
#477=VECTOR('',#1628,10.);
#478=VECTOR('',#1633,10.);
#479=VECTOR('',#1634,10.);
#480=VECTOR('',#1635,10.);
#481=VECTOR('',#1640,10.);
#482=VECTOR('',#1645,10.);
#483=VECTOR('',#1646,10.);
#484=VECTOR('',#1649,10.);
#485=VECTOR('',#1652,10.);
#486=VECTOR('',#1655,10.);
#487=VECTOR('',#1656,10.);
#488=VECTOR('',#1659,10.);
#489=VECTOR('',#1660,10.);
#490=VECTOR('',#1665,10.);
#491=VECTOR('',#1666,10.);
#492=VECTOR('',#1669,10.);
#493=VECTOR('',#1674,10.);
#494=VECTOR('',#1681,10.);
#495=VECTOR('',#1682,10.);
#496=VECTOR('',#1683,10.);
#497=VECTOR('',#1684,10.);
#498=VECTOR('',#1697,10.);
#499=VECTOR('',#1704,10.);
#500=VECTOR('',#1707,10.);
#501=VECTOR('',#1708,10.);
#502=VECTOR('',#1713,10.);
#503=VECTOR('',#1714,10.);
#504=VECTOR('',#1715,10.);
#505=VECTOR('',#1716,10.);
#506=VECTOR('',#1719,10.);
#507=VECTOR('',#1720,10.);
#508=VECTOR('',#1721,10.);
#509=VECTOR('',#1722,10.);
#510=VECTOR('',#1725,10.);
#511=VECTOR('',#1726,10.);
#512=VECTOR('',#1727,10.);
#513=VECTOR('',#1730,10.);
#514=VECTOR('',#1731,10.);
#515=VECTOR('',#1732,10.);
#516=VECTOR('',#1733,10.);
#517=VECTOR('',#1734,10.);
#518=VECTOR('',#1737,10.);
#519=VECTOR('',#1738,10.);
#520=VECTOR('',#1741,10.);
#521=VECTOR('',#1742,10.);
#522=VECTOR('',#1745,10.);
#523=VECTOR('',#1746,10.);
#524=VECTOR('',#1749,10.);
#525=VECTOR('',#1752,10.);
#526=VERTEX_POINT('',#1757);
#527=VERTEX_POINT('',#1758);
#528=VERTEX_POINT('',#1760);
#529=VERTEX_POINT('',#1762);
#530=VERTEX_POINT('',#1764);
#531=VERTEX_POINT('',#1766);
#532=VERTEX_POINT('',#1768);
#533=VERTEX_POINT('',#1772);
#534=VERTEX_POINT('',#1773);
#535=VERTEX_POINT('',#1775);
#536=VERTEX_POINT('',#1777);
#537=VERTEX_POINT('',#1779);
#538=VERTEX_POINT('',#1781);
#539=VERTEX_POINT('',#1783);
#540=VERTEX_POINT('',#1787);
#541=VERTEX_POINT('',#1789);
#542=VERTEX_POINT('',#1792);
#543=VERTEX_POINT('',#1794);
#544=VERTEX_POINT('',#1797);
#545=VERTEX_POINT('',#1799);
#546=VERTEX_POINT('',#1801);
#547=VERTEX_POINT('',#1803);
#548=VERTEX_POINT('',#1805);
#549=VERTEX_POINT('',#1807);
#550=VERTEX_POINT('',#1809);
#551=VERTEX_POINT('',#1811);
#552=VERTEX_POINT('',#1814);
#553=VERTEX_POINT('',#1818);
#554=VERTEX_POINT('',#1822);
#555=VERTEX_POINT('',#1824);
#556=VERTEX_POINT('',#1827);
#557=VERTEX_POINT('',#1831);
#558=VERTEX_POINT('',#1833);
#559=VERTEX_POINT('',#1837);
#560=VERTEX_POINT('',#1841);
#561=VERTEX_POINT('',#1845);
#562=VERTEX_POINT('',#1849);
#563=VERTEX_POINT('',#1853);
#564=VERTEX_POINT('',#1857);
#565=VERTEX_POINT('',#1861);
#566=VERTEX_POINT('',#1865);
#567=VERTEX_POINT('',#1869);
#568=VERTEX_POINT('',#1870);
#569=VERTEX_POINT('',#1872);
#570=VERTEX_POINT('',#1874);
#571=VERTEX_POINT('',#1878);
#572=VERTEX_POINT('',#1880);
#573=VERTEX_POINT('',#1884);
#574=VERTEX_POINT('',#1886);
#575=VERTEX_POINT('',#1890);
#576=VERTEX_POINT('',#1892);
#577=VERTEX_POINT('',#1896);
#578=VERTEX_POINT('',#1898);
#579=VERTEX_POINT('',#1902);
#580=VERTEX_POINT('',#1904);
#581=VERTEX_POINT('',#1908);
#582=VERTEX_POINT('',#1910);
#583=VERTEX_POINT('',#1917);
#584=VERTEX_POINT('',#1918);
#585=VERTEX_POINT('',#1920);
#586=VERTEX_POINT('',#1922);
#587=VERTEX_POINT('',#1926);
#588=VERTEX_POINT('',#1928);
#589=VERTEX_POINT('',#1932);
#590=VERTEX_POINT('',#1934);
#591=VERTEX_POINT('',#1938);
#592=VERTEX_POINT('',#1940);
#593=VERTEX_POINT('',#1944);
#594=VERTEX_POINT('',#1946);
#595=VERTEX_POINT('',#1950);
#596=VERTEX_POINT('',#1952);
#597=VERTEX_POINT('',#1956);
#598=VERTEX_POINT('',#1958);
#599=VERTEX_POINT('',#1965);
#600=VERTEX_POINT('',#1966);
#601=VERTEX_POINT('',#1968);
#602=VERTEX_POINT('',#1970);
#603=VERTEX_POINT('',#1974);
#604=VERTEX_POINT('',#1976);
#605=VERTEX_POINT('',#1980);
#606=VERTEX_POINT('',#1982);
#607=VERTEX_POINT('',#1986);
#608=VERTEX_POINT('',#1988);
#609=VERTEX_POINT('',#1992);
#610=VERTEX_POINT('',#1994);
#611=VERTEX_POINT('',#1998);
#612=VERTEX_POINT('',#2000);
#613=VERTEX_POINT('',#2004);
#614=VERTEX_POINT('',#2006);
#615=VERTEX_POINT('',#2013);
#616=VERTEX_POINT('',#2015);
#617=VERTEX_POINT('',#2026);
#618=VERTEX_POINT('',#2037);
#619=VERTEX_POINT('',#2038);
#620=VERTEX_POINT('',#2040);
#621=VERTEX_POINT('',#2042);
#622=VERTEX_POINT('',#2051);
#623=VERTEX_POINT('',#2052);
#624=VERTEX_POINT('',#2056);
#625=VERTEX_POINT('',#2057);
#626=VERTEX_POINT('',#2065);
#627=VERTEX_POINT('',#2066);
#628=VERTEX_POINT('',#2068);
#629=VERTEX_POINT('',#2070);
#630=VERTEX_POINT('',#2074);
#631=VERTEX_POINT('',#2075);
#632=VERTEX_POINT('',#2077);
#633=VERTEX_POINT('',#2079);
#634=VERTEX_POINT('',#2083);
#635=VERTEX_POINT('',#2085);
#636=VERTEX_POINT('',#2089);
#637=VERTEX_POINT('',#2092);
#638=VERTEX_POINT('',#2094);
#639=VERTEX_POINT('',#2098);
#640=VERTEX_POINT('',#2102);
#641=VERTEX_POINT('',#2106);
#642=EDGE_CURVE('',#526,#527,#272,.T.);
#643=EDGE_CURVE('',#528,#526,#273,.T.);
#644=EDGE_CURVE('',#529,#528,#274,.T.);
#645=EDGE_CURVE('',#530,#529,#275,.T.);
#646=EDGE_CURVE('',#531,#530,#276,.T.);
#647=EDGE_CURVE('',#532,#531,#226,.T.);
#648=EDGE_CURVE('',#527,#532,#277,.T.);
#649=EDGE_CURVE('',#533,#534,#278,.T.);
#650=EDGE_CURVE('',#535,#533,#279,.T.);
#651=EDGE_CURVE('',#536,#535,#227,.T.);
#652=EDGE_CURVE('',#537,#536,#280,.T.);
#653=EDGE_CURVE('',#538,#537,#281,.T.);
#654=EDGE_CURVE('',#539,#538,#282,.T.);
#655=EDGE_CURVE('',#534,#539,#283,.T.);
#656=EDGE_CURVE('',#540,#539,#284,.T.);
#657=EDGE_CURVE('',#541,#540,#285,.T.);
#658=EDGE_CURVE('',#528,#541,#286,.T.);
#659=EDGE_CURVE('',#542,#526,#287,.T.);
#660=EDGE_CURVE('',#543,#542,#288,.T.);
#661=EDGE_CURVE('',#534,#543,#289,.T.);
#662=EDGE_CURVE('',#544,#544,#228,.T.);
#663=EDGE_CURVE('',#545,#545,#229,.T.);
#664=EDGE_CURVE('',#546,#546,#230,.T.);
#665=EDGE_CURVE('',#547,#547,#231,.T.);
#666=EDGE_CURVE('',#548,#548,#232,.T.);
#667=EDGE_CURVE('',#549,#549,#233,.T.);
#668=EDGE_CURVE('',#550,#550,#234,.T.);
#669=EDGE_CURVE('',#551,#551,#235,.T.);
#670=EDGE_CURVE('',#552,#527,#290,.T.);
#671=EDGE_CURVE('',#542,#552,#291,.T.);
#672=EDGE_CURVE('',#553,#538,#292,.T.);
#673=EDGE_CURVE('',#553,#540,#293,.T.);
#674=EDGE_CURVE('',#537,#554,#294,.T.);
#675=EDGE_CURVE('',#554,#555,#295,.T.);
#676=EDGE_CURVE('',#555,#530,#296,.T.);
#677=EDGE_CURVE('',#529,#556,#297,.T.);
#678=EDGE_CURVE('',#556,#553,#298,.T.);
#679=EDGE_CURVE('',#531,#557,#299,.T.);
#680=EDGE_CURVE('',#557,#558,#21,.T.);
#681=EDGE_CURVE('',#558,#532,#300,.T.);
#682=EDGE_CURVE('',#559,#559,#236,.T.);
#683=EDGE_CURVE('',#559,#551,#301,.T.);
#684=EDGE_CURVE('',#560,#560,#237,.T.);
#685=EDGE_CURVE('',#560,#550,#302,.T.);
#686=EDGE_CURVE('',#561,#561,#238,.T.);
#687=EDGE_CURVE('',#561,#549,#303,.T.);
#688=EDGE_CURVE('',#562,#562,#239,.T.);
#689=EDGE_CURVE('',#562,#548,#304,.T.);
#690=EDGE_CURVE('',#563,#563,#240,.T.);
#691=EDGE_CURVE('',#563,#547,#305,.T.);
#692=EDGE_CURVE('',#564,#564,#241,.T.);
#693=EDGE_CURVE('',#564,#546,#306,.T.);
#694=EDGE_CURVE('',#565,#565,#242,.T.);
#695=EDGE_CURVE('',#565,#545,#307,.T.);
#696=EDGE_CURVE('',#566,#566,#243,.T.);
#697=EDGE_CURVE('',#566,#544,#308,.T.);
#698=EDGE_CURVE('',#567,#568,#309,.T.);
#699=EDGE_CURVE('',#567,#569,#310,.T.);
#700=EDGE_CURVE('',#570,#569,#311,.T.);
#701=EDGE_CURVE('',#568,#570,#312,.T.);
#702=EDGE_CURVE('',#571,#567,#244,.T.);
#703=EDGE_CURVE('',#571,#572,#313,.T.);
#704=EDGE_CURVE('',#569,#572,#245,.T.);
#705=EDGE_CURVE('',#573,#571,#314,.T.);
#706=EDGE_CURVE('',#573,#574,#315,.T.);
#707=EDGE_CURVE('',#572,#574,#316,.T.);
#708=EDGE_CURVE('',#575,#573,#246,.T.);
#709=EDGE_CURVE('',#575,#576,#317,.T.);
#710=EDGE_CURVE('',#574,#576,#247,.T.);
#711=EDGE_CURVE('',#577,#575,#318,.T.);
#712=EDGE_CURVE('',#577,#578,#319,.T.);
#713=EDGE_CURVE('',#576,#578,#320,.T.);
#714=EDGE_CURVE('',#579,#577,#248,.T.);
#715=EDGE_CURVE('',#579,#580,#321,.T.);
#716=EDGE_CURVE('',#578,#580,#249,.T.);
#717=EDGE_CURVE('',#581,#579,#322,.T.);
#718=EDGE_CURVE('',#581,#582,#323,.T.);
#719=EDGE_CURVE('',#580,#582,#324,.T.);
#720=EDGE_CURVE('',#568,#581,#250,.T.);
#721=EDGE_CURVE('',#582,#570,#251,.T.);
#722=EDGE_CURVE('',#583,#584,#325,.T.);
#723=EDGE_CURVE('',#583,#585,#326,.T.);
#724=EDGE_CURVE('',#586,#585,#327,.T.);
#725=EDGE_CURVE('',#584,#586,#328,.T.);
#726=EDGE_CURVE('',#587,#583,#252,.T.);
#727=EDGE_CURVE('',#587,#588,#329,.T.);
#728=EDGE_CURVE('',#585,#588,#253,.T.);
#729=EDGE_CURVE('',#589,#587,#330,.T.);
#730=EDGE_CURVE('',#589,#590,#331,.T.);
#731=EDGE_CURVE('',#588,#590,#332,.T.);
#732=EDGE_CURVE('',#591,#589,#254,.T.);
#733=EDGE_CURVE('',#591,#592,#333,.T.);
#734=EDGE_CURVE('',#590,#592,#255,.T.);
#735=EDGE_CURVE('',#593,#591,#334,.T.);
#736=EDGE_CURVE('',#593,#594,#335,.T.);
#737=EDGE_CURVE('',#592,#594,#336,.T.);
#738=EDGE_CURVE('',#595,#593,#256,.T.);
#739=EDGE_CURVE('',#595,#596,#337,.T.);
#740=EDGE_CURVE('',#594,#596,#257,.T.);
#741=EDGE_CURVE('',#597,#595,#338,.T.);
#742=EDGE_CURVE('',#597,#598,#339,.T.);
#743=EDGE_CURVE('',#596,#598,#340,.T.);
#744=EDGE_CURVE('',#584,#597,#258,.T.);
#745=EDGE_CURVE('',#598,#586,#259,.T.);
#746=EDGE_CURVE('',#599,#600,#260,.T.);
#747=EDGE_CURVE('',#599,#601,#341,.T.);
#748=EDGE_CURVE('',#602,#601,#261,.T.);
#749=EDGE_CURVE('',#600,#602,#342,.T.);
#750=EDGE_CURVE('',#603,#599,#343,.T.);
#751=EDGE_CURVE('',#603,#604,#344,.T.);
#752=EDGE_CURVE('',#601,#604,#345,.T.);
#753=EDGE_CURVE('',#605,#603,#262,.T.);
#754=EDGE_CURVE('',#605,#606,#346,.T.);
#755=EDGE_CURVE('',#604,#606,#263,.T.);
#756=EDGE_CURVE('',#607,#605,#347,.T.);
#757=EDGE_CURVE('',#607,#608,#348,.T.);
#758=EDGE_CURVE('',#606,#608,#349,.T.);
#759=EDGE_CURVE('',#609,#607,#264,.T.);
#760=EDGE_CURVE('',#609,#610,#350,.T.);
#761=EDGE_CURVE('',#608,#610,#265,.T.);
#762=EDGE_CURVE('',#611,#609,#351,.T.);
#763=EDGE_CURVE('',#611,#612,#352,.T.);
#764=EDGE_CURVE('',#610,#612,#353,.T.);
#765=EDGE_CURVE('',#613,#611,#266,.T.);
#766=EDGE_CURVE('',#613,#614,#354,.T.);
#767=EDGE_CURVE('',#612,#614,#267,.T.);
#768=EDGE_CURVE('',#600,#613,#355,.T.);
#769=EDGE_CURVE('',#614,#602,#356,.T.);
#770=EDGE_CURVE('',#535,#615,#357,.T.);
#771=EDGE_CURVE('',#615,#616,#22,.T.);
#772=EDGE_CURVE('',#616,#536,#358,.T.);
#773=EDGE_CURVE('',#615,#558,#359,.T.);
#774=EDGE_CURVE('',#557,#616,#360,.T.);
#775=EDGE_CURVE('',#557,#555,#361,.T.);
#776=EDGE_CURVE('',#616,#554,#362,.T.);
#777=EDGE_CURVE('',#533,#617,#363,.T.);
#778=EDGE_CURVE('',#617,#552,#364,.T.);
#779=EDGE_CURVE('',#556,#541,#365,.T.);
#780=EDGE_CURVE('',#543,#617,#366,.T.);
#781=EDGE_CURVE('',#618,#619,#367,.T.);
#782=EDGE_CURVE('',#618,#620,#368,.T.);
#783=EDGE_CURVE('',#621,#620,#369,.T.);
#784=EDGE_CURVE('',#619,#621,#370,.T.);
#785=EDGE_CURVE('',#619,#618,#268,.T.);
#786=EDGE_CURVE('',#620,#621,#269,.T.);
#787=EDGE_CURVE('',#622,#623,#371,.T.);
#788=EDGE_CURVE('',#623,#622,#270,.T.);
#789=EDGE_CURVE('',#624,#625,#271,.T.);
#790=EDGE_CURVE('',#625,#624,#372,.T.);
#791=EDGE_CURVE('',#624,#622,#373,.T.);
#792=EDGE_CURVE('',#625,#623,#374,.T.);
#793=EDGE_CURVE('',#626,#627,#375,.T.);
#794=EDGE_CURVE('',#628,#626,#376,.T.);
#795=EDGE_CURVE('',#629,#628,#377,.T.);
#796=EDGE_CURVE('',#627,#629,#378,.T.);
#797=EDGE_CURVE('',#630,#631,#379,.T.);
#798=EDGE_CURVE('',#632,#630,#380,.T.);
#799=EDGE_CURVE('',#633,#632,#381,.T.);
#800=EDGE_CURVE('',#631,#633,#382,.T.);
#801=EDGE_CURVE('',#634,#632,#383,.T.);
#802=EDGE_CURVE('',#634,#635,#384,.T.);
#803=EDGE_CURVE('',#633,#635,#385,.T.);
#804=EDGE_CURVE('',#635,#636,#386,.T.);
#805=EDGE_CURVE('',#636,#627,#387,.T.);
#806=EDGE_CURVE('',#629,#637,#388,.T.);
#807=EDGE_CURVE('',#637,#638,#389,.T.);
#808=EDGE_CURVE('',#638,#631,#390,.T.);
#809=EDGE_CURVE('',#628,#639,#391,.T.);
#810=EDGE_CURVE('',#639,#637,#392,.T.);
#811=EDGE_CURVE('',#640,#634,#393,.T.);
#812=EDGE_CURVE('',#640,#636,#394,.T.);
#813=EDGE_CURVE('',#641,#638,#395,.T.);
#814=EDGE_CURVE('',#641,#630,#396,.T.);
#815=EDGE_CURVE('',#639,#641,#397,.T.);
#816=EDGE_CURVE('',#626,#640,#398,.T.);
#817=ORIENTED_EDGE('',*,*,#642,.F.);
#818=ORIENTED_EDGE('',*,*,#643,.F.);
#819=ORIENTED_EDGE('',*,*,#644,.F.);
#820=ORIENTED_EDGE('',*,*,#645,.F.);
#821=ORIENTED_EDGE('',*,*,#646,.F.);
#822=ORIENTED_EDGE('',*,*,#647,.F.);
#823=ORIENTED_EDGE('',*,*,#648,.F.);
#824=ORIENTED_EDGE('',*,*,#649,.F.);
#825=ORIENTED_EDGE('',*,*,#650,.F.);
#826=ORIENTED_EDGE('',*,*,#651,.F.);
#827=ORIENTED_EDGE('',*,*,#652,.F.);
#828=ORIENTED_EDGE('',*,*,#653,.F.);
#829=ORIENTED_EDGE('',*,*,#654,.F.);
#830=ORIENTED_EDGE('',*,*,#655,.F.);
#831=ORIENTED_EDGE('',*,*,#655,.T.);
#832=ORIENTED_EDGE('',*,*,#656,.F.);
#833=ORIENTED_EDGE('',*,*,#657,.F.);
#834=ORIENTED_EDGE('',*,*,#658,.F.);
#835=ORIENTED_EDGE('',*,*,#643,.T.);
#836=ORIENTED_EDGE('',*,*,#659,.F.);
#837=ORIENTED_EDGE('',*,*,#660,.F.);
#838=ORIENTED_EDGE('',*,*,#661,.F.);
#839=ORIENTED_EDGE('',*,*,#662,.T.);
#840=ORIENTED_EDGE('',*,*,#663,.T.);
#841=ORIENTED_EDGE('',*,*,#664,.T.);
#842=ORIENTED_EDGE('',*,*,#665,.T.);
#843=ORIENTED_EDGE('',*,*,#666,.T.);
#844=ORIENTED_EDGE('',*,*,#667,.T.);
#845=ORIENTED_EDGE('',*,*,#668,.T.);
#846=ORIENTED_EDGE('',*,*,#669,.T.);
#847=ORIENTED_EDGE('',*,*,#642,.T.);
#848=ORIENTED_EDGE('',*,*,#670,.F.);
#849=ORIENTED_EDGE('',*,*,#671,.F.);
#850=ORIENTED_EDGE('',*,*,#659,.T.);
#851=ORIENTED_EDGE('',*,*,#654,.T.);
#852=ORIENTED_EDGE('',*,*,#672,.F.);
#853=ORIENTED_EDGE('',*,*,#673,.T.);
#854=ORIENTED_EDGE('',*,*,#656,.T.);
#855=ORIENTED_EDGE('',*,*,#653,.T.);
#856=ORIENTED_EDGE('',*,*,#674,.T.);
#857=ORIENTED_EDGE('',*,*,#675,.T.);
#858=ORIENTED_EDGE('',*,*,#676,.T.);
#859=ORIENTED_EDGE('',*,*,#645,.T.);
#860=ORIENTED_EDGE('',*,*,#677,.T.);
#861=ORIENTED_EDGE('',*,*,#678,.T.);
#862=ORIENTED_EDGE('',*,*,#672,.T.);
#863=ORIENTED_EDGE('',*,*,#647,.T.);
#864=ORIENTED_EDGE('',*,*,#679,.T.);
#865=ORIENTED_EDGE('',*,*,#680,.T.);
#866=ORIENTED_EDGE('',*,*,#681,.T.);
#867=ORIENTED_EDGE('',*,*,#682,.F.);
#868=ORIENTED_EDGE('',*,*,#683,.T.);
#869=ORIENTED_EDGE('',*,*,#669,.F.);
#870=ORIENTED_EDGE('',*,*,#683,.F.);
#871=ORIENTED_EDGE('',*,*,#684,.F.);
#872=ORIENTED_EDGE('',*,*,#685,.T.);
#873=ORIENTED_EDGE('',*,*,#668,.F.);
#874=ORIENTED_EDGE('',*,*,#685,.F.);
#875=ORIENTED_EDGE('',*,*,#686,.F.);
#876=ORIENTED_EDGE('',*,*,#687,.T.);
#877=ORIENTED_EDGE('',*,*,#667,.F.);
#878=ORIENTED_EDGE('',*,*,#687,.F.);
#879=ORIENTED_EDGE('',*,*,#688,.F.);
#880=ORIENTED_EDGE('',*,*,#689,.T.);
#881=ORIENTED_EDGE('',*,*,#666,.F.);
#882=ORIENTED_EDGE('',*,*,#689,.F.);
#883=ORIENTED_EDGE('',*,*,#690,.F.);
#884=ORIENTED_EDGE('',*,*,#691,.T.);
#885=ORIENTED_EDGE('',*,*,#665,.F.);
#886=ORIENTED_EDGE('',*,*,#691,.F.);
#887=ORIENTED_EDGE('',*,*,#692,.F.);
#888=ORIENTED_EDGE('',*,*,#693,.T.);
#889=ORIENTED_EDGE('',*,*,#664,.F.);
#890=ORIENTED_EDGE('',*,*,#693,.F.);
#891=ORIENTED_EDGE('',*,*,#694,.F.);
#892=ORIENTED_EDGE('',*,*,#695,.T.);
#893=ORIENTED_EDGE('',*,*,#663,.F.);
#894=ORIENTED_EDGE('',*,*,#695,.F.);
#895=ORIENTED_EDGE('',*,*,#696,.F.);
#896=ORIENTED_EDGE('',*,*,#697,.T.);
#897=ORIENTED_EDGE('',*,*,#662,.F.);
#898=ORIENTED_EDGE('',*,*,#697,.F.);
#899=ORIENTED_EDGE('',*,*,#698,.F.);
#900=ORIENTED_EDGE('',*,*,#699,.T.);
#901=ORIENTED_EDGE('',*,*,#700,.F.);
#902=ORIENTED_EDGE('',*,*,#701,.F.);
#903=ORIENTED_EDGE('',*,*,#702,.F.);
#904=ORIENTED_EDGE('',*,*,#703,.T.);
#905=ORIENTED_EDGE('',*,*,#704,.F.);
#906=ORIENTED_EDGE('',*,*,#699,.F.);
#907=ORIENTED_EDGE('',*,*,#705,.F.);
#908=ORIENTED_EDGE('',*,*,#706,.T.);
#909=ORIENTED_EDGE('',*,*,#707,.F.);
#910=ORIENTED_EDGE('',*,*,#703,.F.);
#911=ORIENTED_EDGE('',*,*,#708,.F.);
#912=ORIENTED_EDGE('',*,*,#709,.T.);
#913=ORIENTED_EDGE('',*,*,#710,.F.);
#914=ORIENTED_EDGE('',*,*,#706,.F.);
#915=ORIENTED_EDGE('',*,*,#711,.F.);
#916=ORIENTED_EDGE('',*,*,#712,.T.);
#917=ORIENTED_EDGE('',*,*,#713,.F.);
#918=ORIENTED_EDGE('',*,*,#709,.F.);
#919=ORIENTED_EDGE('',*,*,#714,.F.);
#920=ORIENTED_EDGE('',*,*,#715,.T.);
#921=ORIENTED_EDGE('',*,*,#716,.F.);
#922=ORIENTED_EDGE('',*,*,#712,.F.);
#923=ORIENTED_EDGE('',*,*,#717,.F.);
#924=ORIENTED_EDGE('',*,*,#718,.T.);
#925=ORIENTED_EDGE('',*,*,#719,.F.);
#926=ORIENTED_EDGE('',*,*,#715,.F.);
#927=ORIENTED_EDGE('',*,*,#720,.F.);
#928=ORIENTED_EDGE('',*,*,#701,.T.);
#929=ORIENTED_EDGE('',*,*,#721,.F.);
#930=ORIENTED_EDGE('',*,*,#718,.F.);
#931=ORIENTED_EDGE('',*,*,#722,.F.);
#932=ORIENTED_EDGE('',*,*,#723,.T.);
#933=ORIENTED_EDGE('',*,*,#724,.F.);
#934=ORIENTED_EDGE('',*,*,#725,.F.);
#935=ORIENTED_EDGE('',*,*,#726,.F.);
#936=ORIENTED_EDGE('',*,*,#727,.T.);
#937=ORIENTED_EDGE('',*,*,#728,.F.);
#938=ORIENTED_EDGE('',*,*,#723,.F.);
#939=ORIENTED_EDGE('',*,*,#729,.F.);
#940=ORIENTED_EDGE('',*,*,#730,.T.);
#941=ORIENTED_EDGE('',*,*,#731,.F.);
#942=ORIENTED_EDGE('',*,*,#727,.F.);
#943=ORIENTED_EDGE('',*,*,#732,.F.);
#944=ORIENTED_EDGE('',*,*,#733,.T.);
#945=ORIENTED_EDGE('',*,*,#734,.F.);
#946=ORIENTED_EDGE('',*,*,#730,.F.);
#947=ORIENTED_EDGE('',*,*,#735,.F.);
#948=ORIENTED_EDGE('',*,*,#736,.T.);
#949=ORIENTED_EDGE('',*,*,#737,.F.);
#950=ORIENTED_EDGE('',*,*,#733,.F.);
#951=ORIENTED_EDGE('',*,*,#738,.F.);
#952=ORIENTED_EDGE('',*,*,#739,.T.);
#953=ORIENTED_EDGE('',*,*,#740,.F.);
#954=ORIENTED_EDGE('',*,*,#736,.F.);
#955=ORIENTED_EDGE('',*,*,#741,.F.);
#956=ORIENTED_EDGE('',*,*,#742,.T.);
#957=ORIENTED_EDGE('',*,*,#743,.F.);
#958=ORIENTED_EDGE('',*,*,#739,.F.);
#959=ORIENTED_EDGE('',*,*,#744,.F.);
#960=ORIENTED_EDGE('',*,*,#725,.T.);
#961=ORIENTED_EDGE('',*,*,#745,.F.);
#962=ORIENTED_EDGE('',*,*,#742,.F.);
#963=ORIENTED_EDGE('',*,*,#746,.F.);
#964=ORIENTED_EDGE('',*,*,#747,.T.);
#965=ORIENTED_EDGE('',*,*,#748,.F.);
#966=ORIENTED_EDGE('',*,*,#749,.F.);
#967=ORIENTED_EDGE('',*,*,#750,.F.);
#968=ORIENTED_EDGE('',*,*,#751,.T.);
#969=ORIENTED_EDGE('',*,*,#752,.F.);
#970=ORIENTED_EDGE('',*,*,#747,.F.);
#971=ORIENTED_EDGE('',*,*,#753,.F.);
#972=ORIENTED_EDGE('',*,*,#754,.T.);
#973=ORIENTED_EDGE('',*,*,#755,.F.);
#974=ORIENTED_EDGE('',*,*,#751,.F.);
#975=ORIENTED_EDGE('',*,*,#756,.F.);
#976=ORIENTED_EDGE('',*,*,#757,.T.);
#977=ORIENTED_EDGE('',*,*,#758,.F.);
#978=ORIENTED_EDGE('',*,*,#754,.F.);
#979=ORIENTED_EDGE('',*,*,#759,.F.);
#980=ORIENTED_EDGE('',*,*,#760,.T.);
#981=ORIENTED_EDGE('',*,*,#761,.F.);
#982=ORIENTED_EDGE('',*,*,#757,.F.);
#983=ORIENTED_EDGE('',*,*,#762,.F.);
#984=ORIENTED_EDGE('',*,*,#763,.T.);
#985=ORIENTED_EDGE('',*,*,#764,.F.);
#986=ORIENTED_EDGE('',*,*,#760,.F.);
#987=ORIENTED_EDGE('',*,*,#765,.F.);
#988=ORIENTED_EDGE('',*,*,#766,.T.);
#989=ORIENTED_EDGE('',*,*,#767,.F.);
#990=ORIENTED_EDGE('',*,*,#763,.F.);
#991=ORIENTED_EDGE('',*,*,#768,.F.);
#992=ORIENTED_EDGE('',*,*,#749,.T.);
#993=ORIENTED_EDGE('',*,*,#769,.F.);
#994=ORIENTED_EDGE('',*,*,#766,.F.);
#995=ORIENTED_EDGE('',*,*,#651,.T.);
#996=ORIENTED_EDGE('',*,*,#770,.T.);
#997=ORIENTED_EDGE('',*,*,#771,.T.);
#998=ORIENTED_EDGE('',*,*,#772,.T.);
#999=ORIENTED_EDGE('',*,*,#773,.T.);
#1000=ORIENTED_EDGE('',*,*,#680,.F.);
#1001=ORIENTED_EDGE('',*,*,#774,.T.);
#1002=ORIENTED_EDGE('',*,*,#771,.F.);
#1003=ORIENTED_EDGE('',*,*,#774,.F.);
#1004=ORIENTED_EDGE('',*,*,#775,.T.);
#1005=ORIENTED_EDGE('',*,*,#675,.F.);
#1006=ORIENTED_EDGE('',*,*,#776,.F.);
#1007=ORIENTED_EDGE('',*,*,#698,.T.);
#1008=ORIENTED_EDGE('',*,*,#720,.T.);
#1009=ORIENTED_EDGE('',*,*,#717,.T.);
#1010=ORIENTED_EDGE('',*,*,#714,.T.);
#1011=ORIENTED_EDGE('',*,*,#711,.T.);
#1012=ORIENTED_EDGE('',*,*,#708,.T.);
#1013=ORIENTED_EDGE('',*,*,#705,.T.);
#1014=ORIENTED_EDGE('',*,*,#702,.T.);
#1015=ORIENTED_EDGE('',*,*,#722,.T.);
#1016=ORIENTED_EDGE('',*,*,#744,.T.);
#1017=ORIENTED_EDGE('',*,*,#741,.T.);
#1018=ORIENTED_EDGE('',*,*,#738,.T.);
#1019=ORIENTED_EDGE('',*,*,#735,.T.);
#1020=ORIENTED_EDGE('',*,*,#732,.T.);
#1021=ORIENTED_EDGE('',*,*,#729,.T.);
#1022=ORIENTED_EDGE('',*,*,#726,.T.);
#1023=ORIENTED_EDGE('',*,*,#746,.T.);
#1024=ORIENTED_EDGE('',*,*,#768,.T.);
#1025=ORIENTED_EDGE('',*,*,#765,.T.);
#1026=ORIENTED_EDGE('',*,*,#762,.T.);
#1027=ORIENTED_EDGE('',*,*,#759,.T.);
#1028=ORIENTED_EDGE('',*,*,#756,.T.);
#1029=ORIENTED_EDGE('',*,*,#753,.T.);
#1030=ORIENTED_EDGE('',*,*,#750,.T.);
#1031=ORIENTED_EDGE('',*,*,#646,.T.);
#1032=ORIENTED_EDGE('',*,*,#676,.F.);
#1033=ORIENTED_EDGE('',*,*,#775,.F.);
#1034=ORIENTED_EDGE('',*,*,#679,.F.);
#1035=ORIENTED_EDGE('',*,*,#650,.T.);
#1036=ORIENTED_EDGE('',*,*,#777,.T.);
#1037=ORIENTED_EDGE('',*,*,#778,.T.);
#1038=ORIENTED_EDGE('',*,*,#670,.T.);
#1039=ORIENTED_EDGE('',*,*,#648,.T.);
#1040=ORIENTED_EDGE('',*,*,#681,.F.);
#1041=ORIENTED_EDGE('',*,*,#773,.F.);
#1042=ORIENTED_EDGE('',*,*,#770,.F.);
#1043=ORIENTED_EDGE('',*,*,#696,.T.);
#1044=ORIENTED_EDGE('',*,*,#694,.T.);
#1045=ORIENTED_EDGE('',*,*,#692,.T.);
#1046=ORIENTED_EDGE('',*,*,#690,.T.);
#1047=ORIENTED_EDGE('',*,*,#688,.T.);
#1048=ORIENTED_EDGE('',*,*,#686,.T.);
#1049=ORIENTED_EDGE('',*,*,#684,.T.);
#1050=ORIENTED_EDGE('',*,*,#682,.T.);
#1051=ORIENTED_EDGE('',*,*,#644,.T.);
#1052=ORIENTED_EDGE('',*,*,#658,.T.);
#1053=ORIENTED_EDGE('',*,*,#779,.F.);
#1054=ORIENTED_EDGE('',*,*,#677,.F.);
#1055=ORIENTED_EDGE('',*,*,#678,.F.);
#1056=ORIENTED_EDGE('',*,*,#779,.T.);
#1057=ORIENTED_EDGE('',*,*,#657,.T.);
#1058=ORIENTED_EDGE('',*,*,#673,.F.);
#1059=ORIENTED_EDGE('',*,*,#700,.T.);
#1060=ORIENTED_EDGE('',*,*,#704,.T.);
#1061=ORIENTED_EDGE('',*,*,#707,.T.);
#1062=ORIENTED_EDGE('',*,*,#710,.T.);
#1063=ORIENTED_EDGE('',*,*,#713,.T.);
#1064=ORIENTED_EDGE('',*,*,#716,.T.);
#1065=ORIENTED_EDGE('',*,*,#719,.T.);
#1066=ORIENTED_EDGE('',*,*,#721,.T.);
#1067=ORIENTED_EDGE('',*,*,#724,.T.);
#1068=ORIENTED_EDGE('',*,*,#728,.T.);
#1069=ORIENTED_EDGE('',*,*,#731,.T.);
#1070=ORIENTED_EDGE('',*,*,#734,.T.);
#1071=ORIENTED_EDGE('',*,*,#737,.T.);
#1072=ORIENTED_EDGE('',*,*,#740,.T.);
#1073=ORIENTED_EDGE('',*,*,#743,.T.);
#1074=ORIENTED_EDGE('',*,*,#745,.T.);
#1075=ORIENTED_EDGE('',*,*,#748,.T.);
#1076=ORIENTED_EDGE('',*,*,#752,.T.);
#1077=ORIENTED_EDGE('',*,*,#755,.T.);
#1078=ORIENTED_EDGE('',*,*,#758,.T.);
#1079=ORIENTED_EDGE('',*,*,#761,.T.);
#1080=ORIENTED_EDGE('',*,*,#764,.T.);
#1081=ORIENTED_EDGE('',*,*,#767,.T.);
#1082=ORIENTED_EDGE('',*,*,#769,.T.);
#1083=ORIENTED_EDGE('',*,*,#649,.T.);
#1084=ORIENTED_EDGE('',*,*,#661,.T.);
#1085=ORIENTED_EDGE('',*,*,#780,.T.);
#1086=ORIENTED_EDGE('',*,*,#777,.F.);
#1087=ORIENTED_EDGE('',*,*,#660,.T.);
#1088=ORIENTED_EDGE('',*,*,#671,.T.);
#1089=ORIENTED_EDGE('',*,*,#778,.F.);
#1090=ORIENTED_EDGE('',*,*,#780,.F.);
#1091=ORIENTED_EDGE('',*,*,#652,.T.);
#1092=ORIENTED_EDGE('',*,*,#772,.F.);
#1093=ORIENTED_EDGE('',*,*,#776,.T.);
#1094=ORIENTED_EDGE('',*,*,#674,.F.);
#1095=ORIENTED_EDGE('',*,*,#781,.F.);
#1096=ORIENTED_EDGE('',*,*,#782,.T.);
#1097=ORIENTED_EDGE('',*,*,#783,.F.);
#1098=ORIENTED_EDGE('',*,*,#784,.F.);
#1099=ORIENTED_EDGE('',*,*,#785,.F.);
#1100=ORIENTED_EDGE('',*,*,#784,.T.);
#1101=ORIENTED_EDGE('',*,*,#786,.F.);
#1102=ORIENTED_EDGE('',*,*,#782,.F.);
#1103=ORIENTED_EDGE('',*,*,#785,.T.);
#1104=ORIENTED_EDGE('',*,*,#781,.T.);
#1105=ORIENTED_EDGE('',*,*,#783,.T.);
#1106=ORIENTED_EDGE('',*,*,#786,.T.);
#1107=ORIENTED_EDGE('',*,*,#787,.T.);
#1108=ORIENTED_EDGE('',*,*,#788,.T.);
#1109=ORIENTED_EDGE('',*,*,#789,.T.);
#1110=ORIENTED_EDGE('',*,*,#790,.T.);
#1111=ORIENTED_EDGE('',*,*,#789,.F.);
#1112=ORIENTED_EDGE('',*,*,#791,.T.);
#1113=ORIENTED_EDGE('',*,*,#788,.F.);
#1114=ORIENTED_EDGE('',*,*,#792,.F.);
#1115=ORIENTED_EDGE('',*,*,#790,.F.);
#1116=ORIENTED_EDGE('',*,*,#792,.T.);
#1117=ORIENTED_EDGE('',*,*,#787,.F.);
#1118=ORIENTED_EDGE('',*,*,#791,.F.);
#1119=ORIENTED_EDGE('',*,*,#793,.F.);
#1120=ORIENTED_EDGE('',*,*,#794,.F.);
#1121=ORIENTED_EDGE('',*,*,#795,.F.);
#1122=ORIENTED_EDGE('',*,*,#796,.F.);
#1123=ORIENTED_EDGE('',*,*,#797,.F.);
#1124=ORIENTED_EDGE('',*,*,#798,.F.);
#1125=ORIENTED_EDGE('',*,*,#799,.F.);
#1126=ORIENTED_EDGE('',*,*,#800,.F.);
#1127=ORIENTED_EDGE('',*,*,#799,.T.);
#1128=ORIENTED_EDGE('',*,*,#801,.F.);
#1129=ORIENTED_EDGE('',*,*,#802,.T.);
#1130=ORIENTED_EDGE('',*,*,#803,.F.);
#1131=ORIENTED_EDGE('',*,*,#800,.T.);
#1132=ORIENTED_EDGE('',*,*,#803,.T.);
#1133=ORIENTED_EDGE('',*,*,#804,.T.);
#1134=ORIENTED_EDGE('',*,*,#805,.T.);
#1135=ORIENTED_EDGE('',*,*,#796,.T.);
#1136=ORIENTED_EDGE('',*,*,#806,.T.);
#1137=ORIENTED_EDGE('',*,*,#807,.T.);
#1138=ORIENTED_EDGE('',*,*,#808,.T.);
#1139=ORIENTED_EDGE('',*,*,#795,.T.);
#1140=ORIENTED_EDGE('',*,*,#809,.T.);
#1141=ORIENTED_EDGE('',*,*,#810,.T.);
#1142=ORIENTED_EDGE('',*,*,#806,.F.);
#1143=ORIENTED_EDGE('',*,*,#811,.F.);
#1144=ORIENTED_EDGE('',*,*,#812,.T.);
#1145=ORIENTED_EDGE('',*,*,#804,.F.);
#1146=ORIENTED_EDGE('',*,*,#802,.F.);
#1147=ORIENTED_EDGE('',*,*,#797,.T.);
#1148=ORIENTED_EDGE('',*,*,#808,.F.);
#1149=ORIENTED_EDGE('',*,*,#813,.F.);
#1150=ORIENTED_EDGE('',*,*,#814,.T.);
#1151=ORIENTED_EDGE('',*,*,#815,.T.);
#1152=ORIENTED_EDGE('',*,*,#813,.T.);
#1153=ORIENTED_EDGE('',*,*,#807,.F.);
#1154=ORIENTED_EDGE('',*,*,#810,.F.);
#1155=ORIENTED_EDGE('',*,*,#793,.T.);
#1156=ORIENTED_EDGE('',*,*,#805,.F.);
#1157=ORIENTED_EDGE('',*,*,#812,.F.);
#1158=ORIENTED_EDGE('',*,*,#816,.F.);
#1159=ORIENTED_EDGE('',*,*,#798,.T.);
#1160=ORIENTED_EDGE('',*,*,#814,.F.);
#1161=ORIENTED_EDGE('',*,*,#815,.F.);
#1162=ORIENTED_EDGE('',*,*,#809,.F.);
#1163=ORIENTED_EDGE('',*,*,#794,.T.);
#1164=ORIENTED_EDGE('',*,*,#816,.T.);
#1165=ORIENTED_EDGE('',*,*,#811,.T.);
#1166=ORIENTED_EDGE('',*,*,#801,.T.);
#1167=PLANE('',#1281);
#1168=PLANE('',#1283);
#1169=PLANE('',#1285);
#1170=PLANE('',#1294);
#1171=PLANE('',#1295);
#1172=PLANE('',#1296);
#1173=PLANE('',#1315);
#1174=PLANE('',#1319);
#1175=PLANE('',#1323);
#1176=PLANE('',#1327);
#1177=PLANE('',#1331);
#1178=PLANE('',#1335);
#1179=PLANE('',#1339);
#1180=PLANE('',#1343);
#1181=PLANE('',#1350);
#1182=PLANE('',#1354);
#1183=PLANE('',#1358);
#1184=PLANE('',#1362);
#1185=PLANE('',#1366);
#1186=PLANE('',#1367);
#1187=PLANE('',#1368);
#1188=PLANE('',#1369);
#1189=PLANE('',#1370);
#1190=PLANE('',#1371);
#1191=PLANE('',#1372);
#1192=PLANE('',#1373);
#1193=PLANE('',#1374);
#1194=PLANE('',#1378);
#1195=PLANE('',#1379);
#1196=PLANE('',#1380);
#1197=PLANE('',#1382);
#1198=PLANE('',#1385);
#1199=PLANE('',#1386);
#1200=PLANE('',#1387);
#1201=PLANE('',#1388);
#1202=PLANE('',#1389);
#1203=PLANE('',#1390);
#1204=PLANE('',#1391);
#1205=PLANE('',#1392);
#1206=PLANE('',#1393);
#1207=PLANE('',#1394);
#1208=PLANE('',#1395);
#1209=ADVANCED_FACE('',(#70),#1167,.F.);
#1210=ADVANCED_FACE('',(#71),#1168,.F.);
#1211=ADVANCED_FACE('',(#72,#48,#49,#50,#51,#52,#53,#54,#55),#1169,.F.);
#1212=ADVANCED_FACE('',(#73),#1170,.F.);
#1213=ADVANCED_FACE('',(#74),#1171,.F.);
#1214=ADVANCED_FACE('',(#75),#1172,.T.);
#1215=ADVANCED_FACE('',(#76),#23,.T.);
#1216=ADVANCED_FACE('',(#77),#24,.F.);
#1217=ADVANCED_FACE('',(#78),#25,.F.);
#1218=ADVANCED_FACE('',(#79),#26,.F.);
#1219=ADVANCED_FACE('',(#80),#27,.F.);
#1220=ADVANCED_FACE('',(#81),#28,.F.);
#1221=ADVANCED_FACE('',(#82),#29,.F.);
#1222=ADVANCED_FACE('',(#83),#30,.F.);
#1223=ADVANCED_FACE('',(#84),#31,.F.);
#1224=ADVANCED_FACE('',(#85),#1173,.F.);
#1225=ADVANCED_FACE('',(#86),#32,.F.);
#1226=ADVANCED_FACE('',(#87),#1174,.F.);
#1227=ADVANCED_FACE('',(#88),#33,.F.);
#1228=ADVANCED_FACE('',(#89),#1175,.F.);
#1229=ADVANCED_FACE('',(#90),#34,.F.);
#1230=ADVANCED_FACE('',(#91),#1176,.F.);
#1231=ADVANCED_FACE('',(#92),#35,.F.);
#1232=ADVANCED_FACE('',(#93),#1177,.F.);
#1233=ADVANCED_FACE('',(#94),#36,.F.);
#1234=ADVANCED_FACE('',(#95),#1178,.F.);
#1235=ADVANCED_FACE('',(#96),#37,.F.);
#1236=ADVANCED_FACE('',(#97),#1179,.F.);
#1237=ADVANCED_FACE('',(#98),#38,.F.);
#1238=ADVANCED_FACE('',(#99),#1180,.F.);
#1239=ADVANCED_FACE('',(#100),#39,.F.);
#1240=ADVANCED_FACE('',(#101),#40,.F.);
#1241=ADVANCED_FACE('',(#102),#1181,.F.);
#1242=ADVANCED_FACE('',(#103),#41,.F.);
#1243=ADVANCED_FACE('',(#104),#1182,.F.);
#1244=ADVANCED_FACE('',(#105),#42,.F.);
#1245=ADVANCED_FACE('',(#106),#1183,.F.);
#1246=ADVANCED_FACE('',(#107),#43,.T.);
#1247=ADVANCED_FACE('',(#108),#1184,.F.);
#1248=ADVANCED_FACE('',(#109),#44,.T.);
#1249=ADVANCED_FACE('',(#110),#45,.T.);
#1250=ADVANCED_FACE('',(#111,#56,#57,#58),#1185,.T.);
#1251=ADVANCED_FACE('',(#112),#1186,.T.);
#1252=ADVANCED_FACE('',(#113,#59,#60,#61,#62,#63,#64,#65,#66),#1187,.T.);
#1253=ADVANCED_FACE('',(#114),#1188,.F.);
#1254=ADVANCED_FACE('',(#115,#67,#68,#69),#1189,.F.);
#1255=ADVANCED_FACE('',(#116),#1190,.F.);
#1256=ADVANCED_FACE('',(#117),#1191,.F.);
#1257=ADVANCED_FACE('',(#118),#1192,.T.);
#1258=ADVANCED_FACE('',(#119),#1193,.F.);
#1259=ADVANCED_FACE('',(#120),#46,.T.);
#1260=ADVANCED_FACE('',(#121),#1194,.T.);
#1261=ADVANCED_FACE('',(#122),#1195,.F.);
#1262=ADVANCED_FACE('',(#123),#1196,.F.);
#1263=ADVANCED_FACE('',(#124),#1197,.T.);
#1264=ADVANCED_FACE('',(#125),#47,.T.);
#1265=ADVANCED_FACE('',(#126),#1198,.F.);
#1266=ADVANCED_FACE('',(#127),#1199,.F.);
#1267=ADVANCED_FACE('',(#128),#1200,.F.);
#1268=ADVANCED_FACE('',(#129),#1201,.T.);
#1269=ADVANCED_FACE('',(#130),#1202,.T.);
#1270=ADVANCED_FACE('',(#131),#1203,.T.);
#1271=ADVANCED_FACE('',(#132),#1204,.T.);
#1272=ADVANCED_FACE('',(#133),#1205,.T.);
#1273=ADVANCED_FACE('',(#134),#1206,.T.);
#1274=ADVANCED_FACE('',(#135),#1207,.T.);
#1275=ADVANCED_FACE('',(#136),#1208,.T.);
#1276=CLOSED_SHELL('',(#1209,#1210,#1211,#1212,#1213,#1214,#1215,#1216,
#1217,#1218,#1219,#1220,#1221,#1222,#1223,#1224,#1225,#1226,#1227,#1228,
#1229,#1230,#1231,#1232,#1233,#1234,#1235,#1236,#1237,#1238,#1239,#1240,
#1241,#1242,#1243,#1244,#1245,#1246,#1247,#1248,#1249,#1250,#1251,#1252,
#1253,#1254,#1255,#1256,#1257));
#1277=CLOSED_SHELL('',(#1258,#1259,#1260,#1261));
#1278=CLOSED_SHELL('',(#1262,#1263,#1264,#1265));
#1279=CLOSED_SHELL('',(#1266,#1267,#1268,#1269,#1270,#1271,#1272,#1273,
#1274,#1275));
#1280=AXIS2_PLACEMENT_3D('',#1755,#1396,#1397);
#1281=AXIS2_PLACEMENT_3D('',#1756,#1398,#1399);
#1282=AXIS2_PLACEMENT_3D('',#1769,#1405,#1406);
#1283=AXIS2_PLACEMENT_3D('',#1771,#1408,#1409);
#1284=AXIS2_PLACEMENT_3D('',#1778,#1412,#1413);
#1285=AXIS2_PLACEMENT_3D('',#1786,#1418,#1419);
#1286=AXIS2_PLACEMENT_3D('',#1798,#1426,#1427);
#1287=AXIS2_PLACEMENT_3D('',#1800,#1428,#1429);
#1288=AXIS2_PLACEMENT_3D('',#1802,#1430,#1431);
#1289=AXIS2_PLACEMENT_3D('',#1804,#1432,#1433);
#1290=AXIS2_PLACEMENT_3D('',#1806,#1434,#1435);
#1291=AXIS2_PLACEMENT_3D('',#1808,#1436,#1437);
#1292=AXIS2_PLACEMENT_3D('',#1810,#1438,#1439);
#1293=AXIS2_PLACEMENT_3D('',#1812,#1440,#1441);
#1294=AXIS2_PLACEMENT_3D('',#1813,#1442,#1443);
#1295=AXIS2_PLACEMENT_3D('',#1817,#1446,#1447);
#1296=AXIS2_PLACEMENT_3D('',#1821,#1450,#1451);
#1297=AXIS2_PLACEMENT_3D('',#1830,#1457,#1458);
#1298=AXIS2_PLACEMENT_3D('',#1834,#1460,#1461);
#1299=AXIS2_PLACEMENT_3D('',#1836,#1463,#1464);
#1300=AXIS2_PLACEMENT_3D('',#1838,#1465,#1466);
#1301=AXIS2_PLACEMENT_3D('',#1840,#1468,#1469);
#1302=AXIS2_PLACEMENT_3D('',#1842,#1470,#1471);
#1303=AXIS2_PLACEMENT_3D('',#1844,#1473,#1474);
#1304=AXIS2_PLACEMENT_3D('',#1846,#1475,#1476);
#1305=AXIS2_PLACEMENT_3D('',#1848,#1478,#1479);
#1306=AXIS2_PLACEMENT_3D('',#1850,#1480,#1481);
#1307=AXIS2_PLACEMENT_3D('',#1852,#1483,#1484);
#1308=AXIS2_PLACEMENT_3D('',#1854,#1485,#1486);
#1309=AXIS2_PLACEMENT_3D('',#1856,#1488,#1489);
#1310=AXIS2_PLACEMENT_3D('',#1858,#1490,#1491);
#1311=AXIS2_PLACEMENT_3D('',#1860,#1493,#1494);
#1312=AXIS2_PLACEMENT_3D('',#1862,#1495,#1496);
#1313=AXIS2_PLACEMENT_3D('',#1864,#1498,#1499);
#1314=AXIS2_PLACEMENT_3D('',#1866,#1500,#1501);
#1315=AXIS2_PLACEMENT_3D('',#1868,#1503,#1504);
#1316=AXIS2_PLACEMENT_3D('',#1877,#1509,#1510);
#1317=AXIS2_PLACEMENT_3D('',#1879,#1511,#1512);
#1318=AXIS2_PLACEMENT_3D('',#1882,#1514,#1515);
#1319=AXIS2_PLACEMENT_3D('',#1883,#1516,#1517);
#1320=AXIS2_PLACEMENT_3D('',#1889,#1521,#1522);
#1321=AXIS2_PLACEMENT_3D('',#1891,#1523,#1524);
#1322=AXIS2_PLACEMENT_3D('',#1894,#1526,#1527);
#1323=AXIS2_PLACEMENT_3D('',#1895,#1528,#1529);
#1324=AXIS2_PLACEMENT_3D('',#1901,#1533,#1534);
#1325=AXIS2_PLACEMENT_3D('',#1903,#1535,#1536);
#1326=AXIS2_PLACEMENT_3D('',#1906,#1538,#1539);
#1327=AXIS2_PLACEMENT_3D('',#1907,#1540,#1541);
#1328=AXIS2_PLACEMENT_3D('',#1913,#1545,#1546);
#1329=AXIS2_PLACEMENT_3D('',#1914,#1547,#1548);
#1330=AXIS2_PLACEMENT_3D('',#1915,#1549,#1550);
#1331=AXIS2_PLACEMENT_3D('',#1916,#1551,#1552);
#1332=AXIS2_PLACEMENT_3D('',#1925,#1557,#1558);
#1333=AXIS2_PLACEMENT_3D('',#1927,#1559,#1560);
#1334=AXIS2_PLACEMENT_3D('',#1930,#1562,#1563);
#1335=AXIS2_PLACEMENT_3D('',#1931,#1564,#1565);
#1336=AXIS2_PLACEMENT_3D('',#1937,#1569,#1570);
#1337=AXIS2_PLACEMENT_3D('',#1939,#1571,#1572);
#1338=AXIS2_PLACEMENT_3D('',#1942,#1574,#1575);
#1339=AXIS2_PLACEMENT_3D('',#1943,#1576,#1577);
#1340=AXIS2_PLACEMENT_3D('',#1949,#1581,#1582);
#1341=AXIS2_PLACEMENT_3D('',#1951,#1583,#1584);
#1342=AXIS2_PLACEMENT_3D('',#1954,#1586,#1587);
#1343=AXIS2_PLACEMENT_3D('',#1955,#1588,#1589);
#1344=AXIS2_PLACEMENT_3D('',#1961,#1593,#1594);
#1345=AXIS2_PLACEMENT_3D('',#1962,#1595,#1596);
#1346=AXIS2_PLACEMENT_3D('',#1963,#1597,#1598);
#1347=AXIS2_PLACEMENT_3D('',#1964,#1599,#1600);
#1348=AXIS2_PLACEMENT_3D('',#1967,#1601,#1602);
#1349=AXIS2_PLACEMENT_3D('',#1971,#1604,#1605);
#1350=AXIS2_PLACEMENT_3D('',#1973,#1607,#1608);
#1351=AXIS2_PLACEMENT_3D('',#1979,#1612,#1613);
#1352=AXIS2_PLACEMENT_3D('',#1981,#1614,#1615);
#1353=AXIS2_PLACEMENT_3D('',#1984,#1617,#1618);
#1354=AXIS2_PLACEMENT_3D('',#1985,#1619,#1620);
#1355=AXIS2_PLACEMENT_3D('',#1991,#1624,#1625);
#1356=AXIS2_PLACEMENT_3D('',#1993,#1626,#1627);
#1357=AXIS2_PLACEMENT_3D('',#1996,#1629,#1630);
#1358=AXIS2_PLACEMENT_3D('',#1997,#1631,#1632);
#1359=AXIS2_PLACEMENT_3D('',#2003,#1636,#1637);
#1360=AXIS2_PLACEMENT_3D('',#2005,#1638,#1639);
#1361=AXIS2_PLACEMENT_3D('',#2008,#1641,#1642);
#1362=AXIS2_PLACEMENT_3D('',#2009,#1643,#1644);
#1363=AXIS2_PLACEMENT_3D('',#2012,#1647,#1648);
#1364=AXIS2_PLACEMENT_3D('',#2016,#1650,#1651);
#1365=AXIS2_PLACEMENT_3D('',#2018,#1653,#1654);
#1366=AXIS2_PLACEMENT_3D('',#2021,#1657,#1658);
#1367=AXIS2_PLACEMENT_3D('',#2024,#1661,#1662);
#1368=AXIS2_PLACEMENT_3D('',#2025,#1663,#1664);
#1369=AXIS2_PLACEMENT_3D('',#2029,#1667,#1668);
#1370=AXIS2_PLACEMENT_3D('',#2031,#1670,#1671);
#1371=AXIS2_PLACEMENT_3D('',#2032,#1672,#1673);
#1372=AXIS2_PLACEMENT_3D('',#2034,#1675,#1676);
#1373=AXIS2_PLACEMENT_3D('',#2035,#1677,#1678);
#1374=AXIS2_PLACEMENT_3D('',#2036,#1679,#1680);
#1375=AXIS2_PLACEMENT_3D('',#2045,#1685,#1686);
#1376=AXIS2_PLACEMENT_3D('',#2046,#1687,#1688);
#1377=AXIS2_PLACEMENT_3D('',#2047,#1689,#1690);
#1378=AXIS2_PLACEMENT_3D('',#2048,#1691,#1692);
#1379=AXIS2_PLACEMENT_3D('',#2049,#1693,#1694);
#1380=AXIS2_PLACEMENT_3D('',#2050,#1695,#1696);
#1381=AXIS2_PLACEMENT_3D('',#2054,#1698,#1699);
#1382=AXIS2_PLACEMENT_3D('',#2055,#1700,#1701);
#1383=AXIS2_PLACEMENT_3D('',#2058,#1702,#1703);
#1384=AXIS2_PLACEMENT_3D('',#2060,#1705,#1706);
#1385=AXIS2_PLACEMENT_3D('',#2063,#1709,#1710);
#1386=AXIS2_PLACEMENT_3D('',#2064,#1711,#1712);
#1387=AXIS2_PLACEMENT_3D('',#2073,#1717,#1718);
#1388=AXIS2_PLACEMENT_3D('',#2082,#1723,#1724);
#1389=AXIS2_PLACEMENT_3D('',#2088,#1728,#1729);
#1390=AXIS2_PLACEMENT_3D('',#2097,#1735,#1736);
#1391=AXIS2_PLACEMENT_3D('',#2101,#1739,#1740);
#1392=AXIS2_PLACEMENT_3D('',#2105,#1743,#1744);
#1393=AXIS2_PLACEMENT_3D('',#2109,#1747,#1748);
#1394=AXIS2_PLACEMENT_3D('',#2111,#1750,#1751);
#1395=AXIS2_PLACEMENT_3D('',#2113,#1753,#1754);
#1396=DIRECTION('axis',(0.,0.,1.));
#1397=DIRECTION('refdir',(1.,0.,0.));
#1398=DIRECTION('center_axis',(0.,0.,1.));
#1399=DIRECTION('ref_axis',(0.,-1.,0.));
#1400=DIRECTION('',(0.,1.,0.));
#1401=DIRECTION('',(1.,0.,0.));
#1402=DIRECTION('',(0.,1.,0.));
#1403=DIRECTION('',(1.,0.,0.));
#1404=DIRECTION('',(0.,-1.,0.));
#1405=DIRECTION('center_axis',(0.,0.,1.));
#1406=DIRECTION('ref_axis',(-0.707106781186547,0.707106781186547,0.));
#1407=DIRECTION('',(-1.,0.,0.));
#1408=DIRECTION('center_axis',(0.,0.,1.));
#1409=DIRECTION('ref_axis',(0.,-1.,0.));
#1410=DIRECTION('',(0.,-1.,0.));
#1411=DIRECTION('',(-1.,0.,0.));
#1412=DIRECTION('center_axis',(0.,0.,1.));
#1413=DIRECTION('ref_axis',(0.707106781186547,0.707106781186547,0.));
#1414=DIRECTION('',(0.,1.,0.));
#1415=DIRECTION('',(1.,0.,0.));
#1416=DIRECTION('',(0.,-1.,0.));
#1417=DIRECTION('',(1.,0.,0.));
#1418=DIRECTION('center_axis',(0.,1.,0.));
#1419=DIRECTION('ref_axis',(0.,0.,1.));
#1420=DIRECTION('',(0.,0.,-1.));
#1421=DIRECTION('',(1.,0.,-7.40148683083438E-17));
#1422=DIRECTION('',(-4.44089209850063E-16,0.,1.));
#1423=DIRECTION('',(2.3373116307898E-16,0.,-1.));
#1424=DIRECTION('',(-1.,0.,5.1044736764375E-17));
#1425=DIRECTION('',(1.1686558153949E-16,0.,1.));
#1426=DIRECTION('center_axis',(0.,1.,0.));
#1427=DIRECTION('ref_axis',(-1.,0.,0.));
#1428=DIRECTION('center_axis',(0.,1.,0.));
#1429=DIRECTION('ref_axis',(-1.,0.,0.));
#1430=DIRECTION('center_axis',(0.,1.,0.));
#1431=DIRECTION('ref_axis',(-1.,0.,0.));
#1432=DIRECTION('center_axis',(0.,1.,0.));
#1433=DIRECTION('ref_axis',(-1.,0.,0.));
#1434=DIRECTION('center_axis',(0.,1.,0.));
#1435=DIRECTION('ref_axis',(-1.,0.,0.));
#1436=DIRECTION('center_axis',(0.,1.,0.));
#1437=DIRECTION('ref_axis',(-1.,0.,0.));
#1438=DIRECTION('center_axis',(0.,1.,0.));
#1439=DIRECTION('ref_axis',(-1.,0.,0.));
#1440=DIRECTION('center_axis',(0.,1.,0.));
#1441=DIRECTION('ref_axis',(-1.,0.,0.));
#1442=DIRECTION('center_axis',(-1.,0.,-2.3373116307898E-16));
#1443=DIRECTION('ref_axis',(-2.3373116307898E-16,0.,1.));
#1444=DIRECTION('',(2.3373116307898E-16,0.,-1.));
#1445=DIRECTION('',(0.,1.,0.));
#1446=DIRECTION('center_axis',(1.,0.,0.));
#1447=DIRECTION('ref_axis',(0.,0.,-1.));
#1448=DIRECTION('',(0.,0.,-1.));
#1449=DIRECTION('',(0.,1.,0.));
#1450=DIRECTION('center_axis',(0.,-1.,0.));
#1451=DIRECTION('ref_axis',(0.,0.,-1.));
#1452=DIRECTION('',(0.,0.,1.));
#1453=DIRECTION('',(-1.,0.,-1.26882631385732E-16));
#1454=DIRECTION('',(-8.88178419700125E-17,0.,-1.));
#1455=DIRECTION('',(-4.44089209850063E-16,0.,1.));
#1456=DIRECTION('',(1.,0.,-7.40148683083438E-17));
#1457=DIRECTION('center_axis',(8.88178419700125E-17,0.,1.));
#1458=DIRECTION('ref_axis',(-0.707106781186547,0.707106781186547,0.));
#1459=DIRECTION('',(8.88178419700125E-17,0.,1.));
#1460=DIRECTION('center_axis',(-0.707106781186547,0.,-0.707106781186548));
#1461=DIRECTION('ref_axis',(0.707106781186548,0.,-0.707106781186547));
#1462=DIRECTION('',(-8.88178419700125E-17,0.,-1.));
#1463=DIRECTION('center_axis',(0.,-1.,0.));
#1464=DIRECTION('ref_axis',(-1.,0.,0.));
#1465=DIRECTION('center_axis',(0.,-1.,0.));
#1466=DIRECTION('ref_axis',(-1.,0.,0.));
#1467=DIRECTION('',(0.,-1.,0.));
#1468=DIRECTION('center_axis',(0.,-1.,0.));
#1469=DIRECTION('ref_axis',(-1.,0.,0.));
#1470=DIRECTION('center_axis',(0.,-1.,0.));
#1471=DIRECTION('ref_axis',(-1.,0.,0.));
#1472=DIRECTION('',(0.,-1.,0.));
#1473=DIRECTION('center_axis',(0.,-1.,0.));
#1474=DIRECTION('ref_axis',(-1.,0.,0.));
#1475=DIRECTION('center_axis',(0.,-1.,0.));
#1476=DIRECTION('ref_axis',(-1.,0.,0.));
#1477=DIRECTION('',(0.,-1.,0.));
#1478=DIRECTION('center_axis',(0.,-1.,0.));
#1479=DIRECTION('ref_axis',(-1.,0.,0.));
#1480=DIRECTION('center_axis',(0.,-1.,0.));
#1481=DIRECTION('ref_axis',(-1.,0.,0.));
#1482=DIRECTION('',(0.,-1.,0.));
#1483=DIRECTION('center_axis',(0.,-1.,0.));
#1484=DIRECTION('ref_axis',(-1.,0.,0.));
#1485=DIRECTION('center_axis',(0.,-1.,0.));
#1486=DIRECTION('ref_axis',(-1.,0.,0.));
#1487=DIRECTION('',(0.,-1.,0.));
#1488=DIRECTION('center_axis',(0.,-1.,0.));
#1489=DIRECTION('ref_axis',(-1.,0.,0.));
#1490=DIRECTION('center_axis',(0.,-1.,0.));
#1491=DIRECTION('ref_axis',(-1.,0.,0.));
#1492=DIRECTION('',(0.,-1.,0.));
#1493=DIRECTION('center_axis',(0.,-1.,0.));
#1494=DIRECTION('ref_axis',(-1.,0.,0.));
#1495=DIRECTION('center_axis',(0.,-1.,0.));
#1496=DIRECTION('ref_axis',(-1.,0.,0.));
#1497=DIRECTION('',(0.,-1.,0.));
#1498=DIRECTION('center_axis',(0.,-1.,0.));
#1499=DIRECTION('ref_axis',(-1.,0.,0.));
#1500=DIRECTION('center_axis',(0.,-1.,0.));
#1501=DIRECTION('ref_axis',(-1.,0.,0.));
#1502=DIRECTION('',(0.,-1.,0.));
#1503=DIRECTION('center_axis',(-1.,-2.47740526390533E-16,2.22044604925031E-16));
#1504=DIRECTION('ref_axis',(-2.47740526390533E-16,1.,-3.30320701854044E-16));
#1505=DIRECTION('',(-2.47740526390533E-16,1.,-3.14339698893172E-32));
#1506=DIRECTION('',(-2.22044604925031E-16,0.,-1.));
#1507=DIRECTION('',(2.47740526390533E-16,-1.,-1.8336482435435E-32));
#1508=DIRECTION('',(-2.22044604925031E-16,0.,-1.));
#1509=DIRECTION('center_axis',(-2.22044604925031E-16,0.,-1.));
#1510=DIRECTION('ref_axis',(0.671098886385398,0.74136784708556,-1.49013887093074E-16));
#1511=DIRECTION('center_axis',(1.26882631385732E-16,0.,-1.));
#1512=DIRECTION('ref_axis',(0.671098886385398,0.74136784708556,-1.49013887093074E-16));
#1513=DIRECTION('',(-2.22044604925031E-16,0.,-1.));
#1514=DIRECTION('center_axis',(7.40148683083438E-17,0.,1.));
#1515=DIRECTION('ref_axis',(0.671098886385398,0.74136784708556,-1.49013887093074E-16));
#1516=DIRECTION('center_axis',(0.,-1.,0.));
#1517=DIRECTION('ref_axis',(-1.,0.,-1.26882631385732E-16));
#1518=DIRECTION('',(-1.,0.,-1.26882631385732E-16));
#1519=DIRECTION('',(-2.22044604925031E-16,0.,-1.));
#1520=DIRECTION('',(1.,0.,-7.40148683083438E-17));
#1521=DIRECTION('center_axis',(-2.22044604925031E-16,0.,-1.));
#1522=DIRECTION('ref_axis',(-0.95618640077905,-0.29275854721119,2.12316031595672E-16));
#1523=DIRECTION('center_axis',(1.26882631385732E-16,0.,-1.));
#1524=DIRECTION('ref_axis',(-0.95618640077905,-0.29275854721119,2.12316031595672E-16));
#1525=DIRECTION('',(-2.22044604925031E-16,0.,-1.));
#1526=DIRECTION('center_axis',(7.40148683083438E-17,0.,1.));
#1527=DIRECTION('ref_axis',(-0.95618640077905,-0.29275854721119,2.12316031595672E-16));
#1528=DIRECTION('center_axis',(1.,4.17464856041931E-16,-2.22044604925031E-16));
#1529=DIRECTION('ref_axis',(4.17464856041931E-16,-1.,5.2969039445666E-32));
#1530=DIRECTION('',(4.17464856041931E-16,-1.,5.2969039445666E-32));
#1531=DIRECTION('',(-2.22044604925031E-16,0.,-1.));
#1532=DIRECTION('',(-4.17464856041931E-16,1.,3.08986063433052E-32));
#1533=DIRECTION('center_axis',(-2.22044604925031E-16,0.,-1.));
#1534=DIRECTION('ref_axis',(0.575766021963939,-0.81761451060498,-1.2784573887624E-16));
#1535=DIRECTION('center_axis',(1.26882631385732E-16,0.,-1.));
#1536=DIRECTION('ref_axis',(0.575766021963939,-0.81761451060498,-1.2784573887624E-16));
#1537=DIRECTION('',(-2.22044604925031E-16,0.,-1.));
#1538=DIRECTION('center_axis',(7.40148683083438E-17,0.,1.));
#1539=DIRECTION('ref_axis',(0.575766021963939,-0.81761451060498,-1.2784573887624E-16));
#1540=DIRECTION('center_axis',(0.,1.,0.));
#1541=DIRECTION('ref_axis',(1.,0.,4.56159164292399E-16));
#1542=DIRECTION('',(1.,0.,1.26882631385732E-16));
#1543=DIRECTION('',(-2.22044604925031E-16,0.,-1.));
#1544=DIRECTION('',(-1.,0.,7.40148683083438E-17));
#1545=DIRECTION('center_axis',(-2.22044604925031E-16,0.,-1.));
#1546=DIRECTION('ref_axis',(-0.999574242817634,-0.0291776129173188,2.21950067839679E-16));
#1547=DIRECTION('center_axis',(1.26882631385732E-16,0.,-1.));
#1548=DIRECTION('ref_axis',(0.348591515238826,0.937274749208309,-7.74028652814232E-17));
#1549=DIRECTION('center_axis',(7.40148683083438E-17,0.,1.));
#1550=DIRECTION('ref_axis',(0.348591515238826,0.937274749208309,-7.74028652814232E-17));
#1551=DIRECTION('center_axis',(-1.,-6.57335199602882E-16,0.));
#1552=DIRECTION('ref_axis',(-6.57335199602882E-16,1.,-8.34044198280791E-32));
#1553=DIRECTION('',(-6.57335199602882E-16,1.,-8.34044198280791E-32));
#1554=DIRECTION('',(0.,0.,-1.));
#1555=DIRECTION('',(6.57335199602882E-16,-1.,-4.86525782330462E-32));
#1556=DIRECTION('',(0.,0.,-1.));
#1557=DIRECTION('center_axis',(0.,0.,-1.));
#1558=DIRECTION('ref_axis',(-0.33342763504804,0.94277569558526,0.));
#1559=DIRECTION('center_axis',(1.26882631385732E-16,0.,-1.));
#1560=DIRECTION('ref_axis',(0.949316640587019,0.314321357697145,0.));
#1561=DIRECTION('',(0.,0.,-1.));
#1562=DIRECTION('center_axis',(7.40148683083438E-17,0.,1.));
#1563=DIRECTION('ref_axis',(0.949316640587019,0.314321357697145,0.));
#1564=DIRECTION('center_axis',(3.1580918122954E-16,-1.,0.));
#1565=DIRECTION('ref_axis',(-1.,-3.1580918122954E-16,-1.26882631385732E-16));
#1566=DIRECTION('',(-1.,-3.1580918122954E-16,-1.26882631385732E-16));
#1567=DIRECTION('',(0.,0.,-1.));
#1568=DIRECTION('',(1.,3.1580918122954E-16,-7.40148683083438E-17));
#1569=DIRECTION('center_axis',(0.,0.,-1.));
#1570=DIRECTION('ref_axis',(-0.939526951030316,-0.342474974688192,0.));
#1571=DIRECTION('center_axis',(1.26882631385732E-16,0.,-1.));
#1572=DIRECTION('ref_axis',(-0.939526951030316,-0.342474974688192,0.));
#1573=DIRECTION('',(0.,0.,-1.));
#1574=DIRECTION('center_axis',(7.40148683083438E-17,0.,1.));
#1575=DIRECTION('ref_axis',(-0.939526951030316,-0.342474974688192,0.));
#1576=DIRECTION('center_axis',(1.,3.36474472814466E-16,0.));
#1577=DIRECTION('ref_axis',(3.36474472814466E-16,-1.,3.36474472814466E-16));
#1578=DIRECTION('',(3.36474472814466E-16,-1.,4.26927665048264E-32));
#1579=DIRECTION('',(0.,0.,-1.));
#1580=DIRECTION('',(-3.36474472814466E-16,1.,2.49041137944821E-32));
#1581=DIRECTION('center_axis',(0.,0.,-1.));
#1582=DIRECTION('ref_axis',(0.432205147883719,-0.901775310231331,0.));
#1583=DIRECTION('center_axis',(1.26882631385732E-16,0.,-1.));
#1584=DIRECTION('ref_axis',(0.432205147883719,-0.901775310231331,0.));
#1585=DIRECTION('',(0.,0.,-1.));
#1586=DIRECTION('center_axis',(7.40148683083438E-17,0.,1.));
#1587=DIRECTION('ref_axis',(0.432205147883719,-0.901775310231331,0.));
#1588=DIRECTION('center_axis',(4.7321079789121E-16,1.,0.));
#1589=DIRECTION('ref_axis',(1.,-4.7321079789121E-16,-1.88591233875074E-16));
#1590=DIRECTION('',(1.,-4.7321079789121E-16,1.26882631385732E-16));
#1591=DIRECTION('',(0.,0.,-1.));
#1592=DIRECTION('',(-1.,4.7321079789121E-16,7.40148683083438E-17));
#1593=DIRECTION('center_axis',(0.,0.,-1.));
#1594=DIRECTION('ref_axis',(-0.982024128006588,-0.188755429095165,0.));
#1595=DIRECTION('center_axis',(1.26882631385732E-16,0.,-1.));
#1596=DIRECTION('ref_axis',(0.697602528018308,0.716484970465163,0.));
#1597=DIRECTION('center_axis',(7.40148683083438E-17,0.,1.));
#1598=DIRECTION('ref_axis',(0.697602528018308,0.716484970465163,0.));
#1599=DIRECTION('center_axis',(0.,0.,-1.));
#1600=DIRECTION('ref_axis',(0.0946957796714893,0.99550625779671,0.));
#1601=DIRECTION('center_axis',(1.26882631385732E-16,0.,-1.));
#1602=DIRECTION('ref_axis',(0.0946957796714893,0.99550625779671,0.));
#1603=DIRECTION('',(0.,0.,-1.));
#1604=DIRECTION('center_axis',(7.40148683083438E-17,0.,1.));
#1605=DIRECTION('ref_axis',(0.0946957796714893,0.99550625779671,0.));
#1606=DIRECTION('',(0.,0.,-1.));
#1607=DIRECTION('center_axis',(0.,-1.,0.));
#1608=DIRECTION('ref_axis',(-1.,0.,-4.52865174175324E-16));
#1609=DIRECTION('',(-1.,0.,-1.26882631385732E-16));
#1610=DIRECTION('',(0.,0.,-1.));
#1611=DIRECTION('',(1.,0.,-7.40148683083438E-17));
#1612=DIRECTION('center_axis',(0.,0.,-1.));
#1613=DIRECTION('ref_axis',(-0.961825219484955,-0.273664479176085,0.));
#1614=DIRECTION('center_axis',(1.26882631385732E-16,0.,-1.));
#1615=DIRECTION('ref_axis',(-0.961825219484955,-0.273664479176085,0.));
#1616=DIRECTION('',(0.,0.,-1.));
#1617=DIRECTION('center_axis',(7.40148683083438E-17,0.,1.));
#1618=DIRECTION('ref_axis',(-0.961825219484955,-0.273664479176085,0.));
#1619=DIRECTION('center_axis',(1.,-4.16294028175558E-32,0.));
#1620=DIRECTION('ref_axis',(-4.16294028175558E-32,-1.,3.28093785279401E-16));
#1621=DIRECTION('',(-4.16294028175558E-32,-1.,-5.28204817250809E-48));
#1622=DIRECTION('',(0.,0.,-1.));
#1623=DIRECTION('',(4.16294028175558E-32,1.,-3.08119476729639E-48));
#1624=DIRECTION('center_axis',(0.,0.,-1.));
#1625=DIRECTION('ref_axis',(0.611265534501347,0.791425578516883,0.));
#1626=DIRECTION('center_axis',(1.26882631385732E-16,0.,-1.));
#1627=DIRECTION('ref_axis',(0.769931939956566,-0.638126012504364,0.));
#1628=DIRECTION('',(0.,0.,-1.));
#1629=DIRECTION('center_axis',(7.40148683083438E-17,0.,1.));
#1630=DIRECTION('ref_axis',(0.769931939956566,-0.638126012504364,0.));
#1631=DIRECTION('center_axis',(-1.65793929662438E-16,1.,0.));
#1632=DIRECTION('ref_axis',(1.,1.65793929662438E-16,1.26882631385732E-16));
#1633=DIRECTION('',(1.,1.65793929662438E-16,1.26882631385732E-16));
#1634=DIRECTION('',(0.,0.,-1.));
#1635=DIRECTION('',(-1.,-1.65793929662438E-16,7.40148683083438E-17));
#1636=DIRECTION('center_axis',(0.,0.,-1.));
#1637=DIRECTION('ref_axis',(0.90066016870055,-0.434524177136667,0.));
#1638=DIRECTION('center_axis',(-1.26882631385732E-16,0.,1.));
#1639=DIRECTION('ref_axis',(-0.609147527069607,0.793056927505827,0.));
#1640=DIRECTION('',(0.,0.,-1.));
#1641=DIRECTION('center_axis',(-7.40148683083438E-17,0.,-1.));
#1642=DIRECTION('ref_axis',(-0.609147527069607,0.793056927505827,0.));
#1643=DIRECTION('center_axis',(-1.,-4.96488423616886E-16,0.));
#1644=DIRECTION('ref_axis',(-4.96488423616886E-16,1.,-6.29957576410646E-32));
#1645=DIRECTION('',(-4.96488423616886E-16,1.,-6.29957576410646E-32));
#1646=DIRECTION('',(4.96488423616886E-16,-1.,-3.6747525290621E-32));
#1647=DIRECTION('center_axis',(0.,0.,-1.));
#1648=DIRECTION('ref_axis',(0.707106781186547,0.707106781186547,0.));
#1649=DIRECTION('',(0.,0.,1.));
#1650=DIRECTION('center_axis',(0.707106781186548,0.,-0.707106781186548));
#1651=DIRECTION('ref_axis',(0.707106781186547,0.,0.707106781186547));
#1652=DIRECTION('',(0.,0.,-1.));
#1653=DIRECTION('center_axis',(1.,0.,1.26882631385732E-16));
#1654=DIRECTION('ref_axis',(0.,0.707106781186547,0.707106781186547));
#1655=DIRECTION('',(-1.,0.,-1.26882631385732E-16));
#1656=DIRECTION('',(1.,0.,1.26882631385732E-16));
#1657=DIRECTION('center_axis',(-1.26882631385732E-16,0.,1.));
#1658=DIRECTION('ref_axis',(-1.,0.,-1.26882631385732E-16));
#1659=DIRECTION('',(0.,-1.,0.));
#1660=DIRECTION('',(0.,-1.,0.));
#1661=DIRECTION('center_axis',(-1.,0.,8.88178419700125E-17));
#1662=DIRECTION('ref_axis',(-8.88178419700125E-17,0.,-1.));
#1663=DIRECTION('center_axis',(0.,1.,0.));
#1664=DIRECTION('ref_axis',(1.,0.,0.));
#1665=DIRECTION('',(1.1686558153949E-16,0.,1.));
#1666=DIRECTION('',(-1.,0.,5.1044736764375E-17));
#1667=DIRECTION('center_axis',(-1.,0.,-4.44089209850063E-16));
#1668=DIRECTION('ref_axis',(-4.44089209850063E-16,0.,1.));
#1669=DIRECTION('',(0.,1.,0.));
#1670=DIRECTION('center_axis',(7.40148683083438E-17,0.,1.));
#1671=DIRECTION('ref_axis',(1.,0.,-7.40148683083438E-17));
#1672=DIRECTION('center_axis',(1.,0.,-1.1686558153949E-16));
#1673=DIRECTION('ref_axis',(-1.1686558153949E-16,0.,-1.));
#1674=DIRECTION('',(0.,1.,0.));
#1675=DIRECTION('center_axis',(5.1044736764375E-17,0.,1.));
#1676=DIRECTION('ref_axis',(1.,0.,-5.1044736764375E-17));
#1677=DIRECTION('center_axis',(1.,0.,0.));
#1678=DIRECTION('ref_axis',(0.,0.,1.));
#1679=DIRECTION('center_axis',(1.,6.57335199602882E-16,0.));
#1680=DIRECTION('ref_axis',(6.57335199602882E-16,-1.,8.34044198280791E-32));
#1681=DIRECTION('',(6.57335199602882E-16,-1.,8.34044198280791E-32));
#1682=DIRECTION('',(0.,0.,-1.));
#1683=DIRECTION('',(-6.57335199602882E-16,1.,4.86525782330462E-32));
#1684=DIRECTION('',(0.,0.,-1.));
#1685=DIRECTION('center_axis',(0.,0.,-1.));
#1686=DIRECTION('ref_axis',(0.697602528018308,0.716484970465163,0.));
#1687=DIRECTION('center_axis',(-1.26882631385732E-16,0.,1.));
#1688=DIRECTION('ref_axis',(0.697602528018308,0.716484970465163,0.));
#1689=DIRECTION('center_axis',(-7.40148683083438E-17,0.,-1.));
#1690=DIRECTION('ref_axis',(0.697602528018308,0.716484970465163,0.));
#1691=DIRECTION('center_axis',(-1.26882631385732E-16,0.,1.));
#1692=DIRECTION('ref_axis',(-1.,0.,-1.26882631385732E-16));
#1693=DIRECTION('center_axis',(7.40148683083438E-17,0.,1.));
#1694=DIRECTION('ref_axis',(1.,0.,-7.40148683083438E-17));
#1695=DIRECTION('center_axis',(7.40148683083438E-17,0.,1.));
#1696=DIRECTION('ref_axis',(1.,0.,-7.40148683083438E-17));
#1697=DIRECTION('',(-2.47740526390533E-16,1.,1.8336482435435E-32));
#1698=DIRECTION('center_axis',(-7.40148683083438E-17,0.,-1.));
#1699=DIRECTION('ref_axis',(0.348591515238826,0.937274749208309,-7.74028652814232E-17));
#1700=DIRECTION('center_axis',(-1.26882631385732E-16,0.,1.));
#1701=DIRECTION('ref_axis',(-1.,0.,-1.26882631385732E-16));
#1702=DIRECTION('center_axis',(-1.26882631385732E-16,0.,1.));
#1703=DIRECTION('ref_axis',(0.348591515238826,0.937274749208309,-7.74028652814232E-17));
#1704=DIRECTION('',(2.47740526390533E-16,-1.,3.14339698893172E-32));
#1705=DIRECTION('center_axis',(-2.22044604925031E-16,0.,-1.));
#1706=DIRECTION('ref_axis',(0.348591515238826,0.937274749208309,-7.74028652814232E-17));
#1707=DIRECTION('',(-2.22044604925031E-16,0.,-1.));
#1708=DIRECTION('',(-2.22044604925031E-16,0.,-1.));
#1709=DIRECTION('center_axis',(1.,2.47740526390533E-16,-2.22044604925031E-16));
#1710=DIRECTION('ref_axis',(2.47740526390533E-16,-1.,3.30320701854044E-16));
#1711=DIRECTION('center_axis',(0.,0.,1.));
#1712=DIRECTION('ref_axis',(0.,-1.,0.));
#1713=DIRECTION('',(0.,1.,0.));
#1714=DIRECTION('',(1.,0.,0.));
#1715=DIRECTION('',(0.,-1.,0.));
#1716=DIRECTION('',(-1.,0.,0.));
#1717=DIRECTION('center_axis',(0.,0.,1.));
#1718=DIRECTION('ref_axis',(0.,-1.,0.));
#1719=DIRECTION('',(0.,1.,0.));
#1720=DIRECTION('',(1.,0.,0.));
#1721=DIRECTION('',(0.,-1.,0.));
#1722=DIRECTION('',(-1.,0.,0.));
#1723=DIRECTION('center_axis',(-1.,0.,0.));
#1724=DIRECTION('ref_axis',(0.,0.,1.));
#1725=DIRECTION('',(0.,0.,-1.));
#1726=DIRECTION('',(0.,1.,0.));
#1727=DIRECTION('',(0.,0.,1.));
#1728=DIRECTION('center_axis',(0.,1.,0.));
#1729=DIRECTION('ref_axis',(0.,0.,1.));
#1730=DIRECTION('',(-1.,0.,0.));
#1731=DIRECTION('',(0.,0.,-1.));
#1732=DIRECTION('',(0.,0.,1.));
#1733=DIRECTION('',(1.,0.,0.));
#1734=DIRECTION('',(0.,0.,-1.));
#1735=DIRECTION('center_axis',(-1.,0.,0.));
#1736=DIRECTION('ref_axis',(0.,0.,1.));
#1737=DIRECTION('',(0.,0.,1.));
#1738=DIRECTION('',(0.,1.,0.));
#1739=DIRECTION('center_axis',(0.,0.,-1.));
#1740=DIRECTION('ref_axis',(-1.,0.,0.));
#1741=DIRECTION('',(1.,0.,0.));
#1742=DIRECTION('',(0.,1.,0.));
#1743=DIRECTION('center_axis',(1.,0.,0.));
#1744=DIRECTION('ref_axis',(0.,0.,-1.));
#1745=DIRECTION('',(0.,1.,0.));
#1746=DIRECTION('',(0.,0.,-1.));
#1747=DIRECTION('center_axis',(0.,0.,1.));
#1748=DIRECTION('ref_axis',(1.,0.,0.));
#1749=DIRECTION('',(1.,0.,0.));
#1750=DIRECTION('center_axis',(1.,0.,0.));
#1751=DIRECTION('ref_axis',(0.,0.,-1.));
#1752=DIRECTION('',(0.,0.,1.));
#1753=DIRECTION('center_axis',(0.,-1.,0.));
#1754=DIRECTION('ref_axis',(1.,0.,0.));
#1755=CARTESIAN_POINT('',(0.,0.,0.));
#1756=CARTESIAN_POINT('Origin',(-35.,0.,0.));
#1757=CARTESIAN_POINT('',(-21.7499999999998,-1.99999999999999,0.));
#1758=CARTESIAN_POINT('',(-21.7499999999998,0.,0.));
#1759=CARTESIAN_POINT('',(-21.7499999999998,-30.,0.));
#1760=CARTESIAN_POINT('',(-29.9999999999991,-1.99999999999999,0.));
#1761=CARTESIAN_POINT('',(-17.4999999999996,-1.99999999999999,0.));
#1762=CARTESIAN_POINT('',(-29.9999999999991,-60.0000008940697,0.));
#1763=CARTESIAN_POINT('',(-29.9999999999991,-30.,0.));
#1764=CARTESIAN_POINT('',(-35.,-60.0000008940697,0.));
#1765=CARTESIAN_POINT('',(-17.5,-60.,0.));
#1766=CARTESIAN_POINT('',(-35.,-5.,0.));
#1767=CARTESIAN_POINT('',(-35.,0.,0.));
#1768=CARTESIAN_POINT('',(-30.,0.,0.));
#1769=CARTESIAN_POINT('Origin',(-30.,-5.,0.));
#1770=CARTESIAN_POINT('',(-17.5,0.,0.));
#1771=CARTESIAN_POINT('Origin',(-35.,0.,0.));
#1772=CARTESIAN_POINT('',(21.7500000000002,0.,0.));
#1773=CARTESIAN_POINT('',(21.7500000000002,-1.99999999999999,0.));
#1774=CARTESIAN_POINT('',(21.7500000000002,-30.,0.));
#1775=CARTESIAN_POINT('',(30.,0.,0.));
#1776=CARTESIAN_POINT('',(-17.5,0.,0.));
#1777=CARTESIAN_POINT('',(35.,-5.,0.));
#1778=CARTESIAN_POINT('Origin',(30.,-5.,0.));
#1779=CARTESIAN_POINT('',(35.,-60.0000008940697,0.));
#1780=CARTESIAN_POINT('',(35.,0.,0.));
#1781=CARTESIAN_POINT('',(30.0000000000009,-60.0000008940697,0.));
#1782=CARTESIAN_POINT('',(-17.5,-60.,0.));
#1783=CARTESIAN_POINT('',(30.0000000000008,-1.99999999999999,0.));
#1784=CARTESIAN_POINT('',(30.0000000000009,-30.,0.));
#1785=CARTESIAN_POINT('',(-17.4999999999996,-1.99999999999999,0.));
#1786=CARTESIAN_POINT('Origin',(8.4821039081362E-13,-1.99999999999999,4.52970994047064E-13));
#1787=CARTESIAN_POINT('',(30.0000000000008,-1.99999999999999,20.0000000000004));
#1788=CARTESIAN_POINT('',(30.0000000000008,-1.99999999999999,20.0000000000004));
#1789=CARTESIAN_POINT('',(-29.9999999999992,-1.99999999999999,20.0000000000005));
#1790=CARTESIAN_POINT('',(-29.9999999999992,-1.99999999999999,20.0000000000005));
#1791=CARTESIAN_POINT('',(-29.9999999999991,-1.99999999999999,-19.9999999999995));
#1792=CARTESIAN_POINT('',(-21.7499999999998,-1.99999999999999,18.9999999999998));
#1793=CARTESIAN_POINT('',(-21.7499999999998,-1.99999999999999,-9.49999999999988));
#1794=CARTESIAN_POINT('',(21.7500000000002,-1.99999999999999,18.9999999999998));
#1795=CARTESIAN_POINT('',(-10.8749999999995,-1.99999999999999,18.9999999999998));
#1796=CARTESIAN_POINT('',(21.7500000000002,-1.99999999999999,9.50000000000012));
#1797=CARTESIAN_POINT('',(27.4142139708767,-1.99999999999999,16.0000002384186));
#1798=CARTESIAN_POINT('Origin',(26.0000003874302,-1.99999999999999,16.0000002384186));
#1799=CARTESIAN_POINT('',(-24.5857868039837,-1.99999999999999,16.0000002384186));
#1800=CARTESIAN_POINT('Origin',(-26.0000003874302,-1.99999999999999,16.0000002384186));
#1801=CARTESIAN_POINT('',(-26.2499994132668,-1.99999999999999,5.84999986924231));
#1802=CARTESIAN_POINT('Origin',(-26.7999994009733,-1.99999999999999,5.84999986924231));
#1803=CARTESIAN_POINT('',(27.2999993897974,-1.99999999999999,0.999999977648258));
#1804=CARTESIAN_POINT('Origin',(26.7999994009733,-1.99999999999999,0.999999977648258));
#1805=CARTESIAN_POINT('',(27.2999993897974,-1.99999999999999,9.99999977648258));
#1806=CARTESIAN_POINT('Origin',(26.7999994009733,-1.99999999999999,9.99999977648258));
#1807=CARTESIAN_POINT('',(-26.2499994132668,-1.99999999999999,1.9499999564141));
#1808=CARTESIAN_POINT('Origin',(-26.7999994009733,-1.99999999999999,1.9499999564141));
#1809=CARTESIAN_POINT('',(27.2999993897974,-1.99999999999999,3.99999991059303));
#1810=CARTESIAN_POINT('Origin',(26.7999994009733,-1.99999999999999,3.99999991059303));
#1811=CARTESIAN_POINT('',(27.2999993897974,-1.99999999999999,6.99999984353781));
#1812=CARTESIAN_POINT('Origin',(26.7999994009733,-1.99999999999999,6.99999984353781));
#1813=CARTESIAN_POINT('Origin',(-21.7499999999998,-60.,-19.0000000000002));
#1814=CARTESIAN_POINT('',(-21.7499999999998,0.,18.9999999999998));
#1815=CARTESIAN_POINT('',(-21.7499999999998,0.,-9.50000000000011));
#1816=CARTESIAN_POINT('',(-21.7499999999998,-60.,18.9999999999998));
#1817=CARTESIAN_POINT('Origin',(30.0000000000008,-60.,20.0000000000004));
#1818=CARTESIAN_POINT('',(30.0000000000008,-60.,20.0000000000004));
#1819=CARTESIAN_POINT('',(30.0000000000008,-60.,10.0000000000002));
#1820=CARTESIAN_POINT('',(30.0000000000008,-60.,20.0000000000004));
#1821=CARTESIAN_POINT('Origin',(4.44089209850063E-15,-60.,0.));
#1822=CARTESIAN_POINT('',(35.,-60.,25.));
#1823=CARTESIAN_POINT('',(35.,-60.,25.));
#1824=CARTESIAN_POINT('',(-35.,-60.,25.));
#1825=CARTESIAN_POINT('',(-35.,-60.,25.));
#1826=CARTESIAN_POINT('',(-35.,-60.,-25.));
#1827=CARTESIAN_POINT('',(-29.9999999999992,-60.,20.0000000000005));
#1828=CARTESIAN_POINT('',(-29.9999999999991,-60.,-9.99999999999978));
#1829=CARTESIAN_POINT('',(-14.9999999999996,-60.,20.0000000000005));
#1830=CARTESIAN_POINT('Origin',(-30.,-5.,12.5));
#1831=CARTESIAN_POINT('',(-35.,-5.,25.));
#1832=CARTESIAN_POINT('',(-35.,-5.,12.5));
#1833=CARTESIAN_POINT('',(-30.,0.,20.));
#1834=CARTESIAN_POINT('Origin',(-30.,-5.,20.));
#1835=CARTESIAN_POINT('',(-30.,0.,12.5));
#1836=CARTESIAN_POINT('Origin',(26.7999994009733,0.,6.99999984353781));
#1837=CARTESIAN_POINT('',(27.2999993897974,0.,6.99999984353781));
#1838=CARTESIAN_POINT('Origin',(26.7999994009733,0.,6.99999984353781));
#1839=CARTESIAN_POINT('',(27.2999993897974,0.,6.99999984353781));
#1840=CARTESIAN_POINT('Origin',(26.7999994009733,0.,3.99999991059303));
#1841=CARTESIAN_POINT('',(27.2999993897974,0.,3.99999991059303));
#1842=CARTESIAN_POINT('Origin',(26.7999994009733,0.,3.99999991059303));
#1843=CARTESIAN_POINT('',(27.2999993897974,0.,3.99999991059303));
#1844=CARTESIAN_POINT('Origin',(-26.7999994009733,0.,1.9499999564141));
#1845=CARTESIAN_POINT('',(-26.2499994132668,0.,1.9499999564141));
#1846=CARTESIAN_POINT('Origin',(-26.7999994009733,0.,1.9499999564141));
#1847=CARTESIAN_POINT('',(-26.2499994132668,0.,1.9499999564141));
#1848=CARTESIAN_POINT('Origin',(26.7999994009733,0.,9.99999977648258));
#1849=CARTESIAN_POINT('',(27.2999993897974,0.,9.99999977648258));
#1850=CARTESIAN_POINT('Origin',(26.7999994009733,0.,9.99999977648258));
#1851=CARTESIAN_POINT('',(27.2999993897974,0.,9.99999977648258));
#1852=CARTESIAN_POINT('Origin',(26.7999994009733,0.,0.999999977648258));
#1853=CARTESIAN_POINT('',(27.2999993897974,0.,0.999999977648258));
#1854=CARTESIAN_POINT('Origin',(26.7999994009733,0.,0.999999977648258));
#1855=CARTESIAN_POINT('',(27.2999993897974,0.,0.999999977648258));
#1856=CARTESIAN_POINT('Origin',(-26.7999994009733,0.,5.84999986924231));
#1857=CARTESIAN_POINT('',(-26.2499994132668,0.,5.84999986924231));
#1858=CARTESIAN_POINT('Origin',(-26.7999994009733,0.,5.84999986924231));
#1859=CARTESIAN_POINT('',(-26.2499994132668,0.,5.84999986924231));
#1860=CARTESIAN_POINT('Origin',(-26.0000003874302,0.,16.0000002384186));
#1861=CARTESIAN_POINT('',(-24.5857868039837,0.,16.0000002384186));
#1862=CARTESIAN_POINT('Origin',(-26.0000003874302,0.,16.0000002384186));
#1863=CARTESIAN_POINT('',(-24.5857868039837,0.,16.0000002384186));
#1864=CARTESIAN_POINT('Origin',(26.0000003874302,0.,16.0000002384186));
#1865=CARTESIAN_POINT('',(27.4142139708767,0.,16.0000002384186));
#1866=CARTESIAN_POINT('Origin',(26.0000003874302,0.,16.0000002384186));
#1867=CARTESIAN_POINT('',(27.4142139708767,0.,16.0000002384186));
#1868=CARTESIAN_POINT('Origin',(-6.75923106590082,-25.0190134629548,25.));
#1869=CARTESIAN_POINT('',(-6.75923106590082,-25.0190134629548,25.));
#1870=CARTESIAN_POINT('',(-6.75923106590083,-12.4901754644228,25.));
#1871=CARTESIAN_POINT('',(-6.75923106590083,-12.5095067314774,25.));
#1872=CARTESIAN_POINT('',(-6.75923106590083,-25.0190134629548,20.));
#1873=CARTESIAN_POINT('',(-6.75923106590082,-25.0190134629548,25.));
#1874=CARTESIAN_POINT('',(-6.75923106590083,-12.4901754644228,20.));
#1875=CARTESIAN_POINT('',(-6.75923106590082,-42.5095067314774,20.0000000000005));
#1876=CARTESIAN_POINT('',(-6.75923106590083,-12.4901754644228,25.));
#1877=CARTESIAN_POINT('Origin',(-7.09478050909352,-25.3896973864975,25.));
#1878=CARTESIAN_POINT('',(-7.56346537966998,-25.5638653861207,25.));
#1879=CARTESIAN_POINT('Origin',(-7.09478050909352,-25.3896973864975,25.));
#1880=CARTESIAN_POINT('',(-7.56346537966998,-25.5638653861207,20.));
#1881=CARTESIAN_POINT('',(-7.56346537966998,-25.5638653861207,25.));
#1882=CARTESIAN_POINT('Origin',(-7.09478050909352,-25.3896973864975,20.0000000000004));
#1883=CARTESIAN_POINT('Origin',(6.35119138770151,-25.5638653861207,25.));
#1884=CARTESIAN_POINT('',(6.35119138770151,-25.5638653861207,25.));
#1885=CARTESIAN_POINT('',(20.6755956938508,-25.5638653861207,25.));
#1886=CARTESIAN_POINT('',(6.35119138770151,-25.5638653861207,20.));
#1887=CARTESIAN_POINT('',(6.35119138770151,-25.5638653861207,25.));
#1888=CARTESIAN_POINT('',(-11.8244043061488,-25.5638653861207,20.0000000000005));
#1889=CARTESIAN_POINT('Origin',(6.82928458809103,-25.4174861125151,25.));
#1890=CARTESIAN_POINT('',(7.24076893409924,-25.7015294771448,25.));
#1891=CARTESIAN_POINT('Origin',(6.82928458809103,-25.4174861125151,25.));
#1892=CARTESIAN_POINT('',(7.24076893409924,-25.7015294771448,20.));
#1893=CARTESIAN_POINT('',(7.24076893409924,-25.7015294771448,25.));
#1894=CARTESIAN_POINT('Origin',(6.82928458809103,-25.4174861125151,20.0000000000004));
#1895=CARTESIAN_POINT('Origin',(7.24076893409923,-12.4043260292737,25.));
#1896=CARTESIAN_POINT('',(7.24076893409923,-12.4043260292737,25.));
#1897=CARTESIAN_POINT('',(7.24076893409923,-6.20216301463686,25.));
#1898=CARTESIAN_POINT('',(7.24076893409923,-12.4043260292737,20.));
#1899=CARTESIAN_POINT('',(7.24076893409923,-12.4043260292737,25.));
#1900=CARTESIAN_POINT('',(7.24076893409924,-36.2021630146368,20.0000000000004));
#1901=CARTESIAN_POINT('Origin',(6.95288592311726,-11.9955187739712,25.));
#1902=CARTESIAN_POINT('',(6.70054616652492,-11.5638653861206,25.));
#1903=CARTESIAN_POINT('Origin',(6.95288592311726,-11.9955187739712,25.));
#1904=CARTESIAN_POINT('',(6.70054616652492,-11.5638653861206,20.));
#1905=CARTESIAN_POINT('',(6.70054616652492,-11.5638653861206,25.));
#1906=CARTESIAN_POINT('Origin',(6.95288592311726,-11.9955187739712,20.0000000000004));
#1907=CARTESIAN_POINT('Origin',(-6.78627009486772,-11.5638653861206,25.));
#1908=CARTESIAN_POINT('',(-6.78627009486773,-11.5638653861206,25.));
#1909=CARTESIAN_POINT('',(14.1068649525661,-11.5638653861206,25.));
#1910=CARTESIAN_POINT('',(-6.78627009486773,-11.5638653861206,20.));
#1911=CARTESIAN_POINT('',(-6.78627009486773,-11.5638653861206,25.));
#1912=CARTESIAN_POINT('',(-18.3931350474334,-11.5638653861206,20.0000000000005));
#1913=CARTESIAN_POINT('Origin',(-6.96056585248714,-12.0325027607248,25.));
#1914=CARTESIAN_POINT('Origin',(-6.96056585248714,-12.0325027607248,25.));
#1915=CARTESIAN_POINT('Origin',(-6.96056585248714,-12.0325027607248,20.0000000000004));
#1916=CARTESIAN_POINT('Origin',(-25.8092310659009,-25.2305057426016,25.));
#1917=CARTESIAN_POINT('',(-25.8092310659009,-25.2305057426016,25.));
#1918=CARTESIAN_POINT('',(-25.8092310659009,-12.1255137227215,25.));
#1919=CARTESIAN_POINT('',(-25.8092310659009,-12.6152528713008,25.));
#1920=CARTESIAN_POINT('',(-25.8092310659009,-25.2305057426016,20.));
#1921=CARTESIAN_POINT('',(-25.8092310659009,-25.2305057426016,25.));
#1922=CARTESIAN_POINT('',(-25.8092310659009,-12.1255137227215,20.));
#1923=CARTESIAN_POINT('',(-25.8092310659009,-42.6152528713008,20.0000000000005));
#1924=CARTESIAN_POINT('',(-25.8092310659009,-12.1255137227215,25.));
#1925=CARTESIAN_POINT('Origin',(-26.2838893861944,-25.3876664214502,25.));
#1926=CARTESIAN_POINT('',(-26.7518145135909,-25.5638653861207,25.));
#1927=CARTESIAN_POINT('Origin',(-26.2838893861944,-25.3876664214502,25.));
#1928=CARTESIAN_POINT('',(-26.7518145135909,-25.5638653861207,20.));
#1929=CARTESIAN_POINT('',(-26.7518145135909,-25.5638653861207,25.));
#1930=CARTESIAN_POINT('Origin',(-26.2838893861944,-25.3876664214502,20.0000000000005));
#1931=CARTESIAN_POINT('Origin',(-12.689867102148,-25.5638653861207,25.));
#1932=CARTESIAN_POINT('',(-12.689867102148,-25.5638653861207,25.));
#1933=CARTESIAN_POINT('',(11.155066448926,-25.5638653861206,25.));
#1934=CARTESIAN_POINT('',(-12.689867102148,-25.5638653861207,20.));
#1935=CARTESIAN_POINT('',(-12.689867102148,-25.5638653861207,25.));
#1936=CARTESIAN_POINT('',(-21.3449335510736,-25.5638653861207,20.0000000000005));
#1937=CARTESIAN_POINT('Origin',(-12.2201036266329,-25.3926278987766,25.));
#1938=CARTESIAN_POINT('',(-11.8092310659008,-25.6775555015768,25.));
#1939=CARTESIAN_POINT('Origin',(-12.2201036266329,-25.3926278987766,25.));
#1940=CARTESIAN_POINT('',(-11.8092310659008,-25.6775555015768,20.));
#1941=CARTESIAN_POINT('',(-11.8092310659008,-25.6775555015768,25.));
#1942=CARTESIAN_POINT('Origin',(-12.2201036266329,-25.3926278987766,20.0000000000005));
#1943=CARTESIAN_POINT('Origin',(-11.8092310659008,-12.4792523395139,25.));
#1944=CARTESIAN_POINT('',(-11.8092310659008,-12.4792523395139,25.));
#1945=CARTESIAN_POINT('',(-11.8092310659008,-6.23962616975694,25.));
#1946=CARTESIAN_POINT('',(-11.8092310659008,-12.4792523395139,20.));
#1947=CARTESIAN_POINT('',(-11.8092310659008,-12.4792523395139,25.));
#1948=CARTESIAN_POINT('',(-11.8092310659008,-36.2396261697569,20.0000000000005));
#1949=CARTESIAN_POINT('Origin',(-12.0253336398427,-12.0283646843982,25.));
#1950=CARTESIAN_POINT('',(-11.8402920177691,-11.5638653861206,25.));
#1951=CARTESIAN_POINT('Origin',(-12.0253336398427,-12.0283646843982,25.));
#1952=CARTESIAN_POINT('',(-11.8402920177691,-11.5638653861206,20.));
#1953=CARTESIAN_POINT('',(-11.8402920177691,-11.5638653861206,25.));
#1954=CARTESIAN_POINT('Origin',(-12.0253336398427,-12.0283646843982,20.0000000000005));
#1955=CARTESIAN_POINT('Origin',(-25.9171858195085,-11.5638653861206,25.));
#1956=CARTESIAN_POINT('',(-25.9171858195085,-11.5638653861206,25.));
#1957=CARTESIAN_POINT('',(4.54140709024575,-11.5638653861206,25.));
#1958=CARTESIAN_POINT('',(-25.9171858195085,-11.5638653861206,20.));
#1959=CARTESIAN_POINT('',(-25.9171858195085,-11.5638653861206,25.));
#1960=CARTESIAN_POINT('',(-27.9585929097538,-11.5638653861206,20.0000000000005));
#1961=CARTESIAN_POINT('Origin',(-26.2659870835177,-11.9221078713532,25.));
#1962=CARTESIAN_POINT('Origin',(-26.2659870835177,-11.9221078713532,25.));
#1963=CARTESIAN_POINT('Origin',(-26.2659870835177,-11.9221078713532,20.0000000000005));
#1964=CARTESIAN_POINT('Origin',(12.2434210442635,-25.3898667292627,25.));
#1965=CARTESIAN_POINT('',(11.7746732790298,-25.5638653861206,25.));
#1966=CARTESIAN_POINT('',(12.2907689340993,-24.8921136003644,25.));
#1967=CARTESIAN_POINT('Origin',(12.2434210442635,-25.3898667292627,25.));
#1968=CARTESIAN_POINT('',(11.7746732790298,-25.5638653861206,20.));
#1969=CARTESIAN_POINT('',(11.7746732790298,-25.5638653861206,25.));
#1970=CARTESIAN_POINT('',(12.2907689340993,-24.8921136003644,20.));
#1971=CARTESIAN_POINT('Origin',(12.2434210442635,-25.3898667292627,20.0000000000005));
#1972=CARTESIAN_POINT('',(12.2907689340993,-24.8921136003644,25.));
#1973=CARTESIAN_POINT('Origin',(25.3977711924877,-25.5638653861207,25.));
#1974=CARTESIAN_POINT('',(25.3977711924877,-25.5638653861207,25.));
#1975=CARTESIAN_POINT('',(30.1988855962439,-25.5638653861207,25.));
#1976=CARTESIAN_POINT('',(25.3977711924877,-25.5638653861207,20.));
#1977=CARTESIAN_POINT('',(25.3977711924877,-25.5638653861207,25.));
#1978=CARTESIAN_POINT('',(-2.3011144037557,-25.5638653861206,20.0000000000005));
#1979=CARTESIAN_POINT('Origin',(25.8786838022302,-25.4270331465326,25.));
#1980=CARTESIAN_POINT('',(26.2907689340993,-25.7102041974761,25.));
#1981=CARTESIAN_POINT('Origin',(25.8786838022302,-25.4270331465326,25.));
#1982=CARTESIAN_POINT('',(26.2907689340993,-25.7102041974761,20.));
#1983=CARTESIAN_POINT('',(26.2907689340993,-25.7102041974761,25.));
#1984=CARTESIAN_POINT('Origin',(25.8786838022302,-25.4270331465326,20.0000000000005));
#1985=CARTESIAN_POINT('Origin',(26.2907689340993,-12.1747692159241,25.));
#1986=CARTESIAN_POINT('',(26.2907689340993,-12.1747692159241,25.));
#1987=CARTESIAN_POINT('',(26.2907689340993,-6.08738460796204,25.));
#1988=CARTESIAN_POINT('',(26.2907689340993,-12.1747692159241,20.));
#1989=CARTESIAN_POINT('',(26.2907689340993,-12.1747692159241,25.));
#1990=CARTESIAN_POINT('',(26.2907689340993,-36.087384607962,20.0000000000004));
#1991=CARTESIAN_POINT('Origin',(25.905802964121,-11.8557062096719,25.));
#1992=CARTESIAN_POINT('',(25.4998116665432,-11.5638653861206,25.));
#1993=CARTESIAN_POINT('Origin',(25.905802964121,-11.8557062096719,25.));
#1994=CARTESIAN_POINT('',(25.4998116665432,-11.5638653861206,20.));
#1995=CARTESIAN_POINT('',(25.4998116665432,-11.5638653861206,25.));
#1996=CARTESIAN_POINT('Origin',(25.905802964121,-11.8557062096719,20.0000000000005));
#1997=CARTESIAN_POINT('Origin',(12.7161525102124,-11.5638653861206,25.));
#1998=CARTESIAN_POINT('',(12.7161525102124,-11.5638653861206,25.));
#1999=CARTESIAN_POINT('',(23.8580762551062,-11.5638653861206,25.));
#2000=CARTESIAN_POINT('',(12.7161525102124,-11.5638653861206,20.));
#2001=CARTESIAN_POINT('',(12.7161525102124,-11.5638653861206,25.));
#2002=CARTESIAN_POINT('',(-8.64192374489337,-11.5638653861206,20.0000000000005));
#2003=CARTESIAN_POINT('Origin',(12.4115787466776,-11.9603938498735,25.));
#2004=CARTESIAN_POINT('',(12.2907689340993,-12.4455793702518,25.));
#2005=CARTESIAN_POINT('Origin',(12.4115787466776,-11.9603938498735,25.));
#2006=CARTESIAN_POINT('',(12.2907689340993,-12.4455793702518,20.));
#2007=CARTESIAN_POINT('',(12.2907689340993,-12.4455793702518,25.));
#2008=CARTESIAN_POINT('Origin',(12.4115787466776,-11.9603938498735,20.0000000000005));
#2009=CARTESIAN_POINT('Origin',(12.2907689340993,-24.8921136003644,25.));
#2010=CARTESIAN_POINT('',(12.2907689340993,-12.4460568001822,25.));
#2011=CARTESIAN_POINT('',(12.2907689340993,-42.4460568001822,20.0000000000004));
#2012=CARTESIAN_POINT('Origin',(30.,-5.,-12.5));
#2013=CARTESIAN_POINT('',(30.,0.,20.));
#2014=CARTESIAN_POINT('',(30.,0.,-12.5));
#2015=CARTESIAN_POINT('',(35.,-5.,25.));
#2016=CARTESIAN_POINT('Origin',(30.,-5.,20.));
#2017=CARTESIAN_POINT('',(35.,-5.,-12.5));
#2018=CARTESIAN_POINT('Origin',(17.5,-5.,20.));
#2019=CARTESIAN_POINT('',(17.5,0.,20.));
#2020=CARTESIAN_POINT('',(17.5,-5.,25.));
#2021=CARTESIAN_POINT('Origin',(35.,0.,25.));
#2022=CARTESIAN_POINT('',(-35.,0.,25.));
#2023=CARTESIAN_POINT('',(35.,0.,25.));
#2024=CARTESIAN_POINT('Origin',(-35.,0.,25.));
#2025=CARTESIAN_POINT('Origin',(4.44089209850063E-15,0.,0.));
#2026=CARTESIAN_POINT('',(21.7500000000002,0.,18.9999999999998));
#2027=CARTESIAN_POINT('',(21.7500000000002,0.,9.49999999999989));
#2028=CARTESIAN_POINT('',(-10.8749999999999,0.,18.9999999999998));
#2029=CARTESIAN_POINT('Origin',(-29.9999999999991,-60.,-19.9999999999995));
#2030=CARTESIAN_POINT('',(-29.9999999999992,-60.,20.0000000000005));
#2031=CARTESIAN_POINT('Origin',(-29.9999999999992,-60.,20.0000000000005));
#2032=CARTESIAN_POINT('Origin',(21.7500000000002,-60.,18.9999999999998));
#2033=CARTESIAN_POINT('',(21.7500000000002,-60.,18.9999999999998));
#2034=CARTESIAN_POINT('Origin',(-21.7499999999998,-60.,18.9999999999998));
#2035=CARTESIAN_POINT('Origin',(35.,0.,-25.));
#2036=CARTESIAN_POINT('Origin',(-25.8092310659009,-11.7187020199849,25.));
#2037=CARTESIAN_POINT('',(-25.8092310659009,-11.7187020199849,25.));
#2038=CARTESIAN_POINT('',(-25.8092310659009,-12.1255137227215,25.));
#2039=CARTESIAN_POINT('',(-25.8092310659009,-5.85935100999245,25.));
#2040=CARTESIAN_POINT('',(-25.8092310659009,-11.7187020199849,20.));
#2041=CARTESIAN_POINT('',(-25.8092310659009,-11.7187020199849,25.));
#2042=CARTESIAN_POINT('',(-25.8092310659009,-12.1255137227215,20.));
#2043=CARTESIAN_POINT('',(-25.8092310659009,-35.8593510099924,20.0000000000005));
#2044=CARTESIAN_POINT('',(-25.8092310659009,-12.1255137227215,25.));
#2045=CARTESIAN_POINT('Origin',(-26.2659870835177,-11.9221078713532,25.));
#2046=CARTESIAN_POINT('Origin',(-26.2659870835177,-11.9221078713532,25.));
#2047=CARTESIAN_POINT('Origin',(-26.2659870835177,-11.9221078713532,20.0000000000005));
#2048=CARTESIAN_POINT('Origin',(35.,0.,25.));
#2049=CARTESIAN_POINT('Origin',(-29.9999999999992,-60.,20.0000000000005));
#2050=CARTESIAN_POINT('Origin',(-29.9999999999992,-60.,20.0000000000005));
#2051=CARTESIAN_POINT('',(-6.75923106590083,-12.4901754644228,20.));
#2052=CARTESIAN_POINT('',(-6.75923106590083,-11.5748300570267,20.));
#2053=CARTESIAN_POINT('',(-6.75923106590082,-35.7874150285134,20.0000000000005));
#2054=CARTESIAN_POINT('Origin',(-6.96056585248714,-12.0325027607248,20.0000000000004));
#2055=CARTESIAN_POINT('Origin',(35.,0.,25.));
#2056=CARTESIAN_POINT('',(-6.75923106590083,-12.4901754644228,25.));
#2057=CARTESIAN_POINT('',(-6.75923106590083,-11.5748300570267,25.));
#2058=CARTESIAN_POINT('Origin',(-6.96056585248714,-12.0325027607248,25.));
#2059=CARTESIAN_POINT('',(-6.75923106590083,-5.78741502851338,25.));
#2060=CARTESIAN_POINT('Origin',(-6.96056585248714,-12.0325027607248,25.));
#2061=CARTESIAN_POINT('',(-6.75923106590083,-12.4901754644228,25.));
#2062=CARTESIAN_POINT('',(-6.75923106590083,-11.5748300570267,25.));
#2063=CARTESIAN_POINT('Origin',(-6.75923106590083,-11.5748300570268,25.));
#2064=CARTESIAN_POINT('Origin',(-35.,0.,0.));
#2065=CARTESIAN_POINT('',(-28.0000004172325,-60.0000008940697,0.));
#2066=CARTESIAN_POINT('',(-28.0000004172325,-56.,0.));
#2067=CARTESIAN_POINT('',(-28.0000004172325,-30.,0.));
#2068=CARTESIAN_POINT('',(-29.9999999999992,-60.0000008940697,0.));
#2069=CARTESIAN_POINT('',(-17.4999999999996,-60.,0.));
#2070=CARTESIAN_POINT('',(-29.9999999999992,-56.,0.));
#2071=CARTESIAN_POINT('',(-29.9999999999992,-30.,0.));
#2072=CARTESIAN_POINT('',(-17.4999999999996,-56.,0.));
#2073=CARTESIAN_POINT('Origin',(-35.,0.,0.));
#2074=CARTESIAN_POINT('',(30.0000000000009,-60.0000008940697,0.));
#2075=CARTESIAN_POINT('',(30.0000000000008,-56.,0.));
#2076=CARTESIAN_POINT('',(30.0000000000009,-30.,0.));
#2077=CARTESIAN_POINT('',(28.0000004172325,-60.0000008940697,0.));
#2078=CARTESIAN_POINT('',(-17.4999999999996,-60.,0.));
#2079=CARTESIAN_POINT('',(28.0000004172325,-56.,0.));
#2080=CARTESIAN_POINT('',(28.0000004172325,-30.,0.));
#2081=CARTESIAN_POINT('',(-17.4999999999996,-56.,0.));
#2082=CARTESIAN_POINT('Origin',(28.0000004172325,-60.,-20.0000002980232));
#2083=CARTESIAN_POINT('',(28.0000004172325,-60.,18.0000002682209));
#2084=CARTESIAN_POINT('',(28.0000004172325,-60.,18.0000002682209));
#2085=CARTESIAN_POINT('',(28.0000004172325,-56.,18.0000002682209));
#2086=CARTESIAN_POINT('',(28.0000004172325,-60.,18.0000002682209));
#2087=CARTESIAN_POINT('',(28.0000004172325,-56.,18.0000002682209));
#2088=CARTESIAN_POINT('Origin',(8.4821039081362E-13,-56.,-1.4901138545298E-7));
#2089=CARTESIAN_POINT('',(-28.0000004172325,-56.,18.0000002682209));
#2090=CARTESIAN_POINT('',(-28.0000004172325,-56.,18.0000002682209));
#2091=CARTESIAN_POINT('',(-28.0000004172325,-56.,-18.0000002682209));
#2092=CARTESIAN_POINT('',(-29.9999999999992,-56.,20.0000000000005));
#2093=CARTESIAN_POINT('',(-29.9999999999992,-56.,-19.9999999999995));
#2094=CARTESIAN_POINT('',(30.0000000000009,-56.,20.0000000000005));
#2095=CARTESIAN_POINT('',(-29.9999999999992,-56.,20.0000000000005));
#2096=CARTESIAN_POINT('',(30.0000000000008,-56.,20.0000000000005));
#2097=CARTESIAN_POINT('Origin',(-29.9999999999992,-60.,-19.9999999999995));
#2098=CARTESIAN_POINT('',(-29.9999999999992,-60.,20.0000000000005));
#2099=CARTESIAN_POINT('',(-29.9999999999992,-60.,-19.9999999999995));
#2100=CARTESIAN_POINT('',(-29.9999999999992,-60.,20.0000000000005));
#2101=CARTESIAN_POINT('Origin',(28.0000004172325,-60.,18.0000002682209));
#2102=CARTESIAN_POINT('',(-28.0000004172325,-60.,18.0000002682209));
#2103=CARTESIAN_POINT('',(-28.0000004172325,-60.,18.0000002682209));
#2104=CARTESIAN_POINT('',(-28.0000004172325,-60.,18.0000002682209));
#2105=CARTESIAN_POINT('Origin',(30.0000000000008,-60.,20.0000000000005));
#2106=CARTESIAN_POINT('',(30.0000000000008,-60.,20.0000000000005));
#2107=CARTESIAN_POINT('',(30.0000000000008,-60.,20.0000000000005));
#2108=CARTESIAN_POINT('',(30.0000000000008,-60.,20.0000000000005));
#2109=CARTESIAN_POINT('Origin',(-29.9999999999992,-60.,20.0000000000005));
#2110=CARTESIAN_POINT('',(-29.9999999999992,-60.,20.0000000000005));
#2111=CARTESIAN_POINT('Origin',(-28.0000004172325,-60.,18.0000002682209));
#2112=CARTESIAN_POINT('',(-28.0000004172325,-60.,-18.0000002682209));
#2113=CARTESIAN_POINT('Origin',(8.4821039081362E-13,-60.,-1.4901138545298E-7));
#2114=UNCERTAINTY_MEASURE_WITH_UNIT(LENGTH_MEASURE(0.01),#2118,
'DISTANCE_ACCURACY_VALUE',
'Maximum model space distance between geometric entities at asserted c
onnectivities');
#2115=UNCERTAINTY_MEASURE_WITH_UNIT(LENGTH_MEASURE(0.01),#2118,
'DISTANCE_ACCURACY_VALUE',
'Maximum model space distance between geometric entities at asserted c
onnectivities');
#2116=(
GEOMETRIC_REPRESENTATION_CONTEXT(3)
GLOBAL_UNCERTAINTY_ASSIGNED_CONTEXT((#2114))
GLOBAL_UNIT_ASSIGNED_CONTEXT((#2118,#2119,#2120))
REPRESENTATION_CONTEXT('','3D')
);
#2117=(
GEOMETRIC_REPRESENTATION_CONTEXT(3)
GLOBAL_UNCERTAINTY_ASSIGNED_CONTEXT((#2115))
GLOBAL_UNIT_ASSIGNED_CONTEXT((#2118,#2119,#2120))
REPRESENTATION_CONTEXT('','3D')
);
#2118=(
LENGTH_UNIT()
NAMED_UNIT(*)
SI_UNIT(.MILLI.,.METRE.)
);
#2119=(
NAMED_UNIT(*)
PLANE_ANGLE_UNIT()
SI_UNIT($,.RADIAN.)
);
#2120=(
NAMED_UNIT(*)
SI_UNIT($,.STERADIAN.)
SOLID_ANGLE_UNIT()
);
#2121=SHAPE_DEFINITION_REPRESENTATION(#2122,#2123);
#2122=PRODUCT_DEFINITION_SHAPE('',$,#2125);
#2123=SHAPE_REPRESENTATION('',(#1280),#2116);
#2124=PRODUCT_DEFINITION_CONTEXT('part definition',#2129,'design');
#2125=PRODUCT_DEFINITION('2026-04-03-09-55-27-354','Case',#2126,#2124);
#2126=PRODUCT_DEFINITION_FORMATION('',$,#2131);
#2127=PRODUCT_RELATED_PRODUCT_CATEGORY('Case','Case',(#2131));
#2128=APPLICATION_PROTOCOL_DEFINITION('international standard',
'automotive_design',2009,#2129);
#2129=APPLICATION_CONTEXT(
'Core Data for Automotive Mechanical Design Process');
#2130=PRODUCT_CONTEXT('part definition',#2129,'mechanical');
#2131=PRODUCT('2026-04-03-09-55-27-354','Case',$,(#2130));
#2132=PRESENTATION_STYLE_ASSIGNMENT((#2133));
#2133=SURFACE_STYLE_USAGE(.BOTH.,#2134);
#2134=SURFACE_SIDE_STYLE('',(#2135));
#2135=SURFACE_STYLE_FILL_AREA(#2136);
#2136=FILL_AREA_STYLE('Steel - Satin',(#2137));
#2137=FILL_AREA_STYLE_COLOUR('Steel - Satin',#2138);
#2138=COLOUR_RGB('Steel - Satin',0.627450980392157,0.627450980392157,0.627450980392157);
ENDSEC;
END-ISO-10303-21;
